solid ascii
 facet normal -0.177597 -0.00208424 0.984101
  outer loop
   vertex 0.00153558 -0.038075 0.00446082
   vertex 0.00629325 -0.00425748 0.00539104
   vertex -0.00405834 -0.00503424 0.00352128
  endloop
 endfacet
 facet normal -0.0568039 0.993538 -0.0982608
  outer loop
   vertex 0.00629325 -0.00425748 0.00539104
   vertex 0.00602849 -0.00489882 -0.000940592
   vertex -0.00405834 -0.00503424 0.00352128
  endloop
 endfacet
 facet normal -0.0608449 0.992349 -0.107432
  outer loop
   vertex 0.00602849 -0.00489882 -0.000940592
   vertex 0.00122965 -0.00573651 -0.00596047
   vertex -0.00405834 -0.00503424 0.00352128
  endloop
 endfacet
 facet normal -0.0199906 0.996186 -0.084932
  outer loop
   vertex -0.00396783 -0.00546893 -0.00159868
   vertex -0.00405834 -0.00503424 0.00352128
   vertex 0.00122965 -0.00573651 -0.00596047
  endloop
 endfacet
 facet normal 0.966194 -0.257417 -0.0143279
  outer loop
   vertex 0.00602849 -0.00489882 -0.000940592
   vertex 0.00629325 -0.00425748 0.00539104
   vertex 0.00461191 -0.0102917 0.000421929
  endloop
 endfacet
 facet normal 0.929798 -0.350809 0.111397
  outer loop
   vertex 0.00410597 -0.00994813 0.00572681
   vertex 0.00461191 -0.0102917 0.000421929
   vertex 0.00629325 -0.00425748 0.00539104
  endloop
 endfacet
 facet normal 0.377489 -0.0907179 0.92156
  outer loop
   vertex 0.00629325 -0.00425748 0.00539104
   vertex 0.0013379 -0.004 0.0074462
   vertex 0.00410597 -0.00994813 0.00572681
  endloop
 endfacet
 facet normal 0.467903 -0.0374911 0.882984
  outer loop
   vertex 0.00410597 -0.00994813 0.00572681
   vertex 0.0013379 -0.004 0.0074462
   vertex 0.00122635 -0.00919095 0.0072849
  endloop
 endfacet
 facet normal 0.727232 -0.0831207 -0.68134
  outer loop
   vertex 0.00122965 -0.00573651 -0.00596047
   vertex 0.00602849 -0.00489882 -0.000940592
   vertex 0.00202625 -0.0113366 -0.00442702
  endloop
 endfacet
 facet normal 0.861823 -0.324806 -0.389566
  outer loop
   vertex 0.00461191 -0.0102917 0.000421929
   vertex 0.00202625 -0.0113366 -0.00442702
   vertex 0.00602849 -0.00489882 -0.000940592
  endloop
 endfacet
 facet normal -0.571906 -0.291333 -0.766843
  outer loop
   vertex 0.00202625 -0.0113366 -0.00442702
   vertex -0.00319136 -0.010945 -0.000684538
   vertex 0.00122965 -0.00573651 -0.00596047
  endloop
 endfacet
 facet normal -0.634392 -0.213953 -0.742812
  outer loop
   vertex -0.00396783 -0.00546893 -0.00159868
   vertex 0.00122965 -0.00573651 -0.00596047
   vertex -0.00319136 -0.010945 -0.000684538
  endloop
 endfacet
 facet normal -0.989953 -0.141288 -0.00550423
  outer loop
   vertex -0.00396783 -0.00546893 -0.00159868
   vertex -0.00319136 -0.010945 -0.000684538
   vertex -0.00405834 -0.00503424 0.00352128
  endloop
 endfacet
 facet normal -0.988234 -0.152577 0.0107149
  outer loop
   vertex -0.00323437 -0.0103639 0.0036233
   vertex -0.00405834 -0.00503424 0.00352128
   vertex -0.00319136 -0.010945 -0.000684538
  endloop
 endfacet
 facet normal -0.586587 -0.0125572 0.809789
  outer loop
   vertex 0.0013379 -0.004 0.0074462
   vertex -0.00405834 -0.00503424 0.00352128
   vertex 0.00122635 -0.00919095 0.0072849
  endloop
 endfacet
 facet normal -0.61961 -0.0808471 0.780735
  outer loop
   vertex -0.00323437 -0.0103639 0.0036233
   vertex 0.00122635 -0.00919095 0.0072849
   vertex -0.00405834 -0.00503424 0.00352128
  endloop
 endfacet
 facet normal -0.153214 -0.8673 0.473621
  outer loop
   vertex 0.0045297 -0.0368311 0.00770716
   vertex 0.00207914 -0.0360633 0.00832042
   vertex 0.00153558 -0.038075 0.00446082
  endloop
 endfacet
 facet normal -0.552788 -0.704523 0.445053
  outer loop
   vertex 0.00113286 -0.0377095 0.00453912
   vertex 0.00153558 -0.038075 0.00446082
   vertex 0.00207914 -0.0360633 0.00832042
  endloop
 endfacet
 facet normal -0.574007 -0.39073 -0.719615
  outer loop
   vertex 0.0036507 -0.0347797 0.000984424
   vertex 0.00153558 -0.038075 0.00446082
   vertex -0.00122585 -0.0329451 0.00387815
  endloop
 endfacet
 facet normal -0.471683 -0.346032 -0.811034
  outer loop
   vertex 0.00113286 -0.0377095 0.00453912
   vertex -0.00122585 -0.0329451 0.00387815
   vertex 0.00153558 -0.038075 0.00446082
  endloop
 endfacet
 facet normal 0.922387 -0.318922 -0.217922
  outer loop
   vertex 0.00563746 -0.0322576 0.00570264
   vertex 0.0045297 -0.0368311 0.00770716
   vertex 0.0036507 -0.0347797 0.000984424
  endloop
 endfacet
 facet normal 0.625669 -0.719524 -0.30137
  outer loop
   vertex 0.00153558 -0.038075 0.00446082
   vertex 0.0036507 -0.0347797 0.000984424
   vertex 0.0045297 -0.0368311 0.00770716
  endloop
 endfacet
 facet normal 0.972889 -0.205501 0.106096
  outer loop
   vertex 0.00461191 -0.0102917 0.000421929
   vertex 0.00410597 -0.00994813 0.00572681
   vertex 0.0033013 -0.0156884 0.00198695
  endloop
 endfacet
 facet normal 0.992971 -0.10874 -0.0467425
  outer loop
   vertex 0.00348674 -0.0158488 0.00629957
   vertex 0.0033013 -0.0156884 0.00198695
   vertex 0.00410597 -0.00994813 0.00572681
  endloop
 endfacet
 facet normal 0.477 0.00553859 0.878886
  outer loop
   vertex 0.00122635 -0.00919095 0.0072849
   vertex 0.00125672 -0.0146143 0.0073026
   vertex 0.00410597 -0.00994813 0.00572681
  endloop
 endfacet
 facet normal 0.429313 0.0425159 0.902155
  outer loop
   vertex 0.00348674 -0.0158488 0.00629957
   vertex 0.00410597 -0.00994813 0.00572681
   vertex 0.00125672 -0.0146143 0.0073026
  endloop
 endfacet
 facet normal 0.878913 -0.226224 -0.419923
  outer loop
   vertex 0.00202625 -0.0113366 -0.00442702
   vertex 0.00461191 -0.0102917 0.000421929
   vertex 0.00168884 -0.0169835 -0.00209109
  endloop
 endfacet
 facet normal 0.915889 -0.299833 -0.266923
  outer loop
   vertex 0.0033013 -0.0156884 0.00198695
   vertex 0.00168884 -0.0169835 -0.00209109
   vertex 0.00461191 -0.0102917 0.000421929
  endloop
 endfacet
 facet normal -0.634312 -0.00102861 0.773076
  outer loop
   vertex 0.00122635 -0.00919095 0.0072849
   vertex -0.00323437 -0.0103639 0.0036233
   vertex 0.00125672 -0.0146143 0.0073026
  endloop
 endfacet
 facet normal -0.530923 0.159466 0.832281
  outer loop
   vertex -0.00219292 -0.0153923 0.00525111
   vertex 0.00125672 -0.0146143 0.0073026
   vertex -0.00323437 -0.0103639 0.0036233
  endloop
 endfacet
 facet normal -0.57285 -0.283857 -0.76894
  outer loop
   vertex 0.00202625 -0.0113366 -0.00442702
   vertex 0.00168884 -0.0169835 -0.00209109
   vertex -0.00319136 -0.010945 -0.000684538
  endloop
 endfacet
 facet normal -0.489751 -0.198033 -0.849074
  outer loop
   vertex -0.00235219 -0.016419 0.000108134
   vertex -0.00319136 -0.010945 -0.000684538
   vertex 0.00168884 -0.0169835 -0.00209109
  endloop
 endfacet
 facet normal -0.981107 -0.181628 0.0666416
  outer loop
   vertex -0.00219292 -0.0153923 0.00525111
   vertex -0.00323437 -0.0103639 0.0036233
   vertex -0.00235219 -0.016419 0.000108134
  endloop
 endfacet
 facet normal -0.988623 -0.150056 0.010371
  outer loop
   vertex -0.00319136 -0.010945 -0.000684538
   vertex -0.00235219 -0.016419 0.000108134
   vertex -0.00323437 -0.0103639 0.0036233
  endloop
 endfacet
 facet normal 0.794504 -0.394701 -0.461491
  outer loop
   vertex 0.00563746 -0.0322576 0.00570264
   vertex 0.00805834 -0.0322837 0.00989282
   vertex 0.0045297 -0.0368311 0.00770716
  endloop
 endfacet
 facet normal 0.658106 -0.672964 0.337661
  outer loop
   vertex 0.0045297 -0.0368311 0.00770716
   vertex 0.00805834 -0.0322837 0.00989282
   vertex 0.00414431 -0.0356521 0.010808
  endloop
 endfacet
 facet normal -0.207748 -0.922624 0.32497
  outer loop
   vertex 0.0045297 -0.0368311 0.00770716
   vertex 0.00414431 -0.0356521 0.010808
   vertex 0.00207914 -0.0360633 0.00832042
  endloop
 endfacet
 facet normal 0.0125723 -0.988163 0.152893
  outer loop
   vertex 0.00267025 -0.0357416 0.0103508
   vertex 0.00207914 -0.0360633 0.00832042
   vertex 0.00414431 -0.0356521 0.010808
  endloop
 endfacet
 facet normal -0.707492 -0.124205 0.695721
  outer loop
   vertex -8.30604e-006 -0.0313891 0.00703213
   vertex 0.00207914 -0.0360633 0.00832042
   vertex 0.00242345 -0.030406 0.00968053
  endloop
 endfacet
 facet normal -0.959707 -0.00911369 0.280854
  outer loop
   vertex 0.00267025 -0.0357416 0.0103508
   vertex 0.00242345 -0.030406 0.00968053
   vertex 0.00207914 -0.0360633 0.00832042
  endloop
 endfacet
 facet normal -0.85082 -0.36937 0.373726
  outer loop
   vertex 0.00113286 -0.0377095 0.00453912
   vertex 0.00207914 -0.0360633 0.00832042
   vertex -0.00122585 -0.0329451 0.00387815
  endloop
 endfacet
 facet normal -0.852926 -0.255425 0.455275
  outer loop
   vertex -8.30604e-006 -0.0313891 0.00703213
   vertex -0.00122585 -0.0329451 0.00387815
   vertex 0.00207914 -0.0360633 0.00832042
  endloop
 endfacet
 facet normal -0.951425 -0.172981 0.254691
  outer loop
   vertex -0.00102592 -0.0260908 0.00682922
   vertex -0.00188431 -0.0274072 0.00272855
   vertex -8.30604e-006 -0.0313891 0.00703213
  endloop
 endfacet
 facet normal -0.926898 -0.0325912 0.373895
  outer loop
   vertex -0.00188431 -0.0274072 0.00272855
   vertex -0.00122585 -0.0329451 0.00387815
   vertex -8.30604e-006 -0.0313891 0.00703213
  endloop
 endfacet
 facet normal -0.519395 -0.0337982 -0.853866
  outer loop
   vertex 0.0036507 -0.0347797 0.000984424
   vertex -0.00122585 -0.0329451 0.00387815
   vertex 0.00253987 -0.0287783 0.00142258
  endloop
 endfacet
 facet normal -0.340352 -0.229746 -0.911799
  outer loop
   vertex -0.00188431 -0.0274072 0.00272855
   vertex 0.00253987 -0.0287783 0.00142258
   vertex -0.00122585 -0.0329451 0.00387815
  endloop
 endfacet
 facet normal 0.862812 0.193792 -0.466905
  outer loop
   vertex 0.0036507 -0.0347797 0.000984424
   vertex 0.00253987 -0.0287783 0.00142258
   vertex 0.00563746 -0.0322576 0.00570264
  endloop
 endfacet
 facet normal 0.839046 0.0861659 -0.537194
  outer loop
   vertex 0.00422339 -0.0267783 0.00437287
   vertex 0.00563746 -0.0322576 0.00570264
   vertex 0.00253987 -0.0287783 0.00142258
  endloop
 endfacet
 facet normal 0.965313 0.212207 -0.152114
  outer loop
   vertex 0.00422339 -0.0267783 0.00437287
   vertex 0.00516107 -0.0276361 0.00912668
   vertex 0.00563746 -0.0322576 0.00570264
  endloop
 endfacet
 facet normal 0.78823 0.416732 -0.4528
  outer loop
   vertex 0.00805834 -0.0322837 0.00989282
   vertex 0.00563746 -0.0322576 0.00570264
   vertex 0.00516107 -0.0276361 0.00912668
  endloop
 endfacet
 facet normal 0.995591 0.0111667 -0.0931349
  outer loop
   vertex 0.00369965 -0.0221455 0.00782053
   vertex 0.00324765 -0.0213313 0.00308637
   vertex 0.00348674 -0.0158488 0.00629957
  endloop
 endfacet
 facet normal 0.998886 -0.0179964 -0.0436209
  outer loop
   vertex 0.0033013 -0.0156884 0.00198695
   vertex 0.00348674 -0.0158488 0.00629957
   vertex 0.00324765 -0.0213313 0.00308637
  endloop
 endfacet
 facet normal 0.435748 0.0573184 0.898242
  outer loop
   vertex 0.00125672 -0.0146143 0.0073026
   vertex 0.00101807 -0.0199397 0.00775819
   vertex 0.00348674 -0.0158488 0.00629957
  endloop
 endfacet
 facet normal 0.172548 0.236786 0.956117
  outer loop
   vertex 0.00101807 -0.0199397 0.00775819
   vertex 0.00369965 -0.0221455 0.00782053
   vertex 0.00348674 -0.0158488 0.00629957
  endloop
 endfacet
 facet normal 0.93528 -0.0762272 -0.345602
  outer loop
   vertex 0.0033013 -0.0156884 0.00198695
   vertex 0.00324765 -0.0213313 0.00308637
   vertex 0.00168884 -0.0169835 -0.00209109
  endloop
 endfacet
 facet normal 0.928882 -0.0936817 -0.358333
  outer loop
   vertex 0.00168884 -0.0169835 -0.00209109
   vertex 0.00324765 -0.0213313 0.00308637
   vertex 0.00167761 -0.0229924 -0.000549269
  endloop
 endfacet
 facet normal -0.524672 0.0958777 0.845888
  outer loop
   vertex 0.00125672 -0.0146143 0.0073026
   vertex -0.00219292 -0.0153923 0.00525111
   vertex 0.00101807 -0.0199397 0.00775819
  endloop
 endfacet
 facet normal -0.479365 0.139235 0.866501
  outer loop
   vertex 0.00101807 -0.0199397 0.00775819
   vertex -0.00219292 -0.0153923 0.00525111
   vertex -0.00151962 -0.0206323 0.00646559
  endloop
 endfacet
 facet normal -0.528431 -0.210076 -0.822574
  outer loop
   vertex 0.00167761 -0.0229924 -0.000549269
   vertex -0.00205979 -0.0218781 0.00156709
   vertex 0.00168884 -0.0169835 -0.00209109
  endloop
 endfacet
 facet normal -0.48956 -0.249513 -0.835508
  outer loop
   vertex -0.00235219 -0.016419 0.000108134
   vertex 0.00168884 -0.0169835 -0.00209109
   vertex -0.00205979 -0.0218781 0.00156709
  endloop
 endfacet
 facet normal -0.998298 -0.0429192 0.0394846
  outer loop
   vertex -0.00235219 -0.016419 0.000108134
   vertex -0.00205979 -0.0218781 0.00156709
   vertex -0.00219292 -0.0153923 0.00525111
  endloop
 endfacet
 facet normal -0.986445 -0.095887 0.133163
  outer loop
   vertex -0.00151962 -0.0206323 0.00646559
   vertex -0.00219292 -0.0153923 0.00525111
   vertex -0.00205979 -0.0218781 0.00156709
  endloop
 endfacet
 facet normal 0.0371337 0.221596 0.974431
  outer loop
   vertex 0.00805834 -0.0322837 0.00989282
   vertex 0.00242345 -0.030406 0.00968053
   vertex 0.00414431 -0.0356521 0.010808
  endloop
 endfacet
 facet normal -0.300439 0.105181 0.947984
  outer loop
   vertex 0.00267025 -0.0357416 0.0103508
   vertex 0.00414431 -0.0356521 0.010808
   vertex 0.00242345 -0.030406 0.00968053
  endloop
 endfacet
 facet normal 0.0218685 0.175201 0.98429
  outer loop
   vertex 0.0017707 -0.025153 0.00876001
   vertex 0.00242345 -0.030406 0.00968053
   vertex 0.00516107 -0.0276361 0.00912668
  endloop
 endfacet
 facet normal 0.0214408 0.175611 0.984226
  outer loop
   vertex 0.00805834 -0.0322837 0.00989282
   vertex 0.00516107 -0.0276361 0.00912668
   vertex 0.00242345 -0.030406 0.00968053
  endloop
 endfacet
 facet normal -0.71143 -0.110058 0.694086
  outer loop
   vertex -8.30604e-006 -0.0313891 0.00703213
   vertex 0.00242345 -0.030406 0.00968053
   vertex -0.00102592 -0.0260908 0.00682922
  endloop
 endfacet
 facet normal -0.582462 0.0695428 0.809877
  outer loop
   vertex 0.0017707 -0.025153 0.00876001
   vertex -0.00102592 -0.0260908 0.00682922
   vertex 0.00242345 -0.030406 0.00968053
  endloop
 endfacet
 facet normal -0.568903 0.00333109 0.822398
  outer loop
   vertex -0.00102592 -0.0260908 0.00682922
   vertex 0.0017707 -0.025153 0.00876001
   vertex -0.00151962 -0.0206323 0.00646559
  endloop
 endfacet
 facet normal -0.47312 0.0999033 0.875315
  outer loop
   vertex 0.00101807 -0.0199397 0.00775819
   vertex -0.00151962 -0.0206323 0.00646559
   vertex 0.0017707 -0.025153 0.00876001
  endloop
 endfacet
 facet normal -0.988283 -0.0807575 0.129518
  outer loop
   vertex -0.00151962 -0.0206323 0.00646559
   vertex -0.00205979 -0.0218781 0.00156709
   vertex -0.00102592 -0.0260908 0.00682922
  endloop
 endfacet
 facet normal -0.979441 0.0112251 0.20142
  outer loop
   vertex -0.00188431 -0.0274072 0.00272855
   vertex -0.00102592 -0.0260908 0.00682922
   vertex -0.00205979 -0.0218781 0.00156709
  endloop
 endfacet
 facet normal -0.363099 -0.348594 -0.864084
  outer loop
   vertex 0.00253987 -0.0287783 0.00142258
   vertex -0.00188431 -0.0274072 0.00272855
   vertex 0.00167761 -0.0229924 -0.000549269
  endloop
 endfacet
 facet normal -0.526154 -0.190779 -0.828713
  outer loop
   vertex -0.00205979 -0.0218781 0.00156709
   vertex 0.00167761 -0.0229924 -0.000549269
   vertex -0.00188431 -0.0274072 0.00272855
  endloop
 endfacet
 facet normal 0.905422 0.0630395 -0.419806
  outer loop
   vertex 0.00324765 -0.0213313 0.00308637
   vertex 0.00422339 -0.0267783 0.00437287
   vertex 0.00167761 -0.0229924 -0.000549269
  endloop
 endfacet
 facet normal 0.87738 -0.0323868 -0.478701
  outer loop
   vertex 0.00253987 -0.0287783 0.00142258
   vertex 0.00167761 -0.0229924 -0.000549269
   vertex 0.00422339 -0.0267783 0.00437287
  endloop
 endfacet
 facet normal 0.963686 0.220758 -0.15025
  outer loop
   vertex 0.00516107 -0.0276361 0.00912668
   vertex 0.00422339 -0.0267783 0.00437287
   vertex 0.00369965 -0.0221455 0.00782053
  endloop
 endfacet
 facet normal 0.984764 0.160727 -0.066381
  outer loop
   vertex 0.00324765 -0.0213313 0.00308637
   vertex 0.00369965 -0.0221455 0.00782053
   vertex 0.00422339 -0.0267783 0.00437287
  endloop
 endfacet
 facet normal 0.079196 0.250603 0.964845
  outer loop
   vertex 0.00516107 -0.0276361 0.00912668
   vertex 0.00369965 -0.0221455 0.00782053
   vertex 0.0017707 -0.025153 0.00876001
  endloop
 endfacet
 facet normal 0.147951 0.207193 0.967048
  outer loop
   vertex 0.00101807 -0.0199397 0.00775819
   vertex 0.0017707 -0.025153 0.00876001
   vertex 0.00369965 -0.0221455 0.00782053
  endloop
 endfacet
endsolid
