solid OBJECT
  facet normal -0.091543370551505437 -0.099119027016363617 0.99085580676070084
    outer loop
      vertex 0.00081650022184476256 -0.0313970048353076 0.0098390015773475135
      vertex 0.0061485000769607723 -0.0052420024201273964 0.012947998475283381
      vertex -0.0024434998049400747 -0.0052340004965663002 0.012154999654740092
    endloop
  endfacet
  facet normal -6.8962320269904965e-05 0.99994127220132401 0.010837314824083987
    outer loop
      vertex 0.0061485000769607723 -0.0052420024201273964 0.012947998475283381
      vertex 0.0054545003804378211 -0.0051859964057803199 0.0077759991399943794
      vertex -0.0024434998049400747 -0.0052340004965663002 0.012154999654740092
    endloop
  endfacet
  facet normal -0.0048957880180257344 0.9999857426007106 0.0021321010735470079
    outer loop
      vertex 0.0054545003804378211 -0.0051859964057803199 0.0077759991399943794
      vertex 0.0011545002344064415 -0.005198997668921952 0.0040000001899898018
      vertex -0.0024434998049400747 -0.0052340004965663002 0.012154999654740092
    endloop
  endfacet
  facet normal 0.036505895996977178 0.99912530118828724 0.02039490335529992
    outer loop
      vertex -0.002753499720711261 -0.0051370013877749489 0.0079579981975257362
      vertex -0.0024434998049400747 -0.0052340004965663002 0.012154999654740092
      vertex 0.0011545002344064415 -0.005198997668921952 0.0040000001899898018
    endloop
  endfacet
  facet normal 0.94318605635277597 -0.30583207430944304 -0.12987226580483371
    outer loop
      vertex 0.0054545003804378211 -0.0051859964057803199 0.0077759991399943794
      vertex 0.0061485000769607723 -0.0052420024201273964 0.012947998475283381
      vertex 0.0041765004280023277 -0.0094590012356638963 0.0085569988004863227
    endloop
  endfacet
  facet normal 0.91042135727765161 -0.41351553031868638 -0.011741311595140226
    outer loop
      vertex 0.00415750005049631 -0.0096250001713633591 0.012930001597851511
      vertex 0.0041765004280023277 -0.0094590012356638963 0.0085569988004863227
      vertex 0.0061485000769607723 -0.0052420024201273964 0.012947998475283381
    endloop
  endfacet
  facet normal 0.44986419432014396 -0.20791955473589835 0.86855723209648861
    outer loop
      vertex 0.0061485000769607723 -0.0052420024201273964 0.012947998475283381
      vertex 0.0022715003578923643 -0.0050000001117587135 0.015013999771326777
      vertex 0.00415750005049631 -0.0096250001713633591 0.012930001597851511
    endloop
  endfacet
  facet normal 0.53981570879626462 -0.15286772852932035 0.82778648099076391
    outer loop
      vertex 0.00415750005049631 -0.0096250001713633591 0.012930001597851511
      vertex 0.0022715003578923643 -0.0050000001117587135 0.015013999771326777
      vertex 0.0019555002800188959 -0.0090400029346346909 0.01447400031611323
    endloop
  endfacet
  facet normal 0.65925395373952655 -0.044785290735397505 -0.75058543964864377
    outer loop
      vertex 0.0011545002344064415 -0.005198997668921952 0.0040000001899898018
      vertex 0.0054545003804378211 -0.0051859964057803199 0.0077759991399943794
      vertex 0.0016825002967379987 -0.0097449992224574143 0.0047349999658763374
    endloop
  endfacet
  facet normal 0.80146706544915824 -0.33077360611027268 -0.49823625370011043
    outer loop
      vertex 0.0041765004280023277 -0.0094590012356638963 0.0085569988004863227
      vertex 0.0016825002967379987 -0.0097449992224574143 0.0047349999658763374
      vertex 0.0054545003804378211 -0.0051859964057803199 0.0077759991399943794
    endloop
  endfacet
  facet normal -0.65150063229483146 -0.1942393458244209 -0.73336075887187724
    outer loop
      vertex 0.0016825002967379987 -0.0097449992224574143 0.0047349999658763374
      vertex -0.0022824997431598604 -0.0095320020243525559 0.0082009988836944069
      vertex 0.0011545002344064415 -0.005198997668921952 0.0040000001899898018
    endloop
  endfacet
  facet normal -0.70781082105158244 -0.11439572058516984 -0.69707780104812167
    outer loop
      vertex -0.002753499720711261 -0.0051370013877749489 0.0079579981975257362
      vertex 0.0011545002344064415 -0.005198997668921952 0.0040000001899898018
      vertex -0.0022824997431598604 -0.0095320020243525559 0.0082009988836944069
    endloop
  endfacet
  facet normal -0.99221080363149494 -0.10241128224919409 0.070920028377171734
    outer loop
      vertex -0.002753499720711261 -0.0051370013877749489 0.0079579981975257362
      vertex -0.0022824997431598604 -0.0095320020243525559 0.0082009988836944069
      vertex -0.0024434998049400747 -0.0052340004965663002 0.012154999654740092
    endloop
  endfacet
  facet normal -0.98956354382235012 -0.11587223977156187 0.085659890194146035
    outer loop
      vertex -0.0019854997517541051 -0.009446998350322252 0.011746998410671946
      vertex -0.0024434998049400747 -0.0052340004965663002 0.012154999654740092
      vertex -0.0022824997431598604 -0.0095320020243525559 0.0082009988836944069
    endloop
  endfacet
  facet normal -0.51438399353685504 -0.073963053040828522 0.85436442691509373
    outer loop
      vertex 0.0022715003578923643 -0.0050000001117587135 0.015013999771326777
      vertex -0.0024434998049400747 -0.0052340004965663002 0.012154999654740092
      vertex 0.0019555002800188959 -0.0090400029346346909 0.01447400031611323
    endloop
  endfacet
  facet normal -0.55364005702805008 -0.13969110522558834 0.82095620003434489
    outer loop
      vertex -0.0019854997517541051 -0.009446998350322252 0.011746998410671946
      vertex 0.0019555002800188959 -0.0090400029346346909 0.01447400031611323
      vertex -0.0024434998049400747 -0.0052340004965663002 0.012154999654740092
    endloop
  endfacet
  facet normal -0.1628539970822673 -0.91036775423247318 0.3804065295023894
    outer loop
      vertex 0.0035365002113394439 -0.030836005918681627 0.012345999013632532
      vertex 0.001617500267457217 -0.030180995576083666 0.013091999571770426
      vertex 0.00081650022184476256 -0.0313970048353076 0.0098390015773475135
    endloop
  endfacet
  facet normal -0.54290339472208249 -0.73399290632707803 0.40805675764624683
    outer loop
      vertex 0.0005095002125017345 -0.03110099326819182 0.0099630015902221168
      vertex 0.00081650022184476256 -0.0313970048353076 0.0098390015773475135
      vertex 0.001617500267457217 -0.030180995576083666 0.013091999571770426
    endloop
  endfacet
  facet normal -0.65391928325877557 -0.30001467155178152 -0.69453636898005988
    outer loop
      vertex 0.0024265001411549747 -0.02861400436609984 0.0071209999732673133
      vertex 0.00081650022184476256 -0.0313970048353076 0.0098390015773475135
      vertex -0.0012614997540367767 -0.027214993946254259 0.0099890003912150825
    endloop
  endfacet
  facet normal -0.56003237567375019 -0.24994386552700851 -0.78986821830140264
    outer loop
      vertex 0.0005095002125017345 -0.03110099326819182 0.0099630015902221168
      vertex -0.0012614997540367767 -0.027214993946254259 0.0099890003912150825
      vertex 0.00081650022184476256 -0.0313970048353076 0.0098390015773475135
    endloop
  endfacet
  facet normal 0.76945166726554015 -0.61466525003129202 -0.17358214812085221
    outer loop
      vertex 0.0024265001411549747 -0.02861400436609984 0.0071209999732673133
      vertex 0.0044835002045147121 -0.027135004512965685 0.011001999955624338
      vertex 0.00081650022184476256 -0.0313970048353076 0.0098390015773475135
    endloop
  endfacet
  facet normal 0.66450960582838603 -0.39939291040098701 -0.63159503392857086
    outer loop
      vertex 0.0035365002113394439 -0.030836005918681627 0.012345999013632532
      vertex 0.00081650022184476256 -0.0313970048353076 0.0098390015773475135
      vertex 0.0044835002045147121 -0.027135004512965685 0.011001999955624338
    endloop
  endfacet
  facet normal 0.96407077089799154 -0.26558016882263696 -0.0058925909659577501
    outer loop
      vertex 0.0041765004280023277 -0.0094590012356638963 0.0085569988004863227
      vertex 0.00415750005049631 -0.0096250001713633591 0.012930001597851511
      vertex 0.0029985003056935966 -0.013755996935069566 0.0094939987175166572
    endloop
  endfacet
  facet normal 0.97734562511714984 -0.15005989779669532 -0.14925667870354442
    outer loop
      vertex 0.0034515002625994384 -0.014260997287929063 0.012967999558895823
      vertex 0.0029985003056935966 -0.013755996935069566 0.0094939987175166572
      vertex 0.00415750005049631 -0.0096250001713633591 0.012930001597851511
    endloop
  endfacet
  facet normal 0.55134734118767292 -0.10804503944545768 0.82724988897945073
    outer loop
      vertex 0.0019555002800188959 -0.0090400029346346909 0.01447400031611323
      vertex 0.0017585001769475639 -0.013284002654254442 0.014050999190658327
      vertex 0.00415750005049631 -0.0096250001713633591 0.012930001597851511
    endloop
  endfacet
  facet normal 0.50839320167051349 -0.070387012481372038 0.85824356739165364
    outer loop
      vertex 0.0034515002625994384 -0.014260997287929063 0.012967999558895823
      vertex 0.00415750005049631 -0.0096250001713633591 0.012930001597851511
      vertex 0.0017585001769475639 -0.013284002654254442 0.014050999190658327
    endloop
  endfacet
  facet normal 0.82330183002256896 -0.22696134050042741 -0.52025248351136011
    outer loop
      vertex 0.0016825002967379987 -0.0097449992224574143 0.0047349999658763374
      vertex 0.0041765004280023277 -0.0094590012356638963 0.0085569988004863227
      vertex 0.0013415002613328397 -0.014346999339759355 0.0062029990367591346
    endloop
  endfacet
  facet normal 0.86789255522816955 -0.32065899407494958 -0.37939467853194797
    outer loop
      vertex 0.0029985003056935966 -0.013755996935069566 0.0094939987175166572
      vertex 0.0013415002613328397 -0.014346999339759355 0.0062029990367591346
      vertex 0.0041765004280023277 -0.0094590012356638963 0.0085569988004863227
    endloop
  endfacet
  facet normal -0.56421379432067964 -0.055911871018886304 0.82373336522046336
    outer loop
      vertex 0.0019555002800188959 -0.0090400029346346909 0.01447400031611323
      vertex -0.0019854997517541051 -0.009446998350322252 0.011746998410671946
      vertex 0.0017585001769475639 -0.013284002654254442 0.014050999190658327
    endloop
  endfacet
  facet normal -0.44568605636977432 0.099330602554034392 0.8896613797135462
    outer loop
      vertex 0.0017585001769475639 -0.013284002654254442 0.014050999190658327
      vertex -0.0019854997517541051 -0.009446998350322252 0.011746998410671946
      vertex -0.0012284997501410544 -0.013565001301467424 0.012586000841110941
    endloop
  endfacet
  facet normal -0.65229662098473784 -0.18605280264276849 -0.73477443673597143
    outer loop
      vertex 0.0016825002967379987 -0.0097449992224574143 0.0047349999658763374
      vertex 0.0013415002613328397 -0.014346999339759355 0.0062029990367591346
      vertex -0.0022824997431598604 -0.0095320020243525559 0.0082009988836944069
    endloop
  endfacet
  facet normal -0.57286533113629068 -0.093258430258064379 -0.81432682478714269
    outer loop
      vertex 0.0013415002613328397 -0.014346999339759355 0.0062029990367591346
      vertex -0.0017674997507128865 -0.013918002359569078 0.008340999018400904
      vertex -0.0022824997431598604 -0.0095320020243525559 0.0082009988836944069
    endloop
  endfacet
  facet normal -0.97884328971243029 -0.15203972643487479 0.13692967454337773
    outer loop
      vertex -0.0012284997501410544 -0.013565001301467424 0.012586000841110941
      vertex -0.0019854997517541051 -0.009446998350322252 0.011746998410671946
      vertex -0.0017674997507128865 -0.013918002359569078 0.008340999018400904
    endloop
  endfacet
  facet normal -0.98984213831817114 -0.11349315483033767 0.085626193517916768
    outer loop
      vertex -0.0017674997507128865 -0.013918002359569078 0.008340999018400904
      vertex -0.0019854997517541051 -0.009446998350322252 0.011746998410671946
      vertex -0.0022824997431598604 -0.0095320020243525559 0.0082009988836944069
    endloop
  endfacet
  facet normal 0.72260998519970954 -0.3917272730590744 -0.56954767388812766
    outer loop
      vertex 0.0044835002045147121 -0.027135004512965685 0.011001999955624338
      vertex 0.0067535002599470317 -0.027622004263103014 0.01421699998900294
      vertex 0.0035365002113394439 -0.030836005918681627 0.012345999013632532
    endloop
  endfacet
  facet normal 0.63132933240092415 -0.74898718004874454 0.20110066676377006
    outer loop
      vertex 0.0034925003419630229 -0.030163993351161485 0.014987000729888674
      vertex 0.0035365002113394439 -0.030836005918681627 0.012345999013632532
      vertex 0.0067535002599470317 -0.027622004263103014 0.01421699998900294
    endloop
  endfacet
  facet normal -0.23032175592000328 -0.94397336752127936 0.23636025503553268
    outer loop
      vertex 0.0035365002113394439 -0.030836005918681627 0.012345999013632532
      vertex 0.0034925003419630229 -0.030163993351161485 0.014987000729888674
      vertex 0.001617500267457217 -0.030180995576083666 0.013091999571770426
    endloop
  endfacet
  facet normal -0.038388022144159477 -0.99815987617125146 0.046938484824840566
    outer loop
      vertex 0.0022575002512894571 -0.030129005424678331 0.0147210001014173
      vertex 0.001617500267457217 -0.030180995576083666 0.013091999571770426
      vertex 0.0034925003419630229 -0.030163993351161485 0.014987000729888674
    endloop
  endfacet
  facet normal -0.65048572208282818 -0.17160451376234667 0.73987851450273245
    outer loop
      vertex 1.850019907578826e-05 -0.026322995536029344 0.012581001501530405
      vertex 0.001617500267457217 -0.030180995576083666 0.013091999571770426
      vertex 0.0022275002556852996 -0.025888000838458543 0.014623999129980799
    endloop
  endfacet
  facet normal -0.93076243742201781 0.0017785041836304364 0.36562018818316527
    outer loop
      vertex 0.0022575002512894571 -0.030129005424678331 0.0147210001014173
      vertex 0.0022275002556852996 -0.025888000838458543 0.014623999129980799
      vertex 0.001617500267457217 -0.030180995576083666 0.013091999571770426
    endloop
  endfacet
  facet normal -0.83049000911088955 -0.38120376753383151 0.40616503097264195
    outer loop
      vertex 0.0005095002125017345 -0.03110099326819182 0.0099630015902221168
      vertex 0.001617500267457217 -0.030180995576083666 0.013091999571770426
      vertex -0.0012614997540367767 -0.027214993946254259 0.0099890003912150825
    endloop
  endfacet
  facet normal -0.82144589971321957 -0.274230314063592 0.50002436809911854
    outer loop
      vertex 1.850019907578826e-05 -0.026322995536029344 0.012581001501530405
      vertex -0.0012614997540367767 -0.027214993946254259 0.0099890003912150825
      vertex 0.001617500267457217 -0.030180995576083666 0.013091999571770426
    endloop
  endfacet
  facet normal -0.93278428762765009 -0.16442425876239072 0.32074621725815528
    outer loop
      vertex -0.00060649972874671221 -0.022118007056415086 0.012919000815600153
      vertex -0.0016524997481610626 -0.022756000272929674 0.0095500010065734352
      vertex 1.850019907578826e-05 -0.026322995536029344 0.012581001501530405
    endloop
  endfacet
  facet normal -0.89147021636557755 -0.033687842949334371 0.45182516814640927
    outer loop
      vertex 1.850019907578826e-05 -0.026322995536029344 0.012581001501530405
      vertex -0.0016524997481610626 -0.022756000272929674 0.0095500010065734352
      vertex -0.0012614997540367767 -0.027214993946254259 0.0099890003912150825
    endloop
  endfacet
  facet normal -0.59338905265221653 0.078055242557798124 -0.80112221995257893
    outer loop
      vertex 0.0024265001411549747 -0.02861400436609984 0.0071209999732673133
      vertex -0.0012614997540367767 -0.027214993946254259 0.0099890003912150825
      vertex 0.0018005002639256418 -0.023910005800426012 0.0080429981462657417
    endloop
  endfacet
  facet normal -0.43183630276477253 -0.12579838658791129 -0.89313614502287964
    outer loop
      vertex -0.0016524997481610626 -0.022756000272929674 0.0095500010065734352
      vertex 0.0018005002639256418 -0.023910005800426012 0.0080429981462657417
      vertex -0.0012614997540367767 -0.027214993946254259 0.0099890003912150825
    endloop
  endfacet
  facet normal 0.82775351124514918 0.21198107175288608 -0.51950760325506717
    outer loop
      vertex 0.0024265001411549747 -0.02861400436609984 0.0071209999732673133
      vertex 0.0018005002639256418 -0.023910005800426012 0.0080429981462657417
      vertex 0.0044835002045147121 -0.027135004512965685 0.011001999955624338
    endloop
  endfacet
  facet normal 0.79296440139686197 0.10984144800121533 -0.59928483579873126
    outer loop
      vertex 0.0034635003539733589 -0.02267399918287993 0.010469998698681589
      vertex 0.0044835002045147121 -0.027135004512965685 0.011001999955624338
      vertex 0.0018005002639256418 -0.023910005800426012 0.0080429981462657417
    endloop
  endfacet
  facet normal 0.95698571140356681 0.19297563387455868 -0.21665353193548756
    outer loop
      vertex 0.0034635003539733589 -0.02267399918287993 0.010469998698681589
      vertex 0.0045315001043491066 -0.023794998638331896 0.0141890007071197
      vertex 0.0044835002045147121 -0.027135004512965685 0.011001999955624338
    endloop
  endfacet
  facet normal 0.76365083838235348 0.43992651932647409 -0.47254846802335776
    outer loop
      vertex 0.0067535002599470317 -0.027622004263103014 0.01421699998900294
      vertex 0.0044835002045147121 -0.027135004512965685 0.011001999955624338
      vertex 0.0045315001043491066 -0.023794998638331896 0.0141890007071197
    endloop
  endfacet
  facet normal 0.98292400573022187 -0.021270495998400342 -0.18277845868492501
    outer loop
      vertex 0.0034745002049021423 -0.019325000457465654 0.013680999632924792
      vertex 0.0028015004354529083 -0.018260997943580156 0.0099380011670291389
      vertex 0.0034515002625994384 -0.014260997287929063 0.012967999558895823
    endloop
  endfacet
  facet normal 0.98891489558251755 -0.056766885501544295 -0.13720368072858999
    outer loop
      vertex 0.0034515002625994384 -0.014260997287929063 0.012967999558895823
      vertex 0.0028015004354529083 -0.018260997943580156 0.0099380011670291389
      vertex 0.0029985003056935966 -0.013755996935069566 0.0094939987175166572
    endloop
  endfacet
  facet normal 0.51534506527743051 -0.054985386191400802 0.85521697305396327
    outer loop
      vertex 0.0017585001769475639 -0.013284002654254442 0.014050999190658327
      vertex 0.0013775003026239574 -0.017477003149688249 0.014011000748723742
      vertex 0.0034515002625994384 -0.014260997287929063 0.012967999558895823
    endloop
  endfacet
  facet normal 0.2694232471122886 0.13546674229308997 0.95344631503193111
    outer loop
      vertex 0.0034515002625994384 -0.014260997287929063 0.012967999558895823
      vertex 0.0013775003026239574 -0.017477003149688249 0.014011000748723742
      vertex 0.0034745002049021423 -0.019325000457465654 0.013680999632924792
    endloop
  endfacet
  facet normal 0.89600401754097625 -0.082189439852760435 -0.43637334534446481
    outer loop
      vertex 0.0029985003056935966 -0.013755996935069566 0.0094939987175166572
      vertex 0.0028015004354529083 -0.018260997943580156 0.0099380011670291389
      vertex 0.0013415002613328397 -0.014346999339759355 0.0062029990367591346
    endloop
  endfacet
  facet normal 0.88752136877397403 -0.098472629449581656 -0.45012105173925959
    outer loop
      vertex 0.001195500313770026 -0.019178000502288347 0.0069719995371997322
      vertex 0.0013415002613328397 -0.014346999339759355 0.0062029990367591346
      vertex 0.0028015004354529083 -0.018260997943580156 0.0099380011670291389
    endloop
  endfacet
  facet normal -0.44252550068961299 0.031661261118495043 0.8961968231274835
    outer loop
      vertex 0.0017585001769475639 -0.013284002654254442 0.014050999190658327
      vertex -0.0012284997501410544 -0.013565001301467424 0.012586000841110941
      vertex 0.0013775003026239574 -0.017477003149688249 0.014011000748723742
    endloop
  endfacet
  facet normal -0.39283891340490346 0.072252300601526376 0.91676452438597411
    outer loop
      vertex -0.00080949976108968258 -0.017795999757945543 0.013098999392241236
      vertex 0.0013775003026239574 -0.017477003149688249 0.014011000748723742
      vertex -0.0012284997501410544 -0.013565001301467424 0.012586000841110941
    endloop
  endfacet
  facet normal -0.60958042732736417 -0.10661722400672984 -0.78552178210695511
    outer loop
      vertex 0.001195500313770026 -0.019178000502288347 0.0069719995371997322
      vertex -0.0016494997544214129 -0.018324998430907732 0.0090639996342360939
      vertex 0.0013415002613328397 -0.014346999339759355 0.0062029990367591346
    endloop
  endfacet
  facet normal -0.57416985561394884 -0.14749593143859874 -0.80534087634573537
    outer loop
      vertex -0.0017674997507128865 -0.013918002359569078 0.008340999018400904
      vertex 0.0013415002613328397 -0.014346999339759355 0.0062029990367591346
      vertex -0.0016494997544214129 -0.018324998430907732 0.0090639996342360939
    endloop
  endfacet
  facet normal -0.99195777348958214 -0.0058175866928703709 0.12643548275172575
    outer loop
      vertex -0.0017674997507128865 -0.013918002359569078 0.008340999018400904
      vertex -0.0016494997544214129 -0.018324998430907732 0.0090639996342360939
      vertex -0.0012284997501410544 -0.013565001301467424 0.012586000841110941
    endloop
  endfacet
  facet normal -0.97466180683952131 -0.070794804484701421 0.21218496164029355
    outer loop
      vertex -0.00080949976108968258 -0.017795999757945543 0.013098999392241236
      vertex -0.0012284997501410544 -0.013565001301467424 0.012586000841110941
      vertex -0.0016494997544214129 -0.018324998430907732 0.0090639996342360939
    endloop
  endfacet
  facet normal 0.13575398323350965 0.12361101495553227 0.98300110529841178
    outer loop
      vertex 0.0067535002599470317 -0.027622004263103014 0.01421699998900294
      vertex 0.0022275002556852996 -0.025888000838458543 0.014623999129980799
      vertex 0.0034925003419630229 -0.030163993351161485 0.014987000729888674
    endloop
  endfacet
  facet normal -0.20994553141272121 0.020872210528903992 0.97749026832366304
    outer loop
      vertex 0.0022575002512894571 -0.030129005424678331 0.0147210001014173
      vertex 0.0034925003419630229 -0.030163993351161485 0.014987000729888674
      vertex 0.0022275002556852996 -0.025888000838458543 0.014623999129980799
    endloop
  endfacet
  facet normal 0.11832158524203913 0.075527157003097048 0.99009880871599909
    outer loop
      vertex 0.0018465001485310495 -0.02167299877852202 0.014347999822348353
      vertex 0.0022275002556852996 -0.025888000838458543 0.014623999129980799
      vertex 0.0045315001043491066 -0.023794998638331896 0.0141890007071197
    endloop
  endfacet
  facet normal 0.11807554392121128 0.075799776673410493 0.99010734760629437
    outer loop
      vertex 0.0067535002599470317 -0.027622004263103014 0.01421699998900294
      vertex 0.0045315001043491066 -0.023794998638331896 0.0141890007071197
      vertex 0.0022275002556852996 -0.025888000838458543 0.014623999129980799
    endloop
  endfacet
  facet normal -0.65379200495872225 -0.15667880167680409 0.74027546721283066
    outer loop
      vertex 1.850019907578826e-05 -0.026322995536029344 0.012581001501530405
      vertex 0.0022275002556852996 -0.025888000838458543 0.014623999129980799
      vertex -0.00060649972874671221 -0.022118007056415086 0.012919000815600153
    endloop
  endfacet
  facet normal -0.50481131860827777 0.0108893609150022 0.86316102462045563
    outer loop
      vertex 0.0018465001485310495 -0.02167299877852202 0.014347999822348353
      vertex -0.00060649972874671221 -0.022118007056415086 0.012919000815600153
      vertex 0.0022275002556852996 -0.025888000838458543 0.014623999129980799
    endloop
  endfacet
  facet normal -0.49442092190389741 -0.059338470083071006 0.86719484428350968
    outer loop
      vertex -0.00060649972874671221 -0.022118007056415086 0.012919000815600153
      vertex 0.0018465001485310495 -0.02167299877852202 0.014347999822348353
      vertex -0.00080949976108968258 -0.017795999757945543 0.013098999392241236
    endloop
  endfacet
  facet normal -0.38849760604919464 0.030541445233112603 0.92094344572135256
    outer loop
      vertex 0.0018465001485310495 -0.02167299877852202 0.014347999822348353
      vertex 0.0013775003026239574 -0.017477003149688249 0.014011000748723742
      vertex -0.00080949976108968258 -0.017795999757945543 0.013098999392241236
    endloop
  endfacet
  facet normal -0.97609736472016118 -0.054607168423926031 0.21036157382725001
    outer loop
      vertex -0.00080949976108968258 -0.017795999757945543 0.013098999392241236
      vertex -0.0016494997544214129 -0.018324998430907732 0.0090639996342360939
      vertex -0.00060649972874671221 -0.022118007056415086 0.012919000815600153
    endloop
  endfacet
  facet normal -0.9562507612556278 0.032535662323598134 0.29073340412686893
    outer loop
      vertex -0.0016524997481610626 -0.022756000272929674 0.0095500010065734352
      vertex -0.00060649972874671221 -0.022118007056415086 0.012919000815600153
      vertex -0.0016494997544214129 -0.018324998430907732 0.0090639996342360939
    endloop
  endfacet
  facet normal -0.456520340061564 -0.25152261090487815 -0.85341991734061806
    outer loop
      vertex 0.0018005002639256418 -0.023910005800426012 0.0080429981462657417
      vertex -0.0016524997481610626 -0.022756000272929674 0.0095500010065734352
      vertex 0.001195500313770026 -0.019178000502288347 0.0069719995371997322
    endloop
  endfacet
  facet normal -0.60685465293431373 -0.086251015121297361 -0.79011910026433296
    outer loop
      vertex -0.0016494997544214129 -0.018324998430907732 0.0090639996342360939
      vertex 0.001195500313770026 -0.019178000502288347 0.0069719995371997322
      vertex -0.0016524997481610626 -0.022756000272929674 0.0095500010065734352
    endloop
  endfacet
  facet normal 0.8678109894166619 0.070892436408812654 -0.49181129420510139
    outer loop
      vertex 0.0028015004354529083 -0.018260997943580156 0.0099380011670291389
      vertex 0.0034635003539733589 -0.02267399918287993 0.010469998698681589
      vertex 0.001195500313770026 -0.019178000502288347 0.0069719995371997322
    endloop
  endfacet
  facet normal 0.82953423371142621 -0.020254368985321305 -0.55808844786270517
    outer loop
      vertex 0.0018005002639256418 -0.023910005800426012 0.0080429981462657417
      vertex 0.001195500313770026 -0.019178000502288347 0.0069719995371997322
      vertex 0.0034635003539733589 -0.02267399918287993 0.010469998698681589
    endloop
  endfacet
  facet normal 0.95584522184681031 0.20173978205151713 -0.21368428161759639
    outer loop
      vertex 0.0045315001043491066 -0.023794998638331896 0.0141890007071197
      vertex 0.0034635003539733589 -0.02267399918287993 0.010469998698681589
      vertex 0.0034745002049021423 -0.019325000457465654 0.013680999632924792
    endloop
  endfacet
  facet normal 0.98160473274344628 0.13044510903914594 -0.13941385219350624
    outer loop
      vertex 0.0028015004354529083 -0.018260997943580156 0.0099380011670291389
      vertex 0.0034745002049021423 -0.019325000457465654 0.013680999632924792
      vertex 0.0034635003539733589 -0.02267399918287993 0.010469998698681589
    endloop
  endfacet
  facet normal 0.17817284832581232 0.15260703334143425 0.97209337488442615
    outer loop
      vertex 0.0045315001043491066 -0.023794998638331896 0.0141890007071197
      vertex 0.0034745002049021423 -0.019325000457465654 0.013680999632924792
      vertex 0.0018465001485310495 -0.02167299877852202 0.014347999822348353
    endloop
  endfacet
  facet normal 0.24399082535414318 0.10470349574035191 0.9641087361510392
    outer loop
      vertex 0.0013775003026239574 -0.017477003149688249 0.014011000748723742
      vertex 0.0018465001485310495 -0.02167299877852202 0.014347999822348353
      vertex 0.0034745002049021423 -0.019325000457465654 0.013680999632924792
    endloop
  endfacet
endsolid OBJECT
