solid ascii
 facet normal -0.132117 0.883203 0.449998
  outer loop
   vertex 0.001313 -0.007319 0.011393
   vertex 0.004594 -0.00421799 0.00627
   vertex -0.002594 -0.00512 0.00593
  endloop
 endfacet
 facet normal -0.12834 0.987257 0.0940857
  outer loop
   vertex 0.00259 -0.004 0.001249
   vertex -0.002594 -0.00512 0.00593
   vertex 0.004594 -0.00421799 0.00627
  endloop
 endfacet
 facet normal 0.865049 -0.104701 0.49064
  outer loop
   vertex 0.004594 -0.00421799 0.00627
   vertex 0.001313 -0.007319 0.011393
   vertex 0.004524 -0.00808599 0.005568
  endloop
 endfacet
 facet normal 0.836209 -0.240889 0.492674
  outer loop
   vertex 0.001218 -0.010281 0.010106
   vertex 0.004524 -0.00808599 0.005568
   vertex 0.001313 -0.007319 0.011393
  endloop
 endfacet
 facet normal -0.833195 -0.19257 0.518366
  outer loop
   vertex -0.002594 -0.00512 0.00593
   vertex -0.002368 -0.009145 0.004798
   vertex 0.001313 -0.007319 0.011393
  endloop
 endfacet
 facet normal -0.83129 -0.198866 0.519046
  outer loop
   vertex 0.001218 -0.010281 0.010106
   vertex 0.001313 -0.007319 0.011393
   vertex -0.002368 -0.009145 0.004798
  endloop
 endfacet
 facet normal 0.91524 0.00739109 -0.402842
  outer loop
   vertex 0.002516 -0.00840799 0.001
   vertex 0.00259 -0.004 0.001249
   vertex 0.004524 -0.00808599 0.005568
  endloop
 endfacet
 facet normal 0.928339 0.0500509 -0.368349
  outer loop
   vertex 0.004594 -0.00421799 0.00627
   vertex 0.004524 -0.00808599 0.005568
   vertex 0.00259 -0.004 0.001249
  endloop
 endfacet
 facet normal -0.675514 0.0528847 -0.735448
  outer loop
   vertex 0.00259 -0.004 0.001249
   vertex 0.002516 -0.00840799 0.001
   vertex -0.002594 -0.00512 0.00593
  endloop
 endfacet
 facet normal -0.620634 0.179798 -0.763208
  outer loop
   vertex -0.002368 -0.009145 0.004798
   vertex -0.002594 -0.00512 0.00593
   vertex 0.002516 -0.00840799 0.001
  endloop
 endfacet
 facet normal 0.835966 -0.216948 0.504077
  outer loop
   vertex 0.004524 -0.00808599 0.005568
   vertex 0.001218 -0.010281 0.010106
   vertex 0.003452 -0.011838 0.005731
  endloop
 endfacet
 facet normal 0.828206 -0.237721 0.507507
  outer loop
   vertex 0.000786001 -0.013447 0.009328
   vertex 0.003452 -0.011838 0.005731
   vertex 0.001218 -0.010281 0.010106
  endloop
 endfacet
 facet normal -0.831813 -0.191491 0.520978
  outer loop
   vertex -0.002368 -0.009145 0.004798
   vertex -0.001371 -0.013046 0.004956
   vertex 0.001218 -0.010281 0.010106
  endloop
 endfacet
 facet normal -0.896228 0.0133325 0.443392
  outer loop
   vertex 0.000786001 -0.013447 0.009328
   vertex 0.001218 -0.010281 0.010106
   vertex -0.001371 -0.013046 0.004956
  endloop
 endfacet
 facet normal 0.856514 -0.379549 -0.349752
  outer loop
   vertex 0.002516 -0.00840799 0.001
   vertex 0.004524 -0.00808599 0.005568
   vertex 0.001433 -0.012354 0.00263
  endloop
 endfacet
 facet normal 0.828675 -0.258336 -0.496548
  outer loop
   vertex 0.003452 -0.011838 0.005731
   vertex 0.001433 -0.012354 0.00263
   vertex 0.004524 -0.00808599 0.005568
  endloop
 endfacet
 facet normal -0.589894 -0.164645 -0.790517
  outer loop
   vertex 0.002516 -0.00840799 0.001
   vertex 0.001433 -0.012354 0.00263
   vertex -0.002368 -0.009145 0.004798
  endloop
 endfacet
 facet normal -0.600021 -0.184876 -0.778329
  outer loop
   vertex -0.001371 -0.013046 0.004956
   vertex -0.002368 -0.009145 0.004798
   vertex 0.001433 -0.012354 0.00263
  endloop
 endfacet
 facet normal 0.813394 -0.0526216 0.579328
  outer loop
   vertex 0.003452 -0.011838 0.005731
   vertex 0.000786001 -0.013447 0.009328
   vertex 0.003284 -0.015778 0.005609
  endloop
 endfacet
 facet normal 0.749328 -0.202754 0.630396
  outer loop
   vertex 0.000803 -0.016313 0.008386
   vertex 0.003284 -0.015778 0.005609
   vertex 0.000786001 -0.013447 0.009328
  endloop
 endfacet
 facet normal -0.846221 -0.00370802 0.532819
  outer loop
   vertex -0.001227 -0.01717 0.005156
   vertex 0.000803 -0.016313 0.008386
   vertex -0.001371 -0.013046 0.004956
  endloop
 endfacet
 facet normal -0.892469 -0.145626 0.426958
  outer loop
   vertex 0.000786001 -0.013447 0.009328
   vertex -0.001371 -0.013046 0.004956
   vertex 0.000803 -0.016313 0.008386
  endloop
 endfacet
 facet normal 0.839319 -0.0189648 -0.543308
  outer loop
   vertex 0.003452 -0.011838 0.005731
   vertex 0.003284 -0.015778 0.005609
   vertex 0.001433 -0.012354 0.00263
  endloop
 endfacet
 facet normal 0.78073 -0.112685 -0.614624
  outer loop
   vertex 0.001161 -0.016693 0.00308
   vertex 0.001433 -0.012354 0.00263
   vertex 0.003284 -0.015778 0.005609
  endloop
 endfacet
 facet normal -0.631966 -0.0406486 -0.773929
  outer loop
   vertex 0.001433 -0.012354 0.00263
   vertex 0.001161 -0.016693 0.00308
   vertex -0.001371 -0.013046 0.004956
  endloop
 endfacet
 facet normal -0.648134 -0.0594499 -0.759202
  outer loop
   vertex -0.001371 -0.013046 0.004956
   vertex 0.001161 -0.016693 0.00308
   vertex -0.001227 -0.01717 0.005156
  endloop
 endfacet
 facet normal 0.734446 0.0874493 0.673009
  outer loop
   vertex 0.003284 -0.015778 0.005609
   vertex 0.000803 -0.016313 0.008386
   vertex 0.003246 -0.019607 0.006148
  endloop
 endfacet
 facet normal 0.850951 0.399141 0.341422
  outer loop
   vertex 0.002029 -0.01931 0.008834
   vertex 0.003246 -0.019607 0.006148
   vertex 0.000803 -0.016313 0.008386
  endloop
 endfacet
 facet normal -0.756904 -0.0295661 0.652857
  outer loop
   vertex -0.000937 -0.021304 0.005305
   vertex 0.002029 -0.01931 0.008834
   vertex -0.001227 -0.01717 0.005156
  endloop
 endfacet
 facet normal -0.791952 -0.240046 0.561418
  outer loop
   vertex 0.000803 -0.016313 0.008386
   vertex -0.001227 -0.01717 0.005156
   vertex 0.002029 -0.01931 0.008834
  endloop
 endfacet
 facet normal 0.867482 0.109866 -0.485185
  outer loop
   vertex 0.001748 -0.021478 0.003046
   vertex 0.001161 -0.016693 0.00308
   vertex 0.003246 -0.019607 0.006148
  endloop
 endfacet
 facet normal 0.779099 -0.0949612 -0.619667
  outer loop
   vertex 0.003284 -0.015778 0.005609
   vertex 0.003246 -0.019607 0.006148
   vertex 0.001161 -0.016693 0.00308
  endloop
 endfacet
 facet normal -0.644835 -0.0736994 -0.76076
  outer loop
   vertex 0.001748 -0.021478 0.003046
   vertex -0.000937 -0.021304 0.005305
   vertex 0.001161 -0.016693 0.00308
  endloop
 endfacet
 facet normal -0.646037 -0.0727061 -0.759835
  outer loop
   vertex -0.001227 -0.01717 0.005156
   vertex 0.001161 -0.016693 0.00308
   vertex -0.000937 -0.021304 0.005305
  endloop
 endfacet
 facet normal 0.913046 0.244815 0.32621
  outer loop
   vertex 0.004161 -0.023326 0.006378
   vertex 0.003246 -0.019607 0.006148
   vertex 0.002951 -0.022319 0.009009
  endloop
 endfacet
 facet normal 0.882912 0.291924 0.367758
  outer loop
   vertex 0.002029 -0.01931 0.008834
   vertex 0.002951 -0.022319 0.009009
   vertex 0.003246 -0.019607 0.006148
  endloop
 endfacet
 facet normal -0.701942 -0.141502 0.698036
  outer loop
   vertex 0.000491001 -0.02491 0.00601
   vertex 0.002951 -0.022319 0.009009
   vertex -0.000937 -0.021304 0.005305
  endloop
 endfacet
 facet normal -0.702691 -0.175208 0.689585
  outer loop
   vertex 0.002029 -0.01931 0.008834
   vertex -0.000937 -0.021304 0.005305
   vertex 0.002951 -0.022319 0.009009
  endloop
 endfacet
 facet normal 0.823551 0.0579315 -0.564277
  outer loop
   vertex 0.002622 -0.02575 0.003883
   vertex 0.001748 -0.021478 0.003046
   vertex 0.004161 -0.023326 0.006378
  endloop
 endfacet
 facet normal 0.841009 0.175263 -0.511846
  outer loop
   vertex 0.001748 -0.021478 0.003046
   vertex 0.003246 -0.019607 0.006148
   vertex 0.004161 -0.023326 0.006378
  endloop
 endfacet
 facet normal -0.610292 -0.377807 -0.696279
  outer loop
   vertex -0.000937 -0.021304 0.005305
   vertex 0.001748 -0.021478 0.003046
   vertex 0.000491001 -0.02491 0.00601
  endloop
 endfacet
 facet normal -0.731397 -0.272147 -0.625295
  outer loop
   vertex 0.002622 -0.02575 0.003883
   vertex 0.000491001 -0.02491 0.00601
   vertex 0.001748 -0.021478 0.003046
  endloop
 endfacet
 facet normal 0.913713 0.238715 0.328852
  outer loop
   vertex 0.002951 -0.022319 0.009009
   vertex 0.00372 -0.025352 0.009074
   vertex 0.004161 -0.023326 0.006378
  endloop
 endfacet
 facet normal 0.958754 -0.279249 -0.0530229
  outer loop
   vertex 0.003106 -0.027045 0.006888
   vertex 0.004161 -0.023326 0.006378
   vertex 0.00372 -0.025352 0.009074
  endloop
 endfacet
 facet normal -0.703777 -0.138352 0.696819
  outer loop
   vertex 0.000491001 -0.02491 0.00601
   vertex 0.002578 -0.027634 0.007577
   vertex 0.002951 -0.022319 0.009009
  endloop
 endfacet
 facet normal -0.660599 -0.151735 0.735245
  outer loop
   vertex 0.00372 -0.025352 0.009074
   vertex 0.002951 -0.022319 0.009009
   vertex 0.002578 -0.027634 0.007577
  endloop
 endfacet
 facet normal 0.914292 -0.297118 -0.275303
  outer loop
   vertex 0.002622 -0.02575 0.003883
   vertex 0.004161 -0.023326 0.006378
   vertex 0.003106 -0.027045 0.006888
  endloop
 endfacet
 facet normal -0.560631 -0.789452 -0.249915
  outer loop
   vertex 0.002622 -0.02575 0.003883
   vertex 0.003106 -0.027045 0.006888
   vertex 0.000491001 -0.02491 0.00601
  endloop
 endfacet
 facet normal -0.262972 -0.624523 -0.735402
  outer loop
   vertex 0.003106 -0.027045 0.006888
   vertex 0.002578 -0.027634 0.007577
   vertex 0.000491001 -0.02491 0.00601
  endloop
 endfacet
 facet normal 0.827568 -0.531896 0.179492
  outer loop
   vertex 0.003106 -0.027045 0.006888
   vertex 0.00372 -0.025352 0.009074
   vertex 0.002578 -0.027634 0.007577
  endloop
 endfacet
endsolid
