solid OBJECT
  facet normal 0.92216484805004251 0.355728280828915 -0.15188608639156703
    outer loop
      vertex 0.0036824999749660494 -0.038691995112225409 0.00067000529170035961
      vertex 0.0055614996142685433 -0.044168000487610694 -0.00074699455499649403
      vertex 0.0033724999427795412 -0.039094997016713019 -0.0021559962034225499
    endloop
  endfacet
  facet normal 0.77955800739682546 0.45571637150440136 0.42966487155264771
    outer loop
      vertex 0.0061544997058808823 -0.044050996569916602 -0.0019469962418079412
      vertex 0.0033724999427795412 -0.039094997016713019 -0.0021559962034225499
      vertex 0.0055614996142685433 -0.044168000487610694 -0.00074699455499649403
    endloop
  endfacet
  facet normal 0.82758561421983368 0.20368615984479971 -0.52308125508763881
    outer loop
      vertex 0.0025804997328668835 -0.033194994000717994 0.0010670057535171473
      vertex 0.0036824999749660494 -0.038691995112225409 0.00067000529170035961
      vertex 0.0010134999081492426 -0.034213995007798072 -0.001808996587991718
    endloop
  endfacet
  facet normal 0.88433040586511935 0.43874344583145403 -0.15957418964975251
    outer loop
      vertex 0.0033724999427795412 -0.039094997016713019 -0.0021559962034225499
      vertex 0.0010134999081492426 -0.034213995007798072 -0.001808996587991718
      vertex 0.0036824999749660494 -0.038691995112225409 0.00067000529170035961
    endloop
  endfacet
  facet normal -0.0077253212225969663 -0.046460832177905906 -0.99889023945844235
    outer loop
      vertex 0.0061544997058808823 -0.044050996569916602 -0.0019469962418079412
      vertex 0.0020974997803568842 -0.041763996152207251 -0.0020219937860965764
      vertex 0.0033724999427795412 -0.039094997016713019 -0.0021559962034225499
    endloop
  endfacet
  facet normal 0.053456269706671812 -0.075528038126666822 -0.99570976829886748
    outer loop
      vertex 0.00081349978223443052 -0.036647995380684729 -0.0024789937734603917
      vertex 0.0033724999427795412 -0.039094997016713019 -0.0021559962034225499
      vertex 0.0020974997803568842 -0.041763996152207251 -0.0020219937860965764
    endloop
  endfacet
  facet normal 0.33089517648587297 0.22507341707891837 -0.91643348864104834
    outer loop
      vertex 0.0033724999427795412 -0.039094997016713019 -0.0021559962034225499
      vertex 0.00081349978223443052 -0.036647995380684729 -0.0024789937734603917
      vertex 0.0010134999081492426 -0.034213995007798072 -0.001808996587991718
    endloop
  endfacet
  facet normal 0.82488425925583786 0.086016156446241235 -0.55871923151271941
    outer loop
      vertex 0.00010249983984977028 -0.031433997122570868 -0.0027259954214096105
      vertex 0.0010134999081492426 -0.034213995007798072 -0.001808996587991718
      vertex 0.00081349978223443052 -0.036647995380684729 -0.0024789937734603917
    endloop
  endfacet
  facet normal 0.83669282077950546 0.15086123649677596 0.5264845781014843
    outer loop
      vertex 0.0055614996142685433 -0.044168000487610694 -0.00074699455499649403
      vertex 0.0036824999749660494 -0.038691995112225409 0.00067000529170035961
      vertex 0.0038224996440112593 -0.043062997428700324 0.0017000033557414973
    endloop
  endfacet
  facet normal 0.58769999365587833 0.2033572833337404 0.78310569706266431
    outer loop
      vertex 0.0038224996440112593 -0.043062997428700324 0.0017000033557414973
      vertex 0.0036824999749660494 -0.038691995112225409 0.00067000529170035961
      vertex 0.0017734998743981125 -0.038107996253296729 0.0019510059654712641
    endloop
  endfacet
  facet normal 0.56782448561606425 0.054515066067334882 0.82134247491927881
    outer loop
      vertex 0.0036824999749660494 -0.038691995112225409 0.00067000529170035961
      vertex 0.0025804997328668835 -0.033194994000717994 0.0010670057535171473
      vertex 0.0017734998743981125 -0.038107996253296729 0.0019510059654712641
    endloop
  endfacet
  facet normal 0.77291171813188864 -0.01281169036217876 0.63438421840748471
    outer loop
      vertex 0.0013894997444003823 -0.032554996578022834 0.0025310038626193965
      vertex 0.0017734998743981125 -0.038107996253296729 0.0019510059654712641
      vertex 0.0025804997328668835 -0.033194994000717994 0.0010670057535171473
    endloop
  endfacet
  facet normal 0.69516960994580845 -0.32540268383929327 0.64097761798519715
    outer loop
      vertex 0.0055614996142685433 -0.044168000487610694 -0.00074699455499649403
      vertex 0.0038224996440112593 -0.043062997428700324 0.0017000033557414973
      vertex 0.0019494998175650837 -0.047804993955418464 0.0013240060806274379
    endloop
  endfacet
  facet normal 0.7570422541162426 -0.57048876012918048 0.31848014074486442
    outer loop
      vertex 0.0061544997058808823 -0.044050996569916602 -0.0019469962418079412
      vertex 0.0055614996142685433 -0.044168000487610694 -0.00074699455499649403
      vertex 0.0019494998175650837 -0.047804993955418464 0.0013240060806274379
    endloop
  endfacet
  facet normal 0.64010743848010676 -0.76620780728860527 -0.056462936980145206
    outer loop
      vertex 0.0019494998175650837 -0.047804993955418464 0.0013240060806274379
      vertex 0.0022334998846054079 -0.047352997032925483 -0.001589994221925739
      vertex 0.0061544997058808823 -0.044050996569916602 -0.0019469962418079412
    endloop
  endfacet
  facet normal -0.025350226093901904 -0.077653144922695969 -0.99665809339040778
    outer loop
      vertex 0.0022334998846054079 -0.047352997032925483 -0.001589994221925739
      vertex 0.0020974997803568842 -0.041763996152207251 -0.0020219937860965764
      vertex 0.0061544997058808823 -0.044050996569916602 -0.0019469962418079412
    endloop
  endfacet
  facet normal 0.87424538646573757 0.02412777186887494 -0.48488437267870016
    outer loop
      vertex 0.0010134999081492426 -0.034213995007798072 -0.001808996587991718
      vertex 0.00086149968206882498 -0.02820399907045067 -0.0017839961647987401
      vertex 0.0025804997328668835 -0.033194994000717994 0.0010670057535171473
    endloop
  endfacet
  facet normal 0.95118432404796216 0.18763826526719363 -0.24503114718937305
    outer loop
      vertex 0.0013934997748583557 -0.02753299978189171 0.00079500368237495067
      vertex 0.0025804997328668835 -0.033194994000717994 0.0010670057535171473
      vertex 0.00086149968206882498 -0.02820399907045067 -0.0017839961647987401
    endloop
  endfacet
  facet normal 0.79235762340555804 -0.0082907961840039176 -0.61000054043396645
    outer loop
      vertex 6.6499798558652609e-05 -0.026118998793885118 -0.0028449960947036779
      vertex 0.00086149968206882498 -0.02820399907045067 -0.0017839961647987401
      vertex 0.00010249983984977028 -0.031433997122570868 -0.0027259954214096105
    endloop
  endfacet
  facet normal 0.74114060758546751 0.021535610604881936 -0.6710043347577711
    outer loop
      vertex 0.0010134999081492426 -0.034213995007798072 -0.001808996587991718
      vertex 0.00010249983984977028 -0.031433997122570868 -0.0027259954214096105
      vertex 0.00086149968206882498 -0.02820399907045067 -0.0017839961647987401
    endloop
  endfacet
  facet normal 0.96307519070076797 0.087275440045806355 0.2546942767741166
    outer loop
      vertex 0.00074749974533915541 -0.0270989960115403 0.0030890039205551112
      vertex 0.0013894997444003823 -0.032554996578022834 0.0025310038626193965
      vertex 0.0013934997748583557 -0.02753299978189171 0.00079500368237495067
    endloop
  endfacet
  facet normal 0.80083663611655309 0.19509113447760509 0.56621562279909277
    outer loop
      vertex 0.0025804997328668835 -0.033194994000717994 0.0010670057535171473
      vertex 0.0013934997748583557 -0.02753299978189171 0.00079500368237495067
      vertex 0.0013894997444003823 -0.032554996578022834 0.0025310038626193965
    endloop
  endfacet
  facet normal -0.38302414034828142 -0.043250415701268995 -0.92272526217294371
    outer loop
      vertex -0.0014495002053445203 -0.036767994431778785 -0.0015339956581592595
      vertex 0.00081349978223443052 -0.036647995380684729 -0.0024789937734603917
      vertex 3.5499795340001791e-05 -0.041939993767067786 -0.0019079961776733434
    endloop
  endfacet
  facet normal -0.04637473379608742 -0.10041846852570897 -0.99386393195662992
    outer loop
      vertex 3.5499795340001791e-05 -0.041939993767067786 -0.0019079961776733434
      vertex 0.00081349978223443052 -0.036647995380684729 -0.0024789937734603917
      vertex 0.0020974997803568842 -0.041763996152207251 -0.0020219937860965764
    endloop
  endfacet
  facet normal -0.429584843946063 -0.076089964471365873 -0.89981508053520809
    outer loop
      vertex -0.0025355002237483857 -0.03149999436549842 -0.0014609948694705999
      vertex 0.00010249983984977028 -0.031433997122570868 -0.0027259954214096105
      vertex -0.0014495002053445203 -0.036767994431778785 -0.0015339956581592595
    endloop
  endfacet
  facet normal -0.37927575174338324 -0.095319495746427965 -0.9203608519869465
    outer loop
      vertex 0.00081349978223443052 -0.036647995380684729 -0.0024789937734603917
      vertex -0.0014495002053445203 -0.036767994431778785 -0.0015339956581592595
      vertex 0.00010249983984977028 -0.031433997122570868 -0.0027259954214096105
    endloop
  endfacet
  facet normal -0.04838109415860916 -0.07814471974311836 -0.99576737871065313
    outer loop
      vertex 0.0020974997803568842 -0.041763996152207251 -0.0020219937860965764
      vertex 0.0022334998846054079 -0.047352997032925483 -0.001589994221925739
      vertex 3.5499795340001791e-05 -0.041939993767067786 -0.0019079961776733434
    endloop
  endfacet
  facet normal -0.24764739903956851 -0.12727944440352842 -0.96045338709448358
    outer loop
      vertex -0.0030205001914873717 -0.02615699675492943 -0.0020439953505992925
      vertex 6.6499798558652609e-05 -0.026118998793885118 -0.0028449960947036779
      vertex -0.0025355002237483857 -0.03149999436549842 -0.0014609948694705999
    endloop
  endfacet
  facet normal -0.4318010129973433 -0.023112803951574883 -0.90167271416404982
    outer loop
      vertex 0.00010249983984977028 -0.031433997122570868 -0.0027259954214096105
      vertex -0.0025355002237483857 -0.03149999436549842 -0.0014609948694705999
      vertex 6.6499798558652609e-05 -0.026118998793885118 -0.0028449960947036779
    endloop
  endfacet
  facet normal 0.85662015639632672 0.50866586528241431 0.086376762801262538
    outer loop
      vertex 0.0044674996659159662 -0.044903000263497229 0.0061390052586793864
      vertex 0.0038224996440112593 -0.043062997428700324 0.0017000033557414973
      vertex 0.0016054997593164446 -0.040105996100232001 0.0062730058133602107
    endloop
  endfacet
  facet normal 0.90825227905692696 0.36524037800823783 0.20415010129876862
    outer loop
      vertex 0.0017734998743981125 -0.038107996253296729 0.0019510059654712641
      vertex 0.0016054997593164446 -0.040105996100232001 0.0062730058133602107
      vertex 0.0038224996440112593 -0.043062997428700324 0.0017000033557414973
    endloop
  endfacet
  facet normal 0.91670910145807893 0.34791419458824957 0.19646917444711565
    outer loop
      vertex 0.0016054997593164446 -0.040105996100232001 0.0062730058133602107
      vertex 0.0017734998743981125 -0.038107996253296729 0.0019510059654712641
      vertex -0.00040250022197142223 -0.034721997944638129 0.0061080052554607356
    endloop
  endfacet
  facet normal 0.89054326300465236 0.014092411853185155 0.45468021800512393
    outer loop
      vertex 0.0013894997444003823 -0.032554996578022834 0.0025310038626193965
      vertex -0.00040250022197142223 -0.034721997944638129 0.0061080052554607356
      vertex 0.0017734998743981125 -0.038107996253296729 0.0019510059654712641
    endloop
  endfacet
  facet normal 0.81244274310712594 -0.48734014812244669 -0.32005682183100004
    outer loop
      vertex 0.0044674996659159662 -0.044903000263497229 0.0061390052586793864
      vertex 0.0015374997071921827 -0.047995997039601203 0.0034110031127929652
      vertex 0.0038224996440112593 -0.043062997428700324 0.0017000033557414973
    endloop
  endfacet
  facet normal 0.91599354490456386 -0.37342851289740431 0.14665255350113601
    outer loop
      vertex 0.0019494998175650837 -0.047804993955418464 0.0013240060806274379
      vertex 0.0038224996440112593 -0.043062997428700324 0.0017000033557414973
      vertex 0.0015374997071921827 -0.047995997039601203 0.0034110031127929652
    endloop
  endfacet
  facet normal 0.9104237716101502 -0.084390395414216487 0.40497755153709619
    outer loop
      vertex -0.00040250022197142223 -0.034721997944638129 0.0061080052554607356
      vertex 0.0013894997444003823 -0.032554996578022834 0.0025310038626193965
      vertex -0.0001195002207532523 -0.028851998416706926 0.0066950048357248271
    endloop
  endfacet
  facet normal 0.95859329112630454 0.08499882634452828 0.27179790603993387
    outer loop
      vertex 0.00074749974533915541 -0.0270989960115403 0.0030890039205551112
      vertex -0.0001195002207532523 -0.028851998416706926 0.0066950048357248271
      vertex 0.0013894997444003823 -0.032554996578022834 0.0025310038626193965
    endloop
  endfacet
  facet normal -0.34114541451813235 -0.93811828989898249 -0.059614430386107795
    outer loop
      vertex -0.0023695002403110264 -0.046911997167393561 0.0033930062353610957
      vertex 0.00060149979777634165 -0.047732998995110389 -0.00068899551033974049
      vertex 0.0008424997702240946 -0.048164998559281226 0.0047300054728984797
    endloop
  endfacet
  facet normal 0.069896148440883932 -0.99414844137655245 -0.082361428725473418
    outer loop
      vertex 0.00060149979777634165 -0.047732998995110389 -0.00068899551033974049
      vertex 0.0019494998175650837 -0.047804993955418464 0.0013240060806274379
      vertex 0.0008424997702240946 -0.048164998559281226 0.0047300054728984797
    endloop
  endfacet
  facet normal 0.11015823220113516 -0.99151627143566523 -0.068997444565991994
    outer loop
      vertex 0.0015374997071921827 -0.047995997039601203 0.0034110031127929652
      vertex 0.0008424997702240946 -0.048164998559281226 0.0047300054728984797
      vertex 0.0019494998175650837 -0.047804993955418464 0.0013240060806274379
    endloop
  endfacet
  facet normal 0.15228224791084738 -0.97879826540302595 -0.13698201566354146
    outer loop
      vertex 0.0019494998175650837 -0.047804993955418464 0.0013240060806274379
      vertex 0.00060149979777634165 -0.047732998995110389 -0.00068899551033974049
      vertex 0.0022334998846054079 -0.047352997032925483 -0.001589994221925739
    endloop
  endfacet
  facet normal -0.73198018502608253 -0.20803928409959946 -0.64878707215889286
    outer loop
      vertex -0.0015235002012923358 -0.042931993870064612 0.00016900590062141063
      vertex 3.5499795340001791e-05 -0.041939993767067786 -0.0019079961776733434
      vertex 0.00060149979777634165 -0.047732998995110389 -0.00068899551033974049
    endloop
  endfacet
  facet normal -0.42997187459248604 -0.22594622829833544 -0.87411240065404616
    outer loop
      vertex 0.0022334998846054079 -0.047352997032925483 -0.001589994221925739
      vertex 0.00060149979777634165 -0.047732998995110389 -0.00068899551033974049
      vertex 3.5499795340001791e-05 -0.041939993767067786 -0.0019079961776733434
    endloop
  endfacet
  facet normal 0.99985061938895403 0.012942649928174319 0.011455423185630063
    outer loop
      vertex 0.0013154998794198038 -0.021764000324532396 0.0010850063562393153
      vertex 0.0013934997748583557 -0.02753299978189171 0.00079500368237495067
      vertex 0.0013534997031092646 -0.022038993803784258 -0.001920993715524677
    endloop
  endfacet
  facet normal 0.98008026881453314 -0.082232786434772526 -0.18077730918344148
    outer loop
      vertex 0.00086149968206882498 -0.02820399907045067 -0.0017839961647987401
      vertex 0.0013534997031092646 -0.022038993803784258 -0.001920993715524677
      vertex 0.0013934997748583557 -0.02753299978189171 0.00079500368237495067
    endloop
  endfacet
  facet normal 0.63295579621616116 -0.024416244882070608 -0.77380282179779114
    outer loop
      vertex 7.4998149648310836e-06 -0.020802994636818773 -0.0030609958767890966
      vertex 0.0013534997031092646 -0.022038993803784258 -0.001920993715524677
      vertex 6.6499798558652609e-05 -0.026118998793885118 -0.0028449960947036779
    endloop
  endfacet
  facet normal 0.72396843089217511 -0.073019725861073873 -0.68595760124565697
    outer loop
      vertex 0.00086149968206882498 -0.02820399907045067 -0.0017839961647987401
      vertex 6.6499798558652609e-05 -0.026118998793885118 -0.0028449960947036779
      vertex 0.0013534997031092646 -0.022038993803784258 -0.001920993715524677
    endloop
  endfacet
  facet normal 0.96290686121404256 -0.0011601858400575691 0.26983148555299641
    outer loop
      vertex 0.00060249980539083502 -0.021618997124955065 0.0036300054788589442
      vertex 0.00074749974533915541 -0.0270989960115403 0.0030890039205551112
      vertex 0.0013154998794198038 -0.021764000324532396 0.0010850063562393153
    endloop
  endfacet
  facet normal 0.96253136309983667 -0.0006175396154839332 0.27116967694414773
    outer loop
      vertex 0.0013154998794198038 -0.021764000324532396 0.0010850063562393153
      vertex 0.00074749974533915541 -0.0270989960115403 0.0030890039205551112
      vertex 0.0013934997748583557 -0.02753299978189171 0.00079500368237495067
    endloop
  endfacet
  facet normal -0.24913784431890504 -0.088916689264775806 -0.96437760078628965
    outer loop
      vertex -0.0030205001914873717 -0.02615699675492943 -0.0020439953505992925
      vertex -0.0029215002525597809 -0.020761994091793901 -0.0025669963061809575
      vertex 6.6499798558652609e-05 -0.026118998793885118 -0.0028449960947036779
    endloop
  endfacet
  facet normal -0.1667333721654724 -0.041877564936326953 -0.98511230433962893
    outer loop
      vertex 7.4998149648310836e-06 -0.020802994636818773 -0.0030609958767890966
      vertex 6.6499798558652609e-05 -0.026118998793885118 -0.0028449960947036779
      vertex -0.0029215002525597809 -0.020761994091793901 -0.0025669963061809575
    endloop
  endfacet
  facet normal 0.96712385592846639 0.038703811904314156 0.25134331548328559
    outer loop
      vertex -0.0001195002207532523 -0.028851998416706926 0.0066950048357248271
      vertex 0.00074749974533915541 -0.0270989960115403 0.0030890039205551112
      vertex -0.00042850018711760619 -0.0230529954712838 0.0069910052269697154
    endloop
  endfacet
  facet normal 0.95644375270856408 -0.0035094311783658268 0.29189558372398017
    outer loop
      vertex 0.00060249980539083502 -0.021618997124955065 0.0036300054788589442
      vertex -0.00042850018711760619 -0.0230529954712838 0.0069910052269697154
      vertex 0.00074749974533915541 -0.0270989960115403 0.0030890039205551112
    endloop
  endfacet
  facet normal -0.78275271433112548 -0.065598995826442283 -0.61886586588195203
    outer loop
      vertex -0.0015235002012923358 -0.042931993870064612 0.00016900590062141063
      vertex -0.0024545001890510319 -0.037539993790909644 0.00077500632405280712
      vertex 3.5499795340001791e-05 -0.041939993767067786 -0.0019079961776733434
    endloop
  endfacet
  facet normal -0.86666477294553612 -0.21633147151710841 -0.44954740102296753
    outer loop
      vertex 3.5499795340001791e-05 -0.041939993767067786 -0.0019079961776733434
      vertex -0.0024545001890510319 -0.037539993790909644 0.00077500632405280712
      vertex -0.0014495002053445203 -0.036767994431778785 -0.0015339956581592595
    endloop
  endfacet
  facet normal -0.84919528867678562 -0.16812487055806724 -0.50060102835390141
    outer loop
      vertex -0.0025355002237483857 -0.03149999436549842 -0.0014609948694705999
      vertex -0.0014495002053445203 -0.036767994431778785 -0.0015339956581592595
      vertex -0.0038825001195073126 -0.032300998834893103 0.001093004554510113
    endloop
  endfacet
  facet normal -0.86895004623056371 -0.20963954393225154 -0.44830467182015715
    outer loop
      vertex -0.0024545001890510319 -0.037539993790909644 0.00077500632405280712
      vertex -0.0038825001195073126 -0.032300998834893103 0.001093004554510113
      vertex -0.0014495002053445203 -0.036767994431778785 -0.0015339956581592595
    endloop
  endfacet
  facet normal -0.84858887656033199 -0.13290527219255649 -0.51208701135792956
    outer loop
      vertex -0.0030205001914873717 -0.02615699675492943 -0.0020439953505992925
      vertex -0.0025355002237483857 -0.03149999436549842 -0.0014609948694705999
      vertex -0.0048085001856088636 -0.026950997678563005 0.0011250047981739009
    endloop
  endfacet
  facet normal -0.85564908778126358 -0.1451277513760279 -0.49679228492361771
    outer loop
      vertex -0.0038825001195073126 -0.032300998834893103 0.001093004554510113
      vertex -0.0048085001856088636 -0.026950997678563005 0.0011250047981739009
      vertex -0.0025355002237483857 -0.03149999436549842 -0.0014609948694705999
    endloop
  endfacet
  facet normal -0.83822581376897087 -0.037358690930353933 -0.54404210622277838
    outer loop
      vertex -0.0029215002525597809 -0.020761994091793901 -0.0025669963061809575
      vertex -0.0030205001914873717 -0.02615699675492943 -0.0020439953505992925
      vertex -0.0052805000543594358 -0.021495995489880449 0.0011180049777030909
    endloop
  endfacet
  facet normal -0.86030890510210623 -0.075086145884819197 -0.50421290988845069
    outer loop
      vertex -0.0048085001856088636 -0.026950997678563005 0.0011250047981739009
      vertex -0.0052805000543594358 -0.021495995489880449 0.0011180049777030909
      vertex -0.0030205001914873717 -0.02615699675492943 -0.0020439953505992925
    endloop
  endfacet
  facet normal -0.18695250469311203 -0.13870682911016791 0.97252721121168351
    outer loop
      vertex 0.0044674996659159662 -0.044903000263497229 0.0061390052586793864
      vertex 0.0016054997593164446 -0.040105996100232001 0.0062730058133602107
      vertex 0.00022049980703741333 -0.043006998864933844 0.0055930062234401667
    endloop
  endfacet
  facet normal -0.2791213103435643 -0.090818134260976707 0.95595154720385644
    outer loop
      vertex -0.00055650023045018294 -0.037797999946400519 0.0058610054701566661
      vertex 0.00022049980703741333 -0.043006998864933844 0.0055930062234401667
      vertex 0.0016054997593164446 -0.040105996100232001 0.0062730058133602107
    endloop
  endfacet
  facet normal -0.25315507081947181 -0.064834432600402322 0.96525074797576405
    outer loop
      vertex 0.0016054997593164446 -0.040105996100232001 0.0062730058133602107
      vertex -0.00040250022197142223 -0.034721997944638129 0.0061080052554607356
      vertex -0.00055650023045018294 -0.037797999946400519 0.0058610054701566661
    endloop
  endfacet
  facet normal -0.15773105576547339 -0.071190660301671094 0.9849125869501929
    outer loop
      vertex -0.0012635002082015487 -0.032592994539067145 0.0061240053772926295
      vertex -0.00055650023045018294 -0.037797999946400519 0.0058610054701566661
      vertex -0.00040250022197142223 -0.034721997944638129 0.0061080052554607356
    endloop
  endfacet
  facet normal 0.60387182415426199 -0.76611140652778242 0.22002757277356585
    outer loop
      vertex 0.0044674996659159662 -0.044903000263497229 0.0061390052586793864
      vertex 0.0008424997702240946 -0.048164998559281226 0.0047300054728984797
      vertex 0.0015374997071921827 -0.047995997039601203 0.0034110031127929652
    endloop
  endfacet
  facet normal -0.20637839005266806 -0.18562529039373335 0.96070349832063739
    outer loop
      vertex 0.0044674996659159662 -0.044903000263497229 0.0061390052586793864
      vertex 0.00022049980703741333 -0.043006998864933844 0.0055930062234401667
      vertex 0.0008424997702240946 -0.048164998559281226 0.0047300054728984797
    endloop
  endfacet
  facet normal -0.21088874308844283 -0.084156366436385494 0.97388071344841909
    outer loop
      vertex -0.0021065002167597411 -0.027355996338650591 0.0063940051048994029
      vertex -0.0012635002082015487 -0.032592994539067145 0.0061240053772926295
      vertex -0.0001195002207532523 -0.028851998416706926 0.0066950048357248271
    endloop
  endfacet
  facet normal -0.19941644532075872 -0.087981535989317267 0.97595713566764453
    outer loop
      vertex -0.00040250022197142223 -0.034721997944638129 0.0061080052554607356
      vertex -0.0001195002207532523 -0.028851998416706926 0.0066950048357248271
      vertex -0.0012635002082015487 -0.032592994539067145 0.0061240053772926295
    endloop
  endfacet
  facet normal -0.12937636393272944 -0.086597093011836018 0.98780701553362404
    outer loop
      vertex -0.0027125001745298503 -0.022115995554253465 0.0067740052044391597
      vertex -0.0021065002167597411 -0.027355996338650591 0.0063940051048994029
      vertex -0.00042850018711760619 -0.0230529954712838 0.0069910052269697154
    endloop
  endfacet
  facet normal -0.1937365640118458 -0.060304797190251731 0.9791983839859657
    outer loop
      vertex -0.0001195002207532523 -0.028851998416706926 0.0066950048357248271
      vertex -0.00042850018711760619 -0.0230529954712838 0.0069910052269697154
      vertex -0.0021065002167597411 -0.027355996338650591 0.0063940051048994029
    endloop
  endfacet
  facet normal -0.80473303462237999 -0.26089132672477894 -0.53323583771839667
    outer loop
      vertex 0.00060149979777634165 -0.047732998995110389 -0.00068899551033974049
      vertex -0.0023695002403110264 -0.046911997167393561 0.0033930062353610957
      vertex -0.0015235002012923358 -0.042931993870064612 0.00016900590062141063
    endloop
  endfacet
  facet normal -0.98531406367494789 0.09393404405398896 -0.14259239563182943
    outer loop
      vertex -0.0015235002012923358 -0.042931993870064612 0.00016900590062141063
      vertex -0.0023695002403110264 -0.046911997167393561 0.0033930062353610957
      vertex -0.0018915002094581721 -0.041850996581837531 0.0034240043759345973
    endloop
  endfacet
  facet normal -0.44191027871570104 -0.199616287411643 0.87456768941312002
    outer loop
      vertex 0.0008424997702240946 -0.048164998559281226 0.0047300054728984797
      vertex 0.00022049980703741333 -0.043006998864933844 0.0055930062234401667
      vertex -0.0023695002403110264 -0.046911997167393561 0.0033930062353610957
    endloop
  endfacet
  facet normal -0.69848851443718674 0.061603816078973667 0.71296477125019297
    outer loop
      vertex -0.0018915002094581721 -0.041850996581837531 0.0034240043759345973
      vertex -0.0023695002403110264 -0.046911997167393561 0.0033930062353610957
      vertex 0.00022049980703741333 -0.043006998864933844 0.0055930062234401667
    endloop
  endfacet
  facet normal -0.98885822267418821 -0.14623720995273992 -0.027822542566844643
    outer loop
      vertex -0.0026395002007484434 -0.036925998894497748 0.0041230066716670954
      vertex -0.0024545001890510319 -0.037539993790909644 0.00077500632405280712
      vertex -0.0018915002094581721 -0.041850996581837531 0.0034240043759345973
    endloop
  endfacet
  facet normal -0.98487126399919533 -0.16364493162705057 -0.056999383342323122
    outer loop
      vertex -0.0015235002012923358 -0.042931993870064612 0.00016900590062141063
      vertex -0.0018915002094581721 -0.041850996581837531 0.0034240043759345973
      vertex -0.0024545001890510319 -0.037539993790909644 0.00077500632405280712
    endloop
  endfacet
  facet normal 0.99003323937164678 -0.13856257065381603 0.025191247549294259
    outer loop
      vertex 0.0013534997031092646 -0.022038993803784258 -0.001920993715524677
      vertex 0.0021664998400956394 -0.01624699440412224 -0.0020139955878257787
      vertex 0.0013154998794198038 -0.021764000324532396 0.0010850063562393153
    endloop
  endfacet
  facet normal 0.98903408578041629 -0.14740179675533882 0.0091808211938633425
    outer loop
      vertex 0.0013154998794198038 -0.021764000324532396 0.0010850063562393153
      vertex 0.0021664998400956394 -0.01624699440412224 -0.0020139955878257787
      vertex 0.0021764996834099295 -0.01600699630193413 0.00076200506091117504
    endloop
  endfacet
  facet normal 0.62627976363113202 -0.11975092895409019 -0.77034626803844908
    outer loop
      vertex 0.0003004998341202738 -0.015545999078080065 -0.0036399953961372411
      vertex 0.0021664998400956394 -0.01624699440412224 -0.0020139955878257787
      vertex 7.4998149648310836e-06 -0.020802994636818773 -0.0030609958767890966
    endloop
  endfacet
  facet normal 0.59065331715269664 -0.0957728597742947 -0.80122170356722688
    outer loop
      vertex 7.4998149648310836e-06 -0.020802994636818773 -0.0030609958767890966
      vertex 0.0021664998400956394 -0.01624699440412224 -0.0020139955878257787
      vertex 0.0013534997031092646 -0.022038993803784258 -0.001920993715524677
    endloop
  endfacet
  facet normal 0.95357720988457917 -0.12730173575691642 0.27291898589511371
    outer loop
      vertex 0.0021764996834099295 -0.01600699630193413 0.00076200506091117504
      vertex 0.0012304996978491547 -0.016071995167061693 0.0040370046198368037
      vertex 0.0013154998794198038 -0.021764000324532396 0.0010850063562393153
    endloop
  endfacet
  facet normal 0.95308135830613394 -0.12802912478022702 0.27430725046440829
    outer loop
      vertex 0.0012304996978491547 -0.016071995167061693 0.0040370046198368037
      vertex 0.00060249980539083502 -0.021618997124955065 0.0036300054788589442
      vertex 0.0013154998794198038 -0.021764000324532396 0.0010850063562393153
    endloop
  endfacet
  facet normal -0.20158991069104876 -0.096121323520941659 -0.974742119266505
    outer loop
      vertex 0.0003004998341202738 -0.015545999078080065 -0.0036399953961372411
      vertex 7.4998149648310836e-06 -0.020802994636818773 -0.0030609958767890966
      vertex -0.0027915001939982174 -0.015378994314000017 -0.0030169964730739629
    endloop
  endfacet
  facet normal -0.16686425392907112 -0.078135496364718948 -0.98287901848016546
    outer loop
      vertex -0.0029215002525597809 -0.020761994091793901 -0.0025669963061809575
      vertex -0.0027915001939982174 -0.015378994314000017 -0.0030169964730739629
      vertex 7.4998149648310836e-06 -0.020802994636818773 -0.0030609958767890966
    endloop
  endfacet
  facet normal 0.96131681429279348 -0.062299207290624423 0.26830727036164043
    outer loop
      vertex -0.00042850018711760619 -0.0230529954712838 0.0069910052269697154
      vertex 0.00060249980539083502 -0.021618997124955065 0.0036300054788589442
      vertex -8.150016423314789e-05 -0.017142993776127703 0.0071200045794248545
    endloop
  endfacet
  facet normal 0.9278015948552939 -0.13067966043865184 0.34943815895178348
    outer loop
      vertex 0.00060249980539083502 -0.021618997124955065 0.0036300054788589442
      vertex 0.0012304996978491547 -0.016071995167061693 0.0040370046198368037
      vertex -8.150016423314789e-05 -0.017142993776127703 0.0071200045794248545
    endloop
  endfacet
  facet normal -0.80781997280795448 -0.029702703255896072 -0.5886804234487909
    outer loop
      vertex -0.0027915001939982174 -0.015378994314000017 -0.0030169964730739629
      vertex -0.0029215002525597809 -0.020761994091793901 -0.0025669963061809575
      vertex -0.0058015000633895395 -0.016062994865700609 0.0011480047404766047
    endloop
  endfacet
  facet normal -0.83270160135633264 -0.076824336872954271 -0.54836672433931455
    outer loop
      vertex -0.0052805000543594358 -0.021495995489880449 0.0011180049777030909
      vertex -0.0058015000633895395 -0.016062994865700609 0.0011480047404766047
      vertex -0.0029215002525597809 -0.020761994091793901 -0.0025669963061809575
    endloop
  endfacet
  facet normal -0.10098633908786597 -0.015783662070828479 0.99476260249833703
    outer loop
      vertex -0.00042850018711760619 -0.0230529954712838 0.0069910052269697154
      vertex -8.150016423314789e-05 -0.017142993776127703 0.0071200045794248545
      vertex -0.0027125001745298503 -0.022115995554253465 0.0067740052044391597
    endloop
  endfacet
  facet normal 0.29214944245610835 -0.2193303210442813 0.93088286778906681
    outer loop
      vertex -0.0019465002208016811 -0.017016997007653124 0.007735005304217335
      vertex -0.0027125001745298503 -0.022115995554253465 0.0067740052044391597
      vertex -8.150016423314789e-05 -0.017142993776127703 0.0071200045794248545
    endloop
  endfacet
  facet normal -0.9720619889527492 -0.22974630718914235 0.048084550181709741
    outer loop
      vertex -0.0037735002208501098 -0.032006000546738501 0.0047060034275054896
      vertex -0.0038825001195073126 -0.032300998834893103 0.001093004554510113
      vertex -0.0026395002007484434 -0.036925998894497748 0.0041230066716670954
    endloop
  endfacet
  facet normal -0.96486838553907528 -0.26268338648906309 -0.005141697176638543
    outer loop
      vertex -0.0024545001890510319 -0.037539993790909644 0.00077500632405280712
      vertex -0.0026395002007484434 -0.036925998894497748 0.0041230066716670954
      vertex -0.0038825001195073126 -0.032300998834893103 0.001093004554510113
    endloop
  endfacet
  facet normal -0.98436715221520654 -0.17063925477984315 0.0436297417813142
    outer loop
      vertex -0.0038825001195073126 -0.032300998834893103 0.001093004554510113
      vertex -0.0037735002208501098 -0.032006000546738501 0.0047060034275054896
      vertex -0.0048085001856088636 -0.026950997678563005 0.0011250047981739009
    endloop
  endfacet
  facet normal -0.98497418881597709 -0.16456816192112056 0.052375256068219377
    outer loop
      vertex -0.0046035002544522283 -0.027009000448510057 0.004798003196716305
      vertex -0.0048085001856088636 -0.026950997678563005 0.0011250047981739009
      vertex -0.0037735002208501098 -0.032006000546738501 0.0047060034275054896
    endloop
  endfacet
  facet normal -0.99405933467009744 -0.085926319884467223 0.066803493219708493
    outer loop
      vertex -0.0052805000543594358 -0.021495995489880449 0.0011180049777030909
      vertex -0.0048085001856088636 -0.026950997678563005 0.0011250047981739009
      vertex -0.0049865001440048216 -0.021959995297715074 0.0048960044085979426
    endloop
  endfacet
  facet normal -0.99558093672018322 -0.076576356731531334 0.054356784572746841
    outer loop
      vertex -0.0049865001440048216 -0.021959995297715074 0.0048960044085979426
      vertex -0.0048085001856088636 -0.026950997678563005 0.0011250047981739009
      vertex -0.0046035002544522283 -0.027009000448510057 0.004798003196716305
    endloop
  endfacet
  facet normal -0.99194829609799362 -0.095582082880893163 0.083082147904569539
    outer loop
      vertex -0.0058015000633895395 -0.016062994865700609 0.0011480047404766047
      vertex -0.0052805000543594358 -0.021495995489880449 0.0011180049777030909
      vertex -0.0053955002315342424 -0.016902995673939592 0.0050290047228336299
    endloop
  endfacet
  facet normal -0.99434279753006072 -0.082190067581232581 0.067284424580174654
    outer loop
      vertex -0.0049865001440048216 -0.021959995297715074 0.0048960044085979426
      vertex -0.0053955002315342424 -0.016902995673939592 0.0050290047228336299
      vertex -0.0052805000543594358 -0.021495995489880449 0.0011180049777030909
    endloop
  endfacet
  facet normal -0.74636612890635101 -0.14475327096919244 0.64960302659783509
    outer loop
      vertex 0.00022049980703741333 -0.043006998864933844 0.0055930062234401667
      vertex -0.00055650023045018294 -0.037797999946400519 0.0058610054701566661
      vertex -0.0018915002094581721 -0.041850996581837531 0.0034240043759345973
    endloop
  endfacet
  facet normal -0.67604369692684785 -0.2032034071668615 0.70828899127493095
    outer loop
      vertex -0.0026395002007484434 -0.036925998894497748 0.0041230066716670954
      vertex -0.0018915002094581721 -0.041850996581837531 0.0034240043759345973
      vertex -0.00055650023045018294 -0.037797999946400519 0.0058610054701566661
    endloop
  endfacet
  facet normal -0.51816043600450334 -0.21744665593815049 0.82717997701887014
    outer loop
      vertex -0.0037735002208501098 -0.032006000546738501 0.0047060034275054896
      vertex -0.0026395002007484434 -0.036925998894497748 0.0041230066716670954
      vertex -0.0012635002082015487 -0.032592994539067145 0.0061240053772926295
    endloop
  endfacet
  facet normal -0.66637250344558763 -0.12763266927349351 0.73461390429652429
    outer loop
      vertex -0.00055650023045018294 -0.037797999946400519 0.0058610054701566661
      vertex -0.0012635002082015487 -0.032592994539067145 0.0061240053772926295
      vertex -0.0026395002007484434 -0.036925998894497748 0.0041230066716670954
    endloop
  endfacet
  facet normal -0.54593738303904904 -0.10598132147964738 0.83109586288099302
    outer loop
      vertex -0.0046035002544522283 -0.027009000448510057 0.004798003196716305
      vertex -0.0037735002208501098 -0.032006000546738501 0.0047060034275054896
      vertex -0.0021065002167597411 -0.027355996338650591 0.0063940051048994029
    endloop
  endfacet
  facet normal -0.51012678712301218 -0.12598034464780675 0.85082290391242565
    outer loop
      vertex -0.0012635002082015487 -0.032592994539067145 0.0061240053772926295
      vertex -0.0021065002167597411 -0.027355996338650591 0.0063940051048994029
      vertex -0.0037735002208501098 -0.032006000546738501 0.0047060034275054896
    endloop
  endfacet
  facet normal -0.54655403141544101 -0.12327593500864588 0.82830050983400538
    outer loop
      vertex -0.0021065002167597411 -0.027355996338650591 0.0063940051048994029
      vertex -0.0027125001745298503 -0.022115995554253465 0.0067740052044391597
      vertex -0.0046035002544522283 -0.027009000448510057 0.004798003196716305
    endloop
  endfacet
  facet normal -0.63807752885786884 -0.063296909169994073 0.76736599381009907
    outer loop
      vertex -0.0049865001440048216 -0.021959995297715074 0.0048960044085979426
      vertex -0.0046035002544522283 -0.027009000448510057 0.004798003196716305
      vertex -0.0027125001745298503 -0.022115995554253465 0.0067740052044391597
    endloop
  endfacet
  facet normal -0.61745596499509037 -0.05512806899129525 0.7846712861455255
    outer loop
      vertex -0.0019465002208016811 -0.017016997007653124 0.007735005304217335
      vertex -0.0053955002315342424 -0.016902995673939592 0.0050290047228336299
      vertex -0.0027125001745298503 -0.022115995554253465 0.0067740052044391597
    endloop
  endfacet
  facet normal -0.63805687924211718 -0.071767521503053433 0.7666373599747921
    outer loop
      vertex -0.0049865001440048216 -0.021959995297715074 0.0048960044085979426
      vertex -0.0027125001745298503 -0.022115995554253465 0.0067740052044391597
      vertex -0.0053955002315342424 -0.016902995673939592 0.0050290047228336299
    endloop
  endfacet
  facet normal 0.9429111527938745 -0.33208100334383367 0.025313339469131675
    outer loop
      vertex 0.0021664998400956394 -0.01624699440412224 -0.0020139955878257787
      vertex 0.0040814999863505366 -0.010784996120259169 -0.0016919963955879247
      vertex 0.0021764996834099295 -0.01600699630193413 0.00076200506091117504
    endloop
  endfacet
  facet normal 0.86502952288155532 -0.4339237020287936 -0.251861361389427
    outer loop
      vertex 0.0047524997405707838 -0.010916998056694868 0.00084000518918037059
      vertex 0.0021764996834099295 -0.01600699630193413 0.00076200506091117504
      vertex 0.0040814999863505366 -0.010784996120259169 -0.0016919963955879247
    endloop
  endfacet
  facet normal 0.63093549696242612 -0.17667284334386091 -0.75545159017475894
    outer loop
      vertex 0.0040814999863505366 -0.010784996120259169 -0.0016919963955879247
      vertex 0.0021664998400956394 -0.01624699440412224 -0.0020139955878257787
      vertex 0.0014204997476190331 -0.010418993799015883 -0.0039999962747097051
    endloop
  endfacet
  facet normal 0.60468714890489017 -0.18646526264595675 -0.77432819771441219
    outer loop
      vertex 0.0003004998341202738 -0.015545999078080065 -0.0036399953961372411
      vertex 0.0014204997476190331 -0.010418993799015883 -0.0039999962747097051
      vertex 0.0021664998400956394 -0.01624699440412224 -0.0020139955878257787
    endloop
  endfacet
  facet normal 0.89200890092643481 -0.45169786603474771 0.017004660763122487
    outer loop
      vertex 0.0047524997405707838 -0.010916998056694868 0.00084000518918037059
      vertex 0.0042514998838305475 -0.011752997903153303 0.0049140050113201106
      vertex 0.0021764996834099295 -0.01600699630193413 0.00076200506091117504
    endloop
  endfacet
  facet normal 0.77964604839646068 -0.5886942204745198 0.21352085144004362
    outer loop
      vertex 0.0042514998838305475 -0.011752997903153303 0.0049140050113201106
      vertex 0.0012304996978491547 -0.016071995167061693 0.0040370046198368037
      vertex 0.0021764996834099295 -0.01600699630193413 0.00076200506091117504
    endloop
  endfacet
  facet normal -0.01469469677032666 -0.18236174819912743 -0.98312169067750022
    outer loop
      vertex -0.0036255002580583093 -0.010130999056622389 -0.003977994710206989
      vertex 0.0014204997476190331 -0.010418993799015883 -0.0039999962747097051
      vertex -0.0027915001939982174 -0.015378994314000017 -0.0030169964730739629
    endloop
  endfacet
  facet normal -0.19877101476737244 -0.025370687219362784 -0.97971751638845694
    outer loop
      vertex 0.0003004998341202738 -0.015545999078080065 -0.0036399953961372411
      vertex -0.0027915001939982174 -0.015378994314000017 -0.0030169964730739629
      vertex 0.0014204997476190331 -0.010418993799015883 -0.0039999962747097051
    endloop
  endfacet
  facet normal 0.74962995192658699 -0.5865879655565378 0.30654444023466676
    outer loop
      vertex 0.0042514998838305475 -0.011752997903153303 0.0049140050113201106
      vertex 0.002432499770075083 -0.012189996806904677 0.0085260055065154994
      vertex 0.0012304996978491547 -0.016071995167061693 0.0040370046198368037
    endloop
  endfacet
  facet normal 0.85168318986390001 -0.48713799083831855 0.19321573948635323
    outer loop
      vertex -8.150016423314789e-05 -0.017142993776127703 0.0071200045794248545
      vertex 0.0012304996978491547 -0.016071995167061693 0.0040370046198368037
      vertex 0.002432499770075083 -0.012189996806904677 0.0085260055065154994
    endloop
  endfacet
  facet normal -0.85468980659603022 -0.2217774977888641 -0.46938265410574248
    outer loop
      vertex -0.0036255002580583093 -0.010130999056622389 -0.003977994710206989
      vertex -0.0027915001939982174 -0.015378994314000017 -0.0030169964730739629
      vertex -0.0061545001901686189 -0.010621999768540266 0.00085900416970252635
    endloop
  endfacet
  facet normal -0.80111568396014099 -0.083454181578218073 -0.59266268693936286
    outer loop
      vertex -0.0058015000633895395 -0.016062994865700609 0.0011480047404766047
      vertex -0.0061545001901686189 -0.010621999768540266 0.00085900416970252635
      vertex -0.0027915001939982174 -0.015378994314000017 -0.0030169964730739629
    endloop
  endfacet
  facet normal 0.13647857177454864 -0.33401814533769264 0.93263362475923395
    outer loop
      vertex 0.002432499770075083 -0.012189996806904677 0.0085260055065154994
      vertex -0.001943500197958201 -0.011989993421360853 0.0092380053400993312
      vertex -8.150016423314789e-05 -0.017142993776127703 0.0071200045794248545
    endloop
  endfacet
  facet normal 0.28432115821872755 -0.27478928997331625 0.91850548452642466
    outer loop
      vertex -0.0019465002208016811 -0.017016997007653124 0.007735005304217335
      vertex -8.150016423314789e-05 -0.017142993776127703 0.0071200045794248545
      vertex -0.001943500197958201 -0.011989993421360853 0.0092380053400993312
    endloop
  endfacet
  facet normal -0.99790624004442197 -0.064462101598637966 0.005270060520624416
    outer loop
      vertex -0.0061545001901686189 -0.010621999768540266 0.00085900416970252635
      vertex -0.0058015000633895395 -0.016062994865700609 0.0011480047404766047
      vertex -0.0060505003295838831 -0.011880998877808455 0.0051520063579082453
    endloop
  endfacet
  facet normal -0.98856281842936788 -0.1307741819811753 0.075111033451410694
    outer loop
      vertex -0.0053955002315342424 -0.016902995673939592 0.0050290047228336299
      vertex -0.0060505003295838831 -0.011880998877808455 0.0051520063579082453
      vertex -0.0058015000633895395 -0.016062994865700609 0.0011480047404766047
    endloop
  endfacet
  facet normal -0.69288404466044085 -0.20616909727611024 0.69094573157617978
    outer loop
      vertex -0.001943500197958201 -0.011989993421360853 0.0092380053400993312
      vertex -0.0060505003295838831 -0.011880998877808455 0.0051520063579082453
      vertex -0.0019465002208016811 -0.017016997007653124 0.007735005304217335
    endloop
  endfacet
  facet normal -0.61623753759274902 -0.099508327903704299 0.78124860956000053
    outer loop
      vertex -0.0053955002315342424 -0.016902995673939592 0.0050290047228336299
      vertex -0.0019465002208016811 -0.017016997007653124 0.007735005304217335
      vertex -0.0060505003295838831 -0.011880998877808455 0.0051520063579082453
    endloop
  endfacet
  facet normal 0.86257242416785807 0.079581402135997292 -0.49963548062487845
    outer loop
      vertex 0.00320349982008338 -0.0050479969065636426 -0.0022939958572387731
      vertex 0.0048254995979368706 -0.0054009979646652967 0.00045000454783439281
      vertex 0.0040814999863505366 -0.010784996120259169 -0.0016919963955879247
    endloop
  endfacet
  facet normal 0.96576748025634696 -0.030990954513498228 -0.25755142169603523
    outer loop
      vertex 0.0047524997405707838 -0.010916998056694868 0.00084000518918037059
      vertex 0.0040814999863505366 -0.010784996120259169 -0.0016919963955879247
      vertex 0.0048254995979368706 -0.0054009979646652967 0.00045000454783439281
    endloop
  endfacet
  facet normal 0.65675109403244369 0.021411600905338241 -0.75380338539559411
    outer loop
      vertex 0.00320349982008338 -0.0050479969065636426 -0.0022939958572387731
      vertex 0.0040814999863505366 -0.010784996120259169 -0.0016919963955879247
      vertex 0.0014204997476190331 -0.010418993799015883 -0.0039999962747097051
    endloop
  endfacet
  facet normal 0.98736375441214463 -0.0018633413694751114 0.15845928319948552
    outer loop
      vertex 0.0048254995979368706 -0.0054009979646652967 0.00045000454783439281
      vertex 0.0040804997459053995 -0.0062609961312264234 0.0050820044279098475
      vertex 0.0047524997405707838 -0.010916998056694868 0.00084000518918037059
    endloop
  endfacet
  facet normal 0.9914767210140204 0.026971804619212492 0.1274614978841451
    outer loop
      vertex 0.0047524997405707838 -0.010916998056694868 0.00084000518918037059
      vertex 0.0040804997459053995 -0.0062609961312264234 0.0050820044279098475
      vertex 0.0042514998838305475 -0.011752997903153303 0.0049140050113201106
    endloop
  endfacet
  facet normal 0.055878732188860109 0.28535741517885488 -0.95679084072299103
    outer loop
      vertex 0.00320349982008338 -0.0050479969065636426 -0.0022939958572387731
      vertex 0.0014204997476190331 -0.010418993799015883 -0.0039999962747097051
      vertex -0.0030345001816749571 -0.0050000002663582593 -0.0026439943313598668
    endloop
  endfacet
  facet normal 0.010077401515122058 0.25052319106573456 -0.96805814738420781
    outer loop
      vertex -0.0030345001816749571 -0.0050000002663582593 -0.0026439943313598668
      vertex 0.0014204997476190331 -0.010418993799015883 -0.0039999962747097051
      vertex -0.0036255002580583093 -0.010130999056622389 -0.003977994710206989
    endloop
  endfacet
  facet normal 0.89401913420752066 -0.084276232926868255 0.44003102644528513
    outer loop
      vertex 0.002432499770075083 -0.012189996806904677 0.0085260055065154994
      vertex 0.0042514998838305475 -0.011752997903153303 0.0049140050113201106
      vertex 0.0028404996171593668 -0.006472994951531294 0.0087920042723417247
    endloop
  endfacet
  facet normal 0.94790113131739773 0.019788029872744917 0.31794949146201301
    outer loop
      vertex 0.0040804997459053995 -0.0062609961312264234 0.0050820044279098475
      vertex 0.0028404996171593668 -0.006472994951531294 0.0087920042723417247
      vertex 0.0042514998838305475 -0.011752997903153303 0.0049140050113201106
    endloop
  endfacet
  facet normal -0.87441467006141727 0.21393343940881782 -0.4354669542963005
    outer loop
      vertex -0.0036255002580583093 -0.010130999056622389 -0.003977994710206989
      vertex -0.0061545001901686189 -0.010621999768540266 0.00085900416970252635
      vertex -0.0030345001816749571 -0.0050000002663582593 -0.0026439943313598668
    endloop
  endfacet
  facet normal -0.86526813565782446 0.19152756444573121 -0.4632798781219829
    outer loop
      vertex -0.0055605003237724302 -0.0053139975350350172 0.0019440061450004542
      vertex -0.0030345001816749571 -0.0050000002663582593 -0.0026439943313598668
      vertex -0.0061545001901686189 -0.010621999768540266 0.00085900416970252635
    endloop
  endfacet
  facet normal 0.13637140235923062 -0.055752234070759882 0.98908772564151048
    outer loop
      vertex 0.0028404996171593668 -0.006472994951531294 0.0087920042723417247
      vertex -0.0016575002030003814 -0.0068129947464913151 0.0093930053561925853
      vertex 0.002432499770075083 -0.012189996806904677 0.0085260055065154994
    endloop
  endfacet
  facet normal 0.15876992678313567 -0.038309241009854188 0.9865721019786271
    outer loop
      vertex 0.002432499770075083 -0.012189996806904677 0.0085260055065154994
      vertex -0.0016575002030003814 -0.0068129947464913151 0.0093930053561925853
      vertex -0.001943500197958201 -0.011989993421360853 0.0092380053400993312
    endloop
  endfacet
  facet normal -0.99375067330807421 0.098291475022540556 0.052899765950731821
    outer loop
      vertex -0.0060505003295838831 -0.011880998877808455 0.0051520063579082453
      vertex -0.0055205000191926954 -0.0068949958365410588 0.0058440051078796351
      vertex -0.0061545001901686189 -0.010621999768540266 0.00085900416970252635
    endloop
  endfacet
  facet normal -0.99360106466389597 0.10075807494911422 0.051036600898972814
    outer loop
      vertex -0.0055605003237724302 -0.0053139975350350172 0.0019440061450004542
      vertex -0.0061545001901686189 -0.010621999768540266 0.00085900416970252635
      vertex -0.0055205000191926954 -0.0068949958365410588 0.0058440051078796351
    endloop
  endfacet
  facet normal -0.70541104123704712 -0.023336061996300062 0.70841420871646132
    outer loop
      vertex -0.0060505003295838831 -0.011880998877808455 0.0051520063579082453
      vertex -0.001943500197958201 -0.011989993421360853 0.0092380053400993312
      vertex -0.0055205000191926954 -0.0068949958365410588 0.0058440051078796351
    endloop
  endfacet
  facet normal -0.67664127901050586 0.015340099208765608 0.73615301459363192
    outer loop
      vertex -0.0016575002030003814 -0.0068129947464913151 0.0093930053561925853
      vertex -0.0055205000191926954 -0.0068949958365410588 0.0058440051078796351
      vertex -0.001943500197958201 -0.011989993421360853 0.0092380053400993312
    endloop
  endfacet
  facet normal -0.010879937739813146 0.94611212117558752 0.32365642449889342
    outer loop
      vertex 0.00320349982008338 -0.0050479969065636426 -0.0022939958572387731
      vertex -0.0030345001816749571 -0.0050000002663582593 -0.0026439943313598668
      vertex 0.00025249981787055752 -0.0067249959390610486 0.0025090060234069789
    endloop
  endfacet
  facet normal -0.17524338591811764 0.95803758873487055 0.22683415585627456
    outer loop
      vertex 0.0048254995979368706 -0.0054009979646652967 0.00045000454783439281
      vertex 0.00320349982008338 -0.0050479969065636426 -0.0022939958572387731
      vertex 0.00025249981787055752 -0.0067249959390610486 0.0025090060234069789
    endloop
  endfacet
  facet normal -0.21444396108446143 0.9659360395993809 0.14484942166770687
    outer loop
      vertex 0.0040804997459053995 -0.0062609961312264234 0.0050820044279098475
      vertex 0.0048254995979368706 -0.0054009979646652967 0.00045000454783439281
      vertex 0.00025249981787055752 -0.0067249959390610486 0.0025090060234069789
    endloop
  endfacet
  facet normal -0.12923431031435392 0.99152267566984442 0.013463902483527307
    outer loop
      vertex 0.0028404996171593668 -0.006472994951531294 0.0087920042723417247
      vertex 0.0040804997459053995 -0.0062609961312264234 0.0050820044279098475
      vertex 0.00025249981787055752 -0.0067249959390610486 0.0025090060234069789
    endloop
  endfacet
  facet normal 0.21493253392282644 0.95914354965097537 0.18397732747390305
    outer loop
      vertex -0.0030345001816749571 -0.0050000002663582593 -0.0026439943313598668
      vertex -0.0055605003237724302 -0.0053139975350350172 0.0019440061450004542
      vertex 0.00025249981787055752 -0.0067249959390610486 0.0025090060234069789
    endloop
  endfacet
  facet normal -0.07649788315092805 0.99703368608471865 -0.0084795451378953945
    outer loop
      vertex -0.0016575002030003814 -0.0068129947464913151 0.0093930053561925853
      vertex 0.0028404996171593668 -0.006472994951531294 0.0087920042723417247
      vertex 0.00025249981787055752 -0.0067249959390610486 0.0025090060234069789
    endloop
  endfacet
  facet normal 0.18548453069000517 0.91132532379403119 0.36753454679310454
    outer loop
      vertex -0.0055605003237724302 -0.0053139975350350172 0.0019440061450004542
      vertex -0.0055205000191926954 -0.0068949958365410588 0.0058440051078796351
      vertex 0.00025249981787055752 -0.0067249959390610486 0.0025090060234069789
    endloop
  endfacet
  facet normal -0.026264570067344128 0.99963994442056747 0.0054912546856069793
    outer loop
      vertex -0.0055205000191926954 -0.0068949958365410588 0.0058440051078796351
      vertex -0.0016575002030003814 -0.0068129947464913151 0.0093930053561925853
      vertex 0.00025249981787055752 -0.0067249959390610486 0.0025090060234069789
    endloop
  endfacet
endsolid OBJECT
