solid OBJECT
  facet normal 0.92210882357176482 0.34650282826583195 -0.17219496942383578
    outer loop
      vertex 0.0044959998568519944 -0.048739993780851365 0.003658001035451889
      vertex 0.0067889998545870179 -0.055510992020368577 0.0023120005652308463
      vertex 0.0041169998813420528 -0.049427995294332505 0.00024400065094232551
    endloop
  endfacet
  facet normal 0.77936180039006642 0.47947000339613127 0.40336546696025927
    outer loop
      vertex 0.0041169998813420528 -0.049427995294332505 0.00024400065094232551
      vertex 0.0067889998545870179 -0.055510992020368577 0.0023120005652308463
      vertex 0.0075129997795447701 -0.055451998323202134 0.00084300125390291206
    endloop
  endfacet
  facet normal 0.82748839800103913 0.17364008364151109 -0.53395886782283408
    outer loop
      vertex 0.0031499998450162832 -0.042014995425939561 0.0037590011060237884
      vertex 0.0044959998568519944 -0.048739993780851365 0.003658001035451889
      vertex 0.0012379998452961448 -0.043456995695829392 0.00032700105011463157
    endloop
  endfacet
  facet normal 0.88427322353546567 0.42893069422196928 -0.18460586581269733
    outer loop
      vertex 0.0041169998813420528 -0.049427995294332505 0.00024400065094232551
      vertex 0.0012379998452961448 -0.043456995695829392 0.00032700105011463157
      vertex 0.0044959998568519944 -0.048739993780851365 0.003658001035451889
    endloop
  endfacet
  facet normal -0.0077972529054935935 -0.10329634365996576 -0.99462006225171729
    outer loop
      vertex 0.0075129997795447701 -0.055451998323202134 0.00084300125390291206
      vertex 0.0025609998493455362 -0.052670994609594346 0.00059300074726343147
      vertex 0.0041169998813420528 -0.049427995294332505 0.00024400065094232551
    endloop
  endfacet
  facet normal 0.053708484145248966 -0.13228348797705908 -0.98975576661085574
    outer loop
      vertex 0.0041169998813420528 -0.049427995294332505 0.00024400065094232551
      vertex 0.0025609998493455362 -0.052670994609594346 0.00059300074726343147
      vertex 0.00099299995880574015 -0.046468997210264207 -0.00032099922746419915
    endloop
  endfacet
  facet normal 0.33126854939726369 0.17262005965733901 -0.92761169849464986
    outer loop
      vertex 0.0041169998813420528 -0.049427995294332505 0.00024400065094232551
      vertex 0.00099299995880574015 -0.046468997210264207 -0.00032099922746419915
      vertex 0.0012379998452961448 -0.043456995695829392 0.00032700105011463157
    endloop
  endfacet
  facet normal 0.82497786656957439 0.053929738989806075 -0.56258608489972906
    outer loop
      vertex 0.00012599987629801062 -0.040132993668317796 -0.00098499869555234917
      vertex 0.0012379998452961448 -0.043456995695829392 0.00032700105011463157
      vertex 0.00099299995880574015 -0.046468997210264207 -0.00032099922746419915
    endloop
  endfacet
  facet normal 0.83684775147427359 0.18067192796018702 0.5167625134426852
    outer loop
      vertex 0.0067889998545870179 -0.055510992020368577 0.0023120005652308463
      vertex 0.0044959998568519944 -0.048739993780851365 0.003658001035451889
      vertex 0.0046669998783618206 -0.05399399420619011 0.0052180008068680762
    endloop
  endfacet
  facet normal 0.58787465426714858 0.247780007498 0.77007042454217889
    outer loop
      vertex 0.0021659998684190225 -0.047938996762037278 0.0051790007427334785
      vertex 0.0046669998783618206 -0.05399399420619011 0.0052180008068680762
      vertex 0.0044959998568519944 -0.048739993780851365 0.003658001035451889
    endloop
  endfacet
  facet normal 0.56802490502992042 0.10142321118646135 0.81673804827397156
    outer loop
      vertex 0.0044959998568519944 -0.048739993780851365 0.003658001035451889
      vertex 0.0031499998450162832 -0.042014995425939561 0.0037590011060237884
      vertex 0.0021659998684190225 -0.047938996762037278 0.0051790007427334785
    endloop
  endfacet
  facet normal 0.77318251769278523 0.023482655447357951 0.63374865619375231
    outer loop
      vertex 0.0016969998478889468 -0.041132995694875718 0.0054990008510649203
      vertex 0.0021659998684190225 -0.047938996762037278 0.0051790007427334785
      vertex 0.0031499998450162832 -0.042014995425939561 0.0037590011060237884
    endloop
  endfacet
  facet normal 0.69535717785942397 -0.28834564745188607 0.65828199336980953
    outer loop
      vertex 0.0067889998545870179 -0.055510992020368577 0.0023120005652308463
      vertex 0.0046669998783618206 -0.05399399420619011 0.0052180008068680762
      vertex 0.0023809998175129306 -0.05979899486899376 0.0050900007635354995
    endloop
  endfacet
  facet normal 0.75714496058637371 -0.55091271300456568 0.35103659539798321
    outer loop
      vertex 0.0075129997795447701 -0.055451998323202134 0.00084300125390291206
      vertex 0.0067889998545870179 -0.055510992020368577 0.0023120005652308463
      vertex 0.0023809998175129306 -0.05979899486899376 0.0050900007635354995
    endloop
  endfacet
  facet normal 0.64018845961559878 -0.76811443771722654 -0.012607408352071659
    outer loop
      vertex 0.0023809998175129306 -0.05979899486899376 0.0050900007635354995
      vertex 0.0027279998403973889 -0.059450993150472642 0.0015080009624361991
      vertex 0.0075129997795447701 -0.055451998323202134 0.00084300125390291206
    endloop
  endfacet
  facet normal -0.025419422269068841 -0.134315041462644 -0.99061259966164117
    outer loop
      vertex 0.0027279998403973889 -0.059450993150472642 0.0015080009624361991
      vertex 0.0025609998493455362 -0.052670994609594346 0.00059300074726343147
      vertex 0.0075129997795447701 -0.055451998323202134 0.00084300125390291206
    endloop
  endfacet
  facet normal 0.87418269333502341 -0.0034041043239942167 -0.4855852456029488
    outer loop
      vertex 0.0012379998452961448 -0.043456995695829392 0.00032700105011463157
      vertex 0.0010509999347850683 -0.036131994634866715 -6.0999110341072166e-05
      vertex 0.0031499998450162832 -0.042014995425939561 0.0037590011060237884
    endloop
  endfacet
  facet normal 0.95112818769968055 0.17347312396176762 -0.25546476435325993
    outer loop
      vertex 0.0016999998707324269 -0.035133996814489366 0.0030330007001757621
      vertex 0.0031499998450162832 -0.042014995425939561 0.0037590011060237884
      vertex 0.0010509999347850683 -0.036131994634866715 -6.0999110341072166e-05
    endloop
  endfacet
  facet normal 0.792681299973648 -0.042818746188858441 -0.60813066987852338
    outer loop
      vertex 8.0999766476452621e-05 -0.03366599401831627 -0.0014989993497729302
      vertex 0.0010509999347850683 -0.036131994634866715 -6.0999110341072166e-05
      vertex 0.00012599987629801062 -0.040132993668317796 -0.00098499869555234917
    endloop
  endfacet
  facet normal 0.74163002348122631 -0.016588354519811457 -0.67060400741835791
    outer loop
      vertex 0.0012379998452961448 -0.043456995695829392 0.00032700105011463157
      vertex 0.00012599987629801062 -0.040132993668317796 -0.00098499869555234917
      vertex 0.0010509999347850683 -0.036131994634866715 -6.0999110341072166e-05
    endloop
  endfacet
  facet normal 0.96319844269911237 0.10178205383785807 0.24877534744936461
    outer loop
      vertex 0.00091299981530755785 -0.034446993678808213 0.0057990008071064948
      vertex 0.0016969998478889468 -0.041132995694875718 0.0054990008510649203
      vertex 0.0016999998707324269 -0.035133996814489366 0.0030330007001757621
    endloop
  endfacet
  facet normal 0.80107246964969658 0.22723212620627184 0.5537584845301361
    outer loop
      vertex 0.0031499998450162832 -0.042014995425939561 0.0037590011060237884
      vertex 0.0016999998707324269 -0.035133996814489366 0.0030330007001757621
      vertex 0.0016969998478889468 -0.041132995694875718 0.0054990008510649203
    endloop
  endfacet
  facet normal -0.38332792885581896 -0.095889056675100823 -0.91862124282484747
    outer loop
      vertex -0.0017690001176670191 -0.046549999922513963 0.00084000053256750098
      vertex 0.00099299995880574015 -0.046468997210264207 -0.00032099922746419915
      vertex 4.3999950401485237e-05 -0.052878001540899278 0.00074400073289871207
    endloop
  endfacet
  facet normal -0.046263533728307472 -0.15707905039189782 -0.98650182836878175
    outer loop
      vertex 0.0025609998493455362 -0.052670994609594346 0.00059300074726343147
      vertex 4.3999950401485237e-05 -0.052878001540899278 0.00074400073289871207
      vertex 0.00099299995880574015 -0.046468997210264207 -0.00032099922746419915
    endloop
  endfacet
  facet normal -0.42951887484381174 -0.12741979773792741 -0.89402333934709555
    outer loop
      vertex -0.0030940001951530573 -0.040125997573137284 0.00056100050359964362
      vertex 0.00012599987629801062 -0.040132993668317796 -0.00098499869555234917
      vertex -0.0017690001176670191 -0.046549999922513963 0.00084000053256750098
    endloop
  endfacet
  facet normal -0.37957430649381163 -0.1476520025532021 -0.91330292455010298
    outer loop
      vertex 0.00012599987629801062 -0.040132993668317796 -0.00098499869555234917
      vertex 0.00099299995880574015 -0.046468997210264207 -0.00032099922746419915
      vertex -0.0017690001176670191 -0.046549999922513963 0.00084000053256750098
    endloop
  endfacet
  facet normal -0.048291456250863694 -0.13475544016909319 -0.98970142295442054
    outer loop
      vertex 0.0025609998493455362 -0.052670994609594346 0.00059300074726343147
      vertex 0.0027279998403973889 -0.059450993150472642 0.0015080009624361991
      vertex 4.3999950401485237e-05 -0.052878001540899278 0.00074400073289871207
    endloop
  endfacet
  facet normal -0.24779878559825608 -0.18166987548457519 -0.95162588142475857
    outer loop
      vertex -0.0036860000463202593 -0.033655995339155198 -0.00051999957859516152
      vertex 8.0999766476452621e-05 -0.03366599401831627 -0.0014989993497729302
      vertex -0.0030940001951530573 -0.040125997573137284 0.00056100050359964362
    endloop
  endfacet
  facet normal -0.43175213465333934 -0.074450524528522591 -0.89891446401741293
    outer loop
      vertex 0.00012599987629801062 -0.040132993668317796 -0.00098499869555234917
      vertex -0.0030940001951530573 -0.040125997573137284 0.00056100050359964362
      vertex 8.0999766476452621e-05 -0.03366599401831627 -0.0014989993497729302
    endloop
  endfacet
  facet normal 0.85660359393424734 0.51278638757127726 0.057274807555600341
    outer loop
      vertex 0.0054539999337866896 -0.055927002638578416 0.010754000818356872
      vertex 0.0046669998783618206 -0.05399399420619011 0.0052180008068680762
      vertex 0.0019609998790547263 -0.050072999507188798 0.010584000804461539
    endloop
  endfacet
  facet normal 0.90823106913562968 0.37632120845005068 0.18302642740174035
    outer loop
      vertex 0.0021659998684190225 -0.047938996762037278 0.0051790007427334785
      vertex 0.0019609998790547263 -0.050072999507188798 0.010584000804461539
      vertex 0.0046669998783618206 -0.05399399420619011 0.0052180008068680762
    endloop
  endfacet
  facet normal 0.91660976247620796 0.35875658326735188 0.17640934582851706
    outer loop
      vertex 0.0019609998790547263 -0.050072999507188798 0.010584000804461539
      vertex 0.0021659998684190225 -0.047938996762037278 0.0051790007427334785
      vertex -0.00049100016523152563 -0.043524997144937516 0.010008000842295587
    endloop
  endfacet
  facet normal 0.89044155507144174 0.040045647461581936 0.45333230981404266
    outer loop
      vertex 0.0016969998478889468 -0.041132995694875718 0.0054990008510649203
      vertex -0.00049100016523152563 -0.043524997144937516 0.010008000842295587
      vertex 0.0021659998684190225 -0.047938996762037278 0.0051790007427334785
    endloop
  endfacet
  facet normal 0.8124383306201991 -0.50479856107664767 -0.29175738495196657
    outer loop
      vertex 0.0054539999337866896 -0.055927002638578416 0.010754000818356872
      vertex 0.0018779998291283857 -0.059886002749204637 0.0076460006684064864
      vertex 0.0046669998783618206 -0.05399399420619011 0.0052180008068680762
    endloop
  endfacet
  facet normal 0.9159843964292459 -0.36441436419589712 0.16785337847612752
    outer loop
      vertex 0.0023809998175129306 -0.05979899486899376 0.0050900007635354995
      vertex 0.0046669998783618206 -0.05399399420619011 0.0052180008068680762
      vertex 0.0018779998291283857 -0.059886002749204637 0.0076460006684064864
    endloop
  endfacet
  facet normal 0.9103592674366392 -0.061249324657831894 0.40926094905473853
    outer loop
      vertex -0.00049100016523152563 -0.043524997144937516 0.010008000842295587
      vertex 0.0016969998478889468 -0.041132995694875718 0.0054990008510649203
      vertex -0.00014500009175389978 -0.036330999642610551 0.010315000851638615
    endloop
  endfacet
  facet normal 0.95859148294765684 0.1004473434757622 0.26648208196588824
    outer loop
      vertex 0.00091299981530755785 -0.034446993678808213 0.0057990008071064948
      vertex -0.00014500009175389978 -0.036330999642610551 0.010315000851638615
      vertex 0.0016969998478889468 -0.041132995694875718 0.0054990008510649203
    endloop
  endfacet
  facet normal -0.34101580525464215 -0.9400384028445179 -0.006001811731124961
    outer loop
      vertex -0.0028900000387802717 -0.058566996663808824 0.0075490006282925605
      vertex 0.00073599986452609328 -0.059850999921560288 0.0026320011392235755
      vertex 0.0010299997748807075 -0.059999996632337571 0.0092640008814632892
    endloop
  endfacet
  facet normal 0.069615715527097721 -0.99724815418757418 -0.025490608488747079
    outer loop
      vertex 0.00073599986452609328 -0.059850999921560288 0.0026320011392235755
      vertex 0.0023809998175129306 -0.05979899486899376 0.0050900007635354995
      vertex 0.0010299997748807075 -0.059999996632337571 0.0092640008814632892
    endloop
  endfacet
  facet normal 0.11055823064684214 -0.99379632332231904 -0.012072505426801992
    outer loop
      vertex 0.0010299997748807075 -0.059999996632337571 0.0092640008814632892
      vertex 0.0023809998175129306 -0.05979899486899376 0.0050900007635354995
      vertex 0.0018779998291283857 -0.059886002749204637 0.0076460006684064864
    endloop
  endfacet
  facet normal 0.15211851599118795 -0.98504055461622564 -0.080963342655783171
    outer loop
      vertex 0.0023809998175129306 -0.05979899486899376 0.0050900007635354995
      vertex 0.00073599986452609328 -0.059850999921560288 0.0026320011392235755
      vertex 0.0027279998403973889 -0.059450993150472642 0.0015080009624361991
    endloop
  endfacet
  facet normal -0.73194201399295356 -0.24480537195451438 -0.6358704412175098
    outer loop
      vertex -0.0018580000968649981 -0.053942004054784776 0.0033430007323622703
      vertex 4.3999950401485237e-05 -0.052878001540899278 0.00074400073289871207
      vertex 0.00073599986452609328 -0.059850999921560288 0.0026320011392235755
    endloop
  endfacet
  facet normal -0.42985874361898335 -0.27547036911583656 -0.85984739126980769
    outer loop
      vertex 0.00073599986452609328 -0.059850999921560288 0.0026320011392235755
      vertex 4.3999950401485237e-05 -0.052878001540899278 0.00074400073289871207
      vertex 0.0027279998403973889 -0.059450993150472642 0.0015080009624361991
    endloop
  endfacet
  facet normal 0.9998472973163639 0.013692748660400175 0.010857747615676932
    outer loop
      vertex 0.0016039998382329944 -0.028085993438959123 0.0029850012660026549
      vertex 0.0016999998707324269 -0.035133996814489366 0.0030330007001757621
      vertex 0.0016509998468682173 -0.028629997581243516 -0.00065699899196624764
    endloop
  endfacet
  facet normal 0.98008539752612633 -0.092352031706086482 -0.17579452720666025
    outer loop
      vertex 0.0016999998707324269 -0.035133996814489366 0.0030330007001757621
      vertex 0.0010509999347850683 -0.036131994634866715 -6.0999110341072166e-05
      vertex 0.0016509998468682173 -0.028629997581243516 -0.00065699899196624764
    endloop
  endfacet
  facet normal 0.63314984016271547 -0.068480610406925643 -0.77099395970410967
    outer loop
      vertex 7.9999091103675687e-06 -0.027202995330095292 -0.0021329990550875665
      vertex 0.0016509998468682173 -0.028629997581243516 -0.00065699899196624764
      vertex 8.0999766476452621e-05 -0.03366599401831627 -0.0014989993497729302
    endloop
  endfacet
  facet normal 0.72414242008051899 -0.11197852572266143 -0.68049876209799842
    outer loop
      vertex 0.0010509999347850683 -0.036131994634866715 -6.0999110341072166e-05
      vertex 8.0999766476452621e-05 -0.03366599401831627 -0.0014989993497729302
      vertex 0.0016509998468682173 -0.028629997581243516 -0.00065699899196624764
    endloop
  endfacet
  facet normal 0.96302988965770475 0.014390835388760397 0.2690099170712531
    outer loop
      vertex 0.00073499985691159991 -0.027731994003057481 0.0060770010612905025
      vertex 0.00091299981530755785 -0.034446993678808213 0.0057990008071064948
      vertex 0.0016039998382329944 -0.028085993438959123 0.0029850012660026549
    endloop
  endfacet
  facet normal 0.96268906281359756 0.014952811138584082 0.27019656137362436
    outer loop
      vertex 0.0016999998707324269 -0.035133996814489366 0.0030330007001757621
      vertex 0.0016039998382329944 -0.028085993438959123 0.0029850012660026549
      vertex 0.00091299981530755785 -0.034446993678808213 0.0057990008071064948
    endloop
  endfacet
  facet normal -0.24927492540329713 -0.1438318996188559 -0.95769222416035726
    outer loop
      vertex -0.0036860000463202593 -0.033655995339155198 -0.00051999957859516152
      vertex -0.0035660000639036295 -0.027118997484445573 -0.0015329991430044175
      vertex 8.0999766476452621e-05 -0.03366599401831627 -0.0014989993497729302
    endloop
  endfacet
  facet normal -0.16700581159036054 -0.098125305376222716 -0.98106089685598419
    outer loop
      vertex 7.9999091103675687e-06 -0.027202995330095292 -0.0021329990550875665
      vertex 8.0999766476452621e-05 -0.03366599401831627 -0.0014989993497729302
      vertex -0.0035660000639036295 -0.027118997484445573 -0.0015329991430044175
    endloop
  endfacet
  facet normal 0.96711591402309471 0.053107284157379753 0.24872962270847701
    outer loop
      vertex -0.00014500009175389978 -0.036330999642610551 0.010315000851638615
      vertex 0.00091299981530755785 -0.034446993678808213 0.0057990008071064948
      vertex -0.00052300017606466982 -0.029245996683835984 0.010272000873461366
    endloop
  endfacet
  facet normal 0.95644438184263214 0.013280529057028109 0.29161236597515983
    outer loop
      vertex 0.00073499985691159991 -0.027731994003057481 0.0060770010612905025
      vertex -0.00052300017606466982 -0.029245996683835984 0.010272000873461366
      vertex 0.00091299981530755785 -0.034446993678808213 0.0057990008071064948
    endloop
  endfacet
  facet normal -0.78273612419605176 -0.10088378849314796 -0.61412264336841782
    outer loop
      vertex -0.0018580000968649981 -0.053942004054784776 0.0033430007323622703
      vertex -0.0029950001398101446 -0.047329993754625321 0.0037060004696249961
      vertex 4.3999950401485237e-05 -0.052878001540899278 0.00074400073289871207
    endloop
  endfacet
  facet normal -0.86663898289619945 -0.24167389579525025 -0.43649811158330054
    outer loop
      vertex -0.0017690001176670191 -0.046549999922513963 0.00084000053256750098
      vertex 4.3999950401485237e-05 -0.052878001540899278 0.00074400073289871207
      vertex -0.0029950001398101446 -0.047329993754625321 0.0037060004696249961
    endloop
  endfacet
  facet normal -0.84920289322567366 -0.19644307204152689 -0.49016789530122484
    outer loop
      vertex -0.0030940001951530573 -0.040125997573137284 0.00056100050359964362
      vertex -0.0017690001176670191 -0.046549999922513963 0.00084000053256750098
      vertex -0.0047380006061866877 -0.040923999458551408 0.0037290004119277
    endloop
  endfacet
  facet normal -0.86894383361860073 -0.23486596208033733 -0.43563125906239458
    outer loop
      vertex -0.0029950001398101446 -0.047329993754625321 0.0037060004696249961
      vertex -0.0047380006061866877 -0.040923999458551408 0.0037290004119277
      vertex -0.0017690001176670191 -0.046549999922513963 0.00084000053256750098
    endloop
  endfacet
  facet normal -0.84841041186695476 -0.16183540796795567 -0.50399312868687962
    outer loop
      vertex -0.0036860000463202593 -0.033655995339155198 -0.00051999957859516152
      vertex -0.0030940001951530573 -0.040125997573137284 0.00056100050359964362
      vertex -0.005869000603444874 -0.034403996378183366 0.0033950011283159255
    endloop
  endfacet
  facet normal -0.85561972677598852 -0.17340413733628676 -0.48769446204200545
    outer loop
      vertex -0.005869000603444874 -0.034403996378183366 0.0033950011283159255
      vertex -0.0030940001951530573 -0.040125997573137284 0.00056100050359964362
      vertex -0.0047380006061866877 -0.040923999458551408 0.0037290004119277
    endloop
  endfacet
  facet normal -0.83821257552567086 -0.068453138659501797 -0.54103035593050097
    outer loop
      vertex -0.0035660000639036295 -0.027118997484445573 -0.0015329991430044175
      vertex -0.0036860000463202593 -0.033655995339155198 -0.00051999957859516152
      vertex -0.0064450003327801821 -0.027755999773740769 0.0030080012083053588
    endloop
  endfacet
  facet normal -0.86014864878323927 -0.10359776403536473 -0.49941145890261718
    outer loop
      vertex -0.005869000603444874 -0.034403996378183366 0.0033950011283159255
      vertex -0.0064450003327801821 -0.027755999773740769 0.0030080012083053588
      vertex -0.0036860000463202593 -0.033655995339155198 -0.00051999957859516152
    endloop
  endfacet
  facet normal -0.18693897343591961 -0.083118082418727882 0.97884891816140773
    outer loop
      vertex 0.0054539999337866896 -0.055927002638578416 0.010754000818356872
      vertex 0.0019609998790547263 -0.050072999507188798 0.010584000804461539
      vertex 0.00027099981624633101 -0.053655991166830064 0.0099570008032023906
    endloop
  endfacet
  facet normal -0.27917749202402353 -0.036235466253348073 0.95955558407659669
    outer loop
      vertex -0.00067900019977241727 -0.047289999037981034 0.0099210008783265947
      vertex 0.00027099981624633101 -0.053655991166830064 0.0099570008032023906
      vertex 0.0019609998790547263 -0.050072999507188798 0.010584000804461539
    endloop
  endfacet
  facet normal -0.25317935137685205 -0.0097114112512700079 0.96737061384347678
    outer loop
      vertex 0.0019609998790547263 -0.050072999507188798 0.010584000804461539
      vertex -0.00049100016523152563 -0.043524997144937516 0.010008000842295587
      vertex -0.00067900019977241727 -0.047289999037981034 0.0099210008783265947
    endloop
  endfacet
  facet normal -0.15722806625791708 -0.014966562765729389 0.98744890357920578
    outer loop
      vertex -0.0015420000189915297 -0.040928998798131944 0.0098800007989630102
      vertex -0.00067900019977241727 -0.047289999037981034 0.0099210008783265947
      vertex -0.00049100016523152563 -0.043524997144937516 0.010008000842295587
    endloop
  endfacet
  facet normal 0.60385725785188804 -0.75228537244489502 0.26348269496314908
    outer loop
      vertex 0.0054539999337866896 -0.055927002638578416 0.010754000818356872
      vertex 0.0010299997748807075 -0.059999996632337571 0.0092640008814632892
      vertex 0.0018779998291283857 -0.059886002749204637 0.0076460006684064864
    endloop
  endfacet
  facet normal -0.20634781166906691 -0.1306169906039954 0.9697214973305186
    outer loop
      vertex 0.0054539999337866896 -0.055927002638578416 0.010754000818356872
      vertex 0.00027099981624633101 -0.053655991166830064 0.0099570008032023906
      vertex 0.0010299997748807075 -0.059999996632337571 0.0092640008814632892
    endloop
  endfacet
  facet normal -0.21086414424712174 -0.02837383670442916 0.97710349403816965
    outer loop
      vertex -0.0025699999304488299 -0.034528994768857957 0.0098440008740872144
      vertex -0.0015420000189915297 -0.040928998798131944 0.0098800007989630102
      vertex -0.00014500009175389978 -0.036330999642610551 0.010315000851638615
    endloop
  endfacet
  facet normal -0.19890618478378608 -0.032232617781967558 0.97948832969345789
    outer loop
      vertex -0.00049100016523152563 -0.043524997144937516 0.010008000842295587
      vertex -0.00014500009175389978 -0.036330999642610551 0.010315000851638615
      vertex -0.0015420000189915297 -0.040928998798131944 0.0098800007989630102
    endloop
  endfacet
  facet normal -0.12949000654661011 -0.030122039109302341 0.99112310081263688
    outer loop
      vertex -0.003311000217683613 -0.028118999511003495 0.0099420008054003119
      vertex -0.0025699999304488299 -0.034528994768857957 0.0098440008740872144
      vertex -0.00052300017606466982 -0.029245996683835984 0.010272000873461366
    endloop
  endfacet
  facet normal -0.19380150021342993 -0.0043856966237509664 0.98103095984792876
    outer loop
      vertex -0.00014500009175389978 -0.036330999642610551 0.010315000851638615
      vertex -0.00052300017606466982 -0.029245996683835984 0.010272000873461366
      vertex -0.0025699999304488299 -0.034528994768857957 0.0098440008740872144
    endloop
  endfacet
  facet normal -0.80471822905224577 -0.29100349962895145 -0.51744133487258248
    outer loop
      vertex 0.00073599986452609328 -0.059850999921560288 0.0026320011392235755
      vertex -0.0028900000387802717 -0.058566996663808824 0.0075490006282925605
      vertex -0.0018580000968649981 -0.053942004054784776 0.0033430007323622703
    endloop
  endfacet
  facet normal -0.98532874477704058 0.085578396630133863 -0.1476604305368131
    outer loop
      vertex -0.0023070000233128664 -0.052397990435361863 0.0072340007908642291
      vertex -0.0018580000968649981 -0.053942004054784776 0.0033430007323622703
      vertex -0.0028900000387802717 -0.058566996663808824 0.0075490006282925605
    endloop
  endfacet
  facet normal -0.44167174735488174 -0.14947689678034798 0.88463705829984463
    outer loop
      vertex 0.0010299997748807075 -0.059999996632337571 0.0092640008814632892
      vertex 0.00027099981624633101 -0.053655991166830064 0.0099570008032023906
      vertex -0.0028900000387802717 -0.058566996663808824 0.0075490006282925605
    endloop
  endfacet
  facet normal -0.69838164129213609 0.10217219663387749 0.70839531713663262
    outer loop
      vertex -0.0023070000233128664 -0.052397990435361863 0.0072340007908642291
      vertex -0.0028900000387802717 -0.058566996663808824 0.0075490006282925605
      vertex 0.00027099981624633101 -0.053655991166830064 0.0099570008032023906
    endloop
  endfacet
  facet normal -0.98883352350087939 -0.1477541201407532 -0.019416044454725369
    outer loop
      vertex -0.003220999998040497 -0.046347999781370164 0.007743000941351056
      vertex -0.0029950001398101446 -0.047329993754625321 0.0037060004696249961
      vertex -0.0023070000233128664 -0.052397990435361863 0.0072340007908642291
    endloop
  endfacet
  facet normal -0.98485561810743849 -0.16674903539829952 -0.047478107333292136
    outer loop
      vertex -0.0018580000968649981 -0.053942004054784776 0.0033430007323622703
      vertex -0.0023070000233128664 -0.052397990435361863 0.0072340007908642291
      vertex -0.0029950001398101446 -0.047329993754625321 0.0037060004696249961
    endloop
  endfacet
  facet normal 0.99003444883586211 -0.13685161158584819 0.033217864540437646
    outer loop
      vertex 0.0016509998468682173 -0.028629997581243516 -0.00065699899196624764
      vertex 0.0026429998334497225 -0.02157899907231331 -0.0011739994361996652
      vertex 0.0016039998382329944 -0.028085993438959123 0.0029850012660026549
    endloop
  endfacet
  facet normal 0.98903232163736354 -0.14664062187467239 0.017652047269817173
    outer loop
      vertex 0.0026549998375121515 -0.021092997699975968 0.0021910012736916541
      vertex 0.0016039998382329944 -0.028085993438959123 0.0029850012660026549
      vertex 0.0026429998334497225 -0.02157899907231331 -0.0011739994361996652
    endloop
  endfacet
  facet normal 0.62633472536058432 -0.16348230680845471 -0.76221935633258986
    outer loop
      vertex 0.0003659998411312702 -0.020837994128465653 -0.0032039995267987252
      vertex 0.0026429998334497225 -0.02157899907231331 -0.0011739994361996652
      vertex 7.9999091103675687e-06 -0.027202995330095292 -0.0021329990550875665
    endloop
  endfacet
  facet normal 0.59081153098303385 -0.14136342969197557 -0.79432872011731093
    outer loop
      vertex 0.0016509998468682173 -0.028629997581243516 -0.00065699899196624764
      vertex 7.9999091103675687e-06 -0.027202995330095292 -0.0021329990550875665
      vertex 0.0026429998334497225 -0.02157899907231331 -0.0011739994361996652
    endloop
  endfacet
  facet normal 0.9535523107911309 -0.11154165947771311 0.27981502601871167
    outer loop
      vertex 0.0026549998375121515 -0.021092997699975968 0.0021910012736916541
      vertex 0.0014999998612329367 -0.020944999366998673 0.0061860007271170615
      vertex 0.0016039998382329944 -0.028085993438959123 0.0029850012660026549
    endloop
  endfacet
  facet normal 0.95323725882577504 -0.11195311433778619 0.2807226898139748
    outer loop
      vertex 0.00073499985691159991 -0.027731994003057481 0.0060770010612905025
      vertex 0.0016039998382329944 -0.028085993438959123 0.0029850012660026549
      vertex 0.0014999998612329367 -0.020944999366998673 0.0061860007271170615
    endloop
  endfacet
  facet normal -0.20166425770874835 -0.15148136446423902 -0.9676698421377159
    outer loop
      vertex 0.0003659998411312702 -0.020837994128465653 -0.0032039995267987252
      vertex 7.9999091103675687e-06 -0.027202995330095292 -0.0021329990550875665
      vertex -0.003408000257797539 -0.020591998308897019 -0.0024559994190931321
    endloop
  endfacet
  facet normal -0.16713134738456198 -0.13408254749619483 -0.97677478631379067
    outer loop
      vertex -0.0035660000639036295 -0.027118997484445573 -0.0015329991430044175
      vertex -0.003408000257797539 -0.020591998308897019 -0.0024559994190931321
      vertex 7.9999091103675687e-06 -0.027202995330095292 -0.0021329990550875665
    endloop
  endfacet
  facet normal 0.96132325747447844 -0.046665878482100881 0.27144039939579978
    outer loop
      vertex -0.00052300017606466982 -0.029245996683835984 0.010272000873461366
      vertex 0.00073499985691159991 -0.027731994003057481 0.0060770010612905025
      vertex -0.00010100022237747881 -0.022035995334386826 0.010017000794410705
    endloop
  endfacet
  facet normal 0.92782571852787665 -0.11030313302466438 0.35633222543459736
    outer loop
      vertex 0.0014999998612329367 -0.020944999366998673 0.0061860007271170615
      vertex -0.00010100022237747881 -0.022035995334386826 0.010017000794410705
      vertex 0.00073499985691159991 -0.027731994003057481 0.0060770010612905025
    endloop
  endfacet
  facet normal -0.80774517713988814 -0.063331627681127933 -0.58612015299127018
    outer loop
      vertex -0.003408000257797539 -0.020591998308897019 -0.0024559994190931321
      vertex -0.0035660000639036295 -0.027118997484445573 -0.0015329991430044175
      vertex -0.0070819998281076548 -0.021135995000600816 0.0026660009324550628
    endloop
  endfacet
  facet normal -0.83267508371603571 -0.10817988378091732 -0.54309236572027042
    outer loop
      vertex -0.0070819998281076548 -0.021135995000600816 0.0026660009324550628
      vertex -0.0035660000639036295 -0.027118997484445573 -0.0015329991430044175
      vertex -0.0064450003327801821 -0.027755999773740769 0.0030080012083053588
    endloop
  endfacet
  facet normal -0.1010558180254979 0.041071275263644465 0.99403263125081331
    outer loop
      vertex -0.00052300017606466982 -0.029245996683835984 0.010272000873461366
      vertex -0.00010100022237747881 -0.022035995334386826 0.010017000794410705
      vertex -0.003311000217683613 -0.028118999511003495 0.0099420008054003119
    endloop
  endfacet
  facet normal 0.29228133747153295 -0.1658491717507207 0.94184163849102132
    outer loop
      vertex -0.003311000217683613 -0.028118999511003495 0.0099420008054003119
      vertex -0.00010100022237747881 -0.022035995334386826 0.010017000794410705
      vertex -0.002377000090666115 -0.021838994532823564 0.010758000848814845
    endloop
  endfacet
  facet normal -0.97207417897269233 -0.22653668205425662 0.061261099063066461
    outer loop
      vertex -0.0046040000515058634 -0.040313998073339463 0.0081110009495168923
      vertex -0.0047380006061866877 -0.040923999458551408 0.0037290004119277
      vertex -0.003220999998040497 -0.046347999781370164 0.007743000941351056
    endloop
  endfacet
  facet normal -0.96486419090797615 -0.26256429214379157 0.0098532022473250616
    outer loop
      vertex -0.0047380006061866877 -0.040923999458551408 0.0037290004119277
      vertex -0.0029950001398101446 -0.047329993754625321 0.0037060004696249961
      vertex -0.003220999998040497 -0.046347999781370164 0.007743000941351056
    endloop
  endfacet
  facet normal -0.98433334147795815 -0.16800849217685665 0.053488497934570951
    outer loop
      vertex -0.0047380006061866877 -0.040923999458551408 0.0037290004119277
      vertex -0.0046040000515058634 -0.040313998073339463 0.0081110009495168923
      vertex -0.005869000603444874 -0.034403996378183366 0.0033950011283159255
    endloop
  endfacet
  facet normal -0.98492653832694932 -0.16160535190076014 0.061671908810444778
    outer loop
      vertex -0.005869000603444874 -0.034403996378183366 0.0033950011283159255
      vertex -0.0046040000515058634 -0.040313998073339463 0.0081110009495168923
      vertex -0.0056190000968053934 -0.034218000084161759 0.0078750007823109626
    endloop
  endfacet
  facet normal -0.99407340587592719 -0.081972444487622045 0.071404356134328828
    outer loop
      vertex -0.0064450003327801821 -0.027755999773740769 0.0030080012083053588
      vertex -0.005869000603444874 -0.034403996378183366 0.0033950011283159255
      vertex -0.0060869999350979921 -0.028059998363256455 0.00764300087839365
    endloop
  endfacet
  facet normal -0.99557508246178505 -0.073454397338168234 0.058606370753498643
    outer loop
      vertex -0.0056190000968053934 -0.034218000084161759 0.0078750007823109626
      vertex -0.0060869999350979921 -0.028059998363256455 0.00764300087839365
      vertex -0.005869000603444874 -0.034403996378183366 0.0033950011283159255
    endloop
  endfacet
  facet normal -0.99194101989308547 -0.090887527335916082 0.088274970564867702
    outer loop
      vertex -0.0070819998281076548 -0.021135995000600816 0.0026660009324550628
      vertex -0.0064450003327801821 -0.027755999773740769 0.0030080012083053588
      vertex -0.0065870000170543787 -0.021888995379209519 0.0074530008286237716
    endloop
  endfacet
  facet normal -0.99434615542103744 -0.07835959640548 0.071662380999883993
    outer loop
      vertex -0.0060869999350979921 -0.028059998363256455 0.00764300087839365
      vertex -0.0065870000170543787 -0.021888995379209519 0.0074530008286237716
      vertex -0.0064450003327801821 -0.027755999773740769 0.0030080012083053588
    endloop
  endfacet
  facet normal -0.746311095571912 -0.10765794274417126 0.65683294374623502
    outer loop
      vertex 0.00027099981624633101 -0.053655991166830064 0.0099570008032023906
      vertex -0.00067900019977241727 -0.047289999037981034 0.0099210008783265947
      vertex -0.0023070000233128664 -0.052397990435361863 0.0072340007908642291
    endloop
  endfacet
  facet normal -0.67604124120948206 -0.16259862629361557 0.71870016481935795
    outer loop
      vertex -0.003220999998040497 -0.046347999781370164 0.007743000941351056
      vertex -0.0023070000233128664 -0.052397990435361863 0.0072340007908642291
      vertex -0.00067900019977241727 -0.047289999037981034 0.0099210008783265947
    endloop
  endfacet
  facet normal -0.51833606468880922 -0.16991861663901645 0.8381261168597488
    outer loop
      vertex -0.0046040000515058634 -0.040313998073339463 0.0081110009495168923
      vertex -0.003220999998040497 -0.046347999781370164 0.007743000941351056
      vertex -0.0015420000189915297 -0.040928998798131944 0.0098800007989630102
    endloop
  endfacet
  facet normal -0.66636339700425506 -0.085631657491722607 0.74069362247029646
    outer loop
      vertex -0.00067900019977241727 -0.047289999037981034 0.0099210008783265947
      vertex -0.0015420000189915297 -0.040928998798131944 0.0098800007989630102
      vertex -0.003220999998040497 -0.046347999781370164 0.007743000941351056
    endloop
  endfacet
  facet normal -0.54577250192105764 -0.058512061816435708 0.83588797979682583
    outer loop
      vertex -0.0056190000968053934 -0.034218000084161759 0.0078750007823109626
      vertex -0.0046040000515058634 -0.040313998073339463 0.0081110009495168923
      vertex -0.0025699999304488299 -0.034528994768857957 0.0098440008740872144
    endloop
  endfacet
  facet normal -0.51032665601809346 -0.077153289379283993 0.85651274018274048
    outer loop
      vertex -0.0046040000515058634 -0.040313998073339463 0.0081110009495168923
      vertex -0.0015420000189915297 -0.040928998798131944 0.0098800007989630102
      vertex -0.0025699999304488299 -0.034528994768857957 0.0098440008740872144
    endloop
  endfacet
  facet normal -0.5463844463703178 -0.075914485923454372 0.83408694246557957
    outer loop
      vertex -0.0025699999304488299 -0.034528994768857957 0.0098440008740872144
      vertex -0.003311000217683613 -0.028118999511003495 0.0099420008054003119
      vertex -0.0056190000968053934 -0.034218000084161759 0.0078750007823109626
    endloop
  endfacet
  facet normal -0.63795909397320172 -0.019481271996128455 0.7698237944220121
    outer loop
      vertex -0.0060869999350979921 -0.028059998363256455 0.00764300087839365
      vertex -0.0056190000968053934 -0.034218000084161759 0.0078750007823109626
      vertex -0.003311000217683613 -0.028118999511003495 0.0099420008054003119
    endloop
  endfacet
  facet normal -0.61738181809466919 -0.010386443847438859 0.78659507528990102
    outer loop
      vertex -0.002377000090666115 -0.021838994532823564 0.010758000848814845
      vertex -0.0065870000170543787 -0.021888995379209519 0.0074530008286237716
      vertex -0.003311000217683613 -0.028118999511003495 0.0099420008054003119
    endloop
  endfacet
  facet normal -0.63793745692647552 -0.02799361679735566 0.76957920870355123
    outer loop
      vertex -0.0060869999350979921 -0.028059998363256455 0.00764300087839365
      vertex -0.003311000217683613 -0.028118999511003495 0.0099420008054003119
      vertex -0.0065870000170543787 -0.021888995379209519 0.0074530008286237716
    endloop
  endfacet
  facet normal 0.94293547840418368 -0.33001531929252104 0.044300932258010441
    outer loop
      vertex 0.0026429998334497225 -0.02157899907231331 -0.0011739994361996652
      vertex 0.004979999816976487 -0.014900000602006913 -0.0011619993448257447
      vertex 0.0026549998375121515 -0.021092997699975968 0.0021910012736916541
    endloop
  endfacet
  facet normal 0.86507578142686747 -0.44750167065136526 -0.22668512777183192
    outer loop
      vertex 0.004979999816976487 -0.014900000602006913 -0.0011619993448257447
      vertex 0.0057979997592046851 -0.014885993510484696 0.0019320004656910895
      vertex 0.0026549998375121515 -0.021092997699975968 0.0021910012736916541
    endloop
  endfacet
  facet normal 0.630989053057463 -0.21944787970635024 -0.74410714484812834
    outer loop
      vertex 0.004979999816976487 -0.014900000602006913 -0.0011619993448257447
      vertex 0.0026429998334497225 -0.02157899907231331 -0.0011739994361996652
      vertex 0.0017319998815655711 -0.014615999370813371 -0.0039999990686774255
    endloop
  endfacet
  facet normal 0.60474463535908163 -0.23030336061109793 -0.76239378807519542
    outer loop
      vertex 0.0017319998815655711 -0.014615999370813371 -0.0039999990686774255
      vertex 0.0026429998334497225 -0.02157899907231331 -0.0011739994361996652
      vertex 0.0003659998411312702 -0.020837994128465653 -0.0032039995267987252
    endloop
  endfacet
  facet normal 0.89204866733364652 -0.44992019200087641 0.042673128994247092
    outer loop
      vertex 0.0057979997592046851 -0.014885993510484696 0.0019320004656910895
      vertex 0.0051869997633621091 -0.015621000736951829 0.0069550007618963718
      vertex 0.0026549998375121515 -0.021092997699975968 0.0021910012736916541
    endloop
  endfacet
  facet normal 0.77964881043629319 -0.57556338060994039 0.24672763786436608
    outer loop
      vertex 0.0014999998612329367 -0.020944999366998673 0.0061860007271170615
      vertex 0.0026549998375121515 -0.021092997699975968 0.0021910012736916541
      vertex 0.0051869997633621091 -0.015621000736951829 0.0069550007618963718
    endloop
  endfacet
  facet normal -0.014833444765848662 -0.23814580242941191 -0.97111613399306174
    outer loop
      vertex -0.0044270003335550425 -0.014264995068311692 -0.0039919990077614785
      vertex 0.0017319998815655711 -0.014615999370813371 -0.0039999990686774255
      vertex -0.003408000257797539 -0.020591998308897019 -0.0024559994190931321
    endloop
  endfacet
  facet normal -0.19886849748854493 -0.0812855189392305 -0.97664936651667811
    outer loop
      vertex 0.0003659998411312702 -0.020837994128465653 -0.0032039995267987252
      vertex -0.003408000257797539 -0.020591998308897019 -0.0024559994190931321
      vertex 0.0017319998815655711 -0.014615999370813371 -0.0039999990686774255
    endloop
  endfacet
  facet normal 0.74960558661222942 -0.56816256739047166 0.33953315233715131
    outer loop
      vertex 0.0051869997633621091 -0.015621000736951829 0.0069550007618963718
      vertex 0.0029669998485478584 -0.015901999384164811 0.011386000843136571
      vertex 0.0014999998612329367 -0.020944999366998673 0.0061860007271170615
    endloop
  endfacet
  facet normal 0.85174592280065797 -0.47524807007906333 0.22060860109837299
    outer loop
      vertex -0.00010100022237747881 -0.022035995334386826 0.010017000794410705
      vertex 0.0014999998612329367 -0.020944999366998673 0.0061860007271170615
      vertex 0.0029669998485478584 -0.015901999384164811 0.011386000843136571
    endloop
  endfacet
  facet normal -0.85466633140189607 -0.2483352923648407 -0.45593315796736433
    outer loop
      vertex -0.0044270003335550425 -0.014264995068311692 -0.0039919990077614785
      vertex -0.003408000257797539 -0.020591998308897019 -0.0024559994190931321
      vertex -0.0075130000831559298 -0.014525996357202531 0.0019350011870265006
    endloop
  endfacet
  facet normal -0.80104421662683778 -0.11715112329393651 -0.58702962218244559
    outer loop
      vertex -0.0075130000831559298 -0.014525996357202531 0.0019350011870265006
      vertex -0.003408000257797539 -0.020591998308897019 -0.0024559994190931321
      vertex -0.0070819998281076548 -0.021135995000600816 0.0026660009324550628
    endloop
  endfacet
  facet normal 0.13654279856581156 -0.28034768713791414 0.95013748398652198
    outer loop
      vertex 0.0029669998485478584 -0.015901999384164811 0.011386000843136571
      vertex -0.0023740003006532786 -0.015608997851610185 0.012240000841207802
      vertex -0.00010100022237747881 -0.022035995334386826 0.010017000794410705
    endloop
  endfacet
  facet normal 0.28442626160905465 -0.22199494020649529 0.93264138243475558
    outer loop
      vertex -0.002377000090666115 -0.021838994532823564 0.010758000848814845
      vertex -0.00010100022237747881 -0.022035995334386826 0.010017000794410705
      vertex -0.0023740003006532786 -0.015608997851610185 0.012240000841207802
    endloop
  endfacet
  facet normal -0.99790441714237754 -0.064058093552795972 0.0091287949978571831
    outer loop
      vertex -0.0075130000831559298 -0.014525996357202531 0.0019350011870265006
      vertex -0.0070819998281076548 -0.021135995000600816 0.0026660009324550628
      vertex -0.007385000039823353 -0.015761995524168015 0.0072540009431540965
    endloop
  endfacet
  facet normal -0.98859239922372621 -0.1260813844836407 0.08239267372627869
    outer loop
      vertex -0.0065870000170543787 -0.021888995379209519 0.0074530008286237716
      vertex -0.007385000039823353 -0.015761995524168015 0.0072540009431540965
      vertex -0.0070819998281076548 -0.021135995000600816 0.0026660009324550628
    endloop
  endfacet
  facet normal -0.69292590614019411 -0.16654265510752553 0.70151067891339092
    outer loop
      vertex -0.0023740003006532786 -0.015608997851610185 0.012240000841207802
      vertex -0.007385000039823353 -0.015761995524168015 0.0072540009431540965
      vertex -0.002377000090666115 -0.021838994532823564 0.010758000848814845
    endloop
  endfacet
  facet normal -0.61616362949233283 -0.054731771031886339 0.78571420690385163
    outer loop
      vertex -0.002377000090666115 -0.021838994532823564 0.010758000848814845
      vertex -0.007385000039823353 -0.015761995524168015 0.0072540009431540965
      vertex -0.0065870000170543787 -0.021888995379209519 0.0074530008286237716
    endloop
  endfacet
  facet normal 0.86251843183547783 0.051187441566880175 -0.50343003542687592
    outer loop
      vertex 0.0039069998539052898 -0.0079529972970485696 -0.0022939995825290681
      vertex 0.0058869997384026641 -0.0081919970214366922 0.0010740009173750877
      vertex 0.004979999816976487 -0.014900000602006913 -0.0011619993448257447
    endloop
  endfacet
  facet normal 0.96583021645601075 -0.045543958086467974 -0.25514258927578837
    outer loop
      vertex 0.0057979997592046851 -0.014885993510484696 0.0019320004656910895
      vertex 0.004979999816976487 -0.014900000602006913 -0.0011619993448257447
      vertex 0.0058869997384026641 -0.0081919970214366922 0.0010740009173750877
    endloop
  endfacet
  facet normal 0.65676755671750908 -0.021387435796999955 -0.75378972799670252
    outer loop
      vertex 0.0039069998539052898 -0.0079529972970485696 -0.0022939995825290681
      vertex 0.004979999816976487 -0.014900000602006913 -0.0011619993448257447
      vertex 0.0017319998815655711 -0.014615999370813371 -0.0039999990686774255
    endloop
  endfacet
  facet normal 0.98736704797149333 0.0071609285512239705 0.15828781912182363
    outer loop
      vertex 0.0058869997384026641 -0.0081919970214366922 0.0010740009173750877
      vertex 0.0049779998017475003 -0.0089179964959621438 0.0067770008035004138
      vertex 0.0057979997592046851 -0.014885993510484696 0.0019320004656910895
    endloop
  endfacet
  facet normal 0.99148743546057327 0.034250406089750926 0.1256167783638113
    outer loop
      vertex 0.0051869997633621091 -0.015621000736951829 0.0069550007618963718
      vertex 0.0057979997592046851 -0.014885993510484696 0.0019320004656910895
      vertex 0.0049779998017475003 -0.0089179964959621438 0.0067770008035004138
    endloop
  endfacet
  facet normal 0.055907413841887715 0.23048557828169464 -0.97146835217708694
    outer loop
      vertex 0.0039069998539052898 -0.0079529972970485696 -0.0022939995825290681
      vertex 0.0017319998815655711 -0.014615999370813371 -0.0039999990686774255
      vertex -0.0037049999581649897 -0.0079190002977848062 -0.002723999597132206
    endloop
  endfacet
  facet normal 0.0098307901651132675 0.19485278060936478 -0.98078323265313216
    outer loop
      vertex -0.0044270003335550425 -0.014264995068311692 -0.0039919990077614785
      vertex -0.0037049999581649897 -0.0079190002977848062 -0.002723999597132206
      vertex 0.0017319998815655711 -0.014615999370813371 -0.0039999990686774255
    endloop
  endfacet
  facet normal 0.89399854164754822 -0.059041098556137553 0.44416298383964992
    outer loop
      vertex 0.0029669998485478584 -0.015901999384164811 0.011386000843136571
      vertex 0.0051869997633621091 -0.015621000736951829 0.0069550007618963718
      vertex 0.0034649998352397245 -0.0089179964959621438 0.011312000847188756
    endloop
  endfacet
  facet normal 0.94791611408934273 0.037954182646153585 0.3162507243777038
    outer loop
      vertex 0.0049779998017475003 -0.0089179964959621438 0.0067770008035004138
      vertex 0.0034649998352397245 -0.0089179964959621438 0.011312000847188756
      vertex 0.0051869997633621091 -0.015621000736951829 0.0069550007618963718
    endloop
  endfacet
  facet normal -0.87440479990907938 0.1887910402624102 -0.44696105983922058
    outer loop
      vertex -0.0044270003335550425 -0.014264995068311692 -0.0039919990077614785
      vertex -0.0075130000831559298 -0.014525996357202531 0.0019350011870265006
      vertex -0.0037049999581649897 -0.0079190002977848062 -0.002723999597132206
    endloop
  endfacet
  facet normal -0.86524724794441854 0.16481226140409322 -0.4734808532723141
    outer loop
      vertex -0.0067879999177530405 -0.0079819949567317972 0.002888001225888729
      vertex -0.0037049999581649897 -0.0079190002977848062 -0.002723999597132206
      vertex -0.0075130000831559298 -0.014525996357202531 0.0019350011870265006
    endloop
  endfacet
  facet normal 0.13636599076735681 0.00077297262708679311 0.99065822515908819
    outer loop
      vertex 0.0034649998352397245 -0.0089179964959621438 0.011312000847188756
      vertex -0.0020250002043321726 -0.0092909949123859414 0.012068000841187313
      vertex 0.0029669998485478584 -0.015901999384164811 0.011386000843136571
    endloop
  endfacet
  facet normal 0.1588317969286383 0.018099979161906119 0.98713973227641816
    outer loop
      vertex -0.0023740003006532786 -0.015608997851610185 0.012240000841207802
      vertex 0.0029669998485478584 -0.015901999384164811 0.011386000843136571
      vertex -0.0020250002043321726 -0.0092909949123859414 0.012068000841187313
    endloop
  endfacet
  facet normal -0.99375843742155912 0.10099061166610135 0.047382110640702871
    outer loop
      vertex -0.007385000039823353 -0.015761995524168015 0.0072540009431540965
      vertex -0.0067390002431347963 -0.0096379982531070718 0.007750000761821866
      vertex -0.0075130000831559298 -0.014525996357202531 0.0019350011870265006
    endloop
  endfacet
  facet normal -0.99360032052698866 0.10348804939772638 0.045261757373296879
    outer loop
      vertex -0.0067879999177530405 -0.0079819949567317972 0.002888001225888729
      vertex -0.0075130000831559298 -0.014525996357202531 0.0019350011870265006
      vertex -0.0067390002431347963 -0.0096379982531070718 0.007750000761821866
    endloop
  endfacet
  facet normal -0.70549525661784196 0.017036100487885942 0.70850985467380212
    outer loop
      vertex -0.007385000039823353 -0.015761995524168015 0.0072540009431540965
      vertex -0.0023740003006532786 -0.015608997851610185 0.012240000841207802
      vertex -0.0067390002431347963 -0.0096379982531070718 0.007750000761821866
    endloop
  endfacet
  facet normal -0.67663597776025775 0.057361129119262895 0.73408000549434882
    outer loop
      vertex -0.0067390002431347963 -0.0096379982531070718 0.007750000761821866
      vertex -0.0023740003006532786 -0.015608997851610185 0.012240000841207802
      vertex -0.0020250002043321726 -0.0092909949123859414 0.012068000841187313
    endloop
  endfacet
  facet normal -0.010905492399358004 0.96302478856587037 0.26919198881688156
    outer loop
      vertex 0.0039069998539052898 -0.0079529972970485696 -0.0022939995825290681
      vertex -0.0037049999581649897 -0.0079190002977848062 -0.002723999597132206
      vertex 0.00030599984992295531 -0.0096619965732097635 0.0036740011572837829
    endloop
  endfacet
  facet normal -0.17528231259191251 0.96940610283984507 0.17183689554136825
    outer loop
      vertex 0.0058869997384026641 -0.0081919970214366922 0.0010740009173750877
      vertex 0.0039069998539052898 -0.0079529972970485696 -0.0022939995825290681
      vertex 0.00030599984992295531 -0.0096619965732097635 0.0036740011572837829
    endloop
  endfacet
  facet normal -0.21442182692299749 0.97261920468300267 0.089639069723014775
    outer loop
      vertex 0.0049779998017475003 -0.0089179964959621438 0.0067770008035004138
      vertex 0.0058869997384026641 -0.0081919970214366922 0.0010740009173750877
      vertex 0.00030599984992295531 -0.0096619965732097635 0.0036740011572837829
    endloop
  endfacet
  facet normal -0.12914683085231937 0.99068895927986278 -0.043086912650881756
    outer loop
      vertex 0.0034649998352397245 -0.0089179964959621438 0.011312000847188756
      vertex 0.0049779998017475003 -0.0089179964959621438 0.0067770008035004138
      vertex 0.00030599984992295531 -0.0096619965732097635 0.0036740011572837829
    endloop
  endfacet
  facet normal 0.21496941614566803 0.96806869500561066 0.12896182331265468
    outer loop
      vertex -0.0037049999581649897 -0.0079190002977848062 -0.002723999597132206
      vertex -0.0067879999177530405 -0.0079819949567317972 0.002888001225888729
      vertex 0.00030599984992295531 -0.0096619965732097635 0.0036740011572837829
    endloop
  endfacet
  facet normal -0.076580675796162054 0.99492666718364753 -0.065240532044447616
    outer loop
      vertex -0.0020250002043321726 -0.0092909949123859414 0.012068000841187313
      vertex 0.0034649998352397245 -0.0089179964959621438 0.011312000847188756
      vertex 0.00030599984992295531 -0.0096619965732097635 0.0036740011572837829
    endloop
  endfacet
  facet normal 0.18550072443478322 0.93073913891268156 0.31514145479490718
    outer loop
      vertex -0.0067879999177530405 -0.0079819949567317972 0.002888001225888729
      vertex -0.0067390002431347963 -0.0096379982531070718 0.007750000761821866
      vertex 0.00030599984992295531 -0.0096619965732097635 0.0036740011572837829
    endloop
  endfacet
  facet normal -0.026364058505246285 0.99832773578210676 -0.051445781044745252
    outer loop
      vertex -0.0067390002431347963 -0.0096379982531070718 0.007750000761821866
      vertex -0.0020250002043321726 -0.0092909949123859414 0.012068000841187313
      vertex 0.00030599984992295531 -0.0096619965732097635 0.0036740011572837829
    endloop
  endfacet
endsolid OBJECT
