solid OBJECT
  facet normal -0.0088076325541730192 0.9264161314651761 0.37639816281417765
    outer loop
      vertex -0.00097999968379735951 -0.0049080054014921139 0.010463999256491883
      vertex 0.002029999952763319 -0.0031250069588422726 0.0061459985077383355
      vertex -0.0038589997198432684 -0.0030400107353925655 0.0057989988923075036
    endloop
  endfacet
  facet normal 0.012932345099641784 0.99959449114748089 0.02536942486207559
    outer loop
      vertex 0.00050100018456578251 -0.0030000011175870846 0.0020000000000002221
      vertex -0.0038589997198432684 -0.0030400107353925655 0.0057989988923075036
      vertex 0.002029999952763319 -0.0031250069588422726 0.0061459985077383355
    endloop
  endfacet
  facet normal 0.83983884845951007 -0.16665753550046325 0.51661975811917571
    outer loop
      vertex 0.002029999952763319 -0.0031250069588422726 0.0061459985077383355
      vertex -0.00097999968379735951 -0.0049080054014921139 0.010463999256491883
      vertex 0.0016269999109208583 -0.0061850051134824703 0.0058140006363394097
    endloop
  endfacet
  facet normal 0.79342847822392892 -0.30281355023472956 0.5279916701402585
    outer loop
      vertex -0.0013109996430575848 -0.0072870055884122799 0.0095969994068147973
      vertex 0.0016269999109208583 -0.0061850051134824703 0.0058140006363394097
      vertex -0.00097999968379735951 -0.0049080054014921139 0.010463999256491883
    endloop
  endfacet
  facet normal -0.85991164069818993 -0.059164379290413939 0.5070025112511054
    outer loop
      vertex -0.0038589997198432684 -0.0030400107353925655 0.0057989988923075036
      vertex -0.0040299998577684164 -0.0062790016382932613 0.0051309984624388055
      vertex -0.00097999968379735951 -0.0049080054014921139 0.010463999256491883
    endloop
  endfacet
  facet normal -0.85882153410135353 -0.065661538037417089 0.50804934306261917
    outer loop
      vertex -0.0013109996430575848 -0.0072870055884122799 0.0095969994068147973
      vertex -0.00097999968379735951 -0.0049080054014921139 0.010463999256491883
      vertex -0.0040299998577684164 -0.0062790016382932613 0.0051309984624388055
    endloop
  endfacet
  facet normal 0.91612093388013016 -0.13018169409047156 -0.37917695213492714
    outer loop
      vertex 3.9000391960144001e-05 -0.0064580092877149532 0.0020710003077986077
      vertex 0.00050100018456578251 -0.0030000011175870846 0.0020000000000002221
      vertex 0.0016269999109208583 -0.0061850051134824703 0.0058140006363394097
    endloop
  endfacet
  facet normal 0.93396891873833632 -0.085353818816279223 -0.34701121659713091
    outer loop
      vertex 0.002029999952763319 -0.0031250069588422726 0.0061459985077383355
      vertex 0.0016269999109208583 -0.0061850051134824703 0.0058140006363394097
      vertex 0.00050100018456578251 -0.0030000011175870846 0.0020000000000002221
    endloop
  endfacet
  facet normal -0.65559992020404079 0.072156983473787961 -0.75165292147667395
    outer loop
      vertex 0.00050100018456578251 -0.0030000011175870846 0.0020000000000002221
      vertex 3.9000391960144001e-05 -0.0064580092877149532 0.0020710003077986077
      vertex -0.0038589997198432684 -0.0030400107353925655 0.0057989988923075036
    endloop
  endfacet
  facet normal -0.58423978476262373 0.19340077494041549 -0.78820049108901835
    outer loop
      vertex -0.0040299998577684164 -0.0062790016382932613 0.0051309984624388055
      vertex -0.0038589997198432684 -0.0030400107353925655 0.0057989988923075036
      vertex 3.9000391960144001e-05 -0.0064580092877149532 0.0020710003077986077
    endloop
  endfacet
  facet normal 0.79627119098829025 -0.27733796717626158 0.53762053752124117
    outer loop
      vertex 0.0016269999109208583 -0.0061850051134824703 0.0058140006363394097
      vertex -0.0013109996430575848 -0.0072870055884122799 0.0095969994068147973
      vertex 0.00041300044581294056 -0.0089940081089734981 0.0061630007326605157
    endloop
  endfacet
  facet normal 0.7857019621255692 -0.29753269432322038 0.54235295013560625
    outer loop
      vertex 0.00041300044581294056 -0.0089940081089734981 0.0061630007326605157
      vertex -0.0013109996430575848 -0.0072870055884122799 0.0095969994068147973
      vertex -0.0019409997835755349 -0.0097600023001432369 0.0091529988199474648
    endloop
  endfacet
  facet normal -0.85845313989191274 -0.057575340431137587 0.50965016117328432
    outer loop
      vertex -0.0040299998577684164 -0.0062790016382932613 0.0051309984624388055
      vertex -0.0035859997365623713 -0.0094380031079053829 0.005521997481584771
      vertex -0.0013109996430575848 -0.0072870055884122799 0.0095969994068147973
    endloop
  endfacet
  facet normal -0.89502541515909795 0.15277622111174513 0.41903333099181933
    outer loop
      vertex -0.0019409997835755349 -0.0097600023001432369 0.0091529988199474648
      vertex -0.0013109996430575848 -0.0072870055884122799 0.0095969994068147973
      vertex -0.0035859997365623713 -0.0094380031079053829 0.005521997481584771
    endloop
  endfacet
  facet normal 0.80201611204182266 -0.51491703219428131 -0.30270547729030617
    outer loop
      vertex 3.9000391960144001e-05 -0.0064580092877149532 0.0020710003077986077
      vertex 0.0016269999109208583 -0.0061850051134824703 0.0058140006363394097
      vertex -0.0012219996638596058 -0.0093380014151334713 0.0036289986670019463
    endloop
  endfacet
  facet normal 0.79390282711153248 -0.40000675722532192 -0.45794420542070241
    outer loop
      vertex 0.00041300044581294056 -0.0089940081089734981 0.0061630007326605157
      vertex -0.0012219996638596058 -0.0093380014151334713 0.0036289986670019463
      vertex 0.0016269999109208583 -0.0061850051134824703 0.0058140006363394097
    endloop
  endfacet
  facet normal -0.59756445373114531 -0.16305711365218251 -0.78506630377594022
    outer loop
      vertex 3.9000391960144001e-05 -0.0064580092877149532 0.0020710003077986077
      vertex -0.0012219996638596058 -0.0093380014151334713 0.0036289986670019463
      vertex -0.0040299998577684164 -0.0062790016382932613 0.0051309984624388055
    endloop
  endfacet
  facet normal -0.61002612873925799 -0.18121579669753066 -0.77138120101715812
    outer loop
      vertex -0.0035859997365623713 -0.0094380031079053829 0.005521997481584771
      vertex -0.0040299998577684164 -0.0062790016382932613 0.0051309984624388055
      vertex -0.0012219996638596058 -0.0093380014151334713 0.0036289986670019463
    endloop
  endfacet
  facet normal 0.79408178516808836 -0.100303856316781 0.59947748487515751
    outer loop
      vertex 0.00041300044581294056 -0.0089940081089734981 0.0061630007326605157
      vertex -0.0019409997835755349 -0.0097600023001432369 0.0091529988199474648
      vertex -8.3999846130609554e-05 -0.012068013355135913 0.0063069999665024117
    endloop
  endfacet
  facet normal 0.71057938533480758 -0.24266884030397823 0.66044588808071869
    outer loop
      vertex -0.002177999958395958 -0.012057001397013659 0.0085639987587930993
      vertex -8.3999846130609554e-05 -0.012068013355135913 0.0063069999665024117
      vertex -0.0019409997835755349 -0.0097600023001432369 0.0091529988199474648
    endloop
  endfacet
  facet normal -0.84889363809912499 0.13667907897048923 0.5105863497652583
    outer loop
      vertex -0.0038519996665418148 -0.012674013778567309 0.0059459988474848107
      vertex -0.002177999958395958 -0.012057001397013659 0.0085639987587930993
      vertex -0.0035859997365623713 -0.0094380031079053829 0.005521997481584771
    endloop
  endfacet
  facet normal -0.91120572786266929 -0.011575015771923861 0.41178895143039296
    outer loop
      vertex -0.0019409997835755349 -0.0097600023001432369 0.0091529988199474648
      vertex -0.0035859997365623713 -0.0094380031079053829 0.005521997481584771
      vertex -0.002177999958395958 -0.012057001397013659 0.0085639987587930993
    endloop
  endfacet
  facet normal 0.83919834120994885 -0.16002739454710019 -0.51974741664094581
    outer loop
      vertex 0.00041300044581294056 -0.0089940081089734981 0.0061630007326605157
      vertex -8.3999846130609554e-05 -0.012068013355135913 0.0063069999665024117
      vertex -0.0012219996638596058 -0.0093380014151334713 0.0036289986670019463
    endloop
  endfacet
  facet normal 0.76852974275793029 -0.25518431929352142 -0.58672224918025029
    outer loop
      vertex -0.0018479997739195824 -0.012681002423167224 0.0042629983723165826
      vertex -0.0012219996638596058 -0.0093380014151334713 0.0036289986670019463
      vertex -8.3999846130609554e-05 -0.012068013355135913 0.0063069999665024117
    endloop
  endfacet
  facet normal -0.62394613991968606 -0.03124840750066276 -0.78084233460282881
    outer loop
      vertex -0.0012219996638596058 -0.0093380014151334713 0.0036289986670019463
      vertex -0.0018479997739195824 -0.012681002423167224 0.0042629983723165826
      vertex -0.0035859997365623713 -0.0094380031079053829 0.005521997481584771
    endloop
  endfacet
  facet normal -0.64248560904472762 -0.04740033265989723 -0.76483034107843606
    outer loop
      vertex -0.0038519996665418148 -0.012674013778567309 0.0059459988474848107
      vertex -0.0035859997365623713 -0.0094380031079053829 0.005521997481584771
      vertex -0.0018479997739195824 -0.012681002423167224 0.0042629983723165826
    endloop
  endfacet
  facet normal 0.73195121259651541 0.058943521371545224 0.67880268389776799
    outer loop
      vertex -8.3999846130609554e-05 -0.012068013355135913 0.0063069999665024117
      vertex -0.002177999958395958 -0.012057001397013659 0.0085639987587930993
      vertex -0.00047399955615401272 -0.015033001706004138 0.0069849990755321816
    endloop
  endfacet
  facet normal 0.88411809974408961 0.33151315686913979 0.32929350514025757
    outer loop
      vertex -0.0014689999148249627 -0.014518002673983569 0.0091379989385607079
      vertex -0.00047399955615401272 -0.015033001706004138 0.0069849990755321816
      vertex -0.002177999958395958 -0.012057001397013659 0.0085639987587930993
    endloop
  endfacet
  facet normal -0.76511864670975327 0.10956777334412998 0.63449851024367676
    outer loop
      vertex -0.003999999862164259 -0.015937010452151294 0.0063309982866051034
      vertex -0.0014689999148249627 -0.014518002673983569 0.0091379989385607079
      vertex -0.0038519996665418148 -0.012674013778567309 0.0059459988474848107
    endloop
  endfacet
  facet normal -0.82566586405260955 -0.10875383343350091 0.55357789393343371
    outer loop
      vertex -0.002177999958395958 -0.012057001397013659 0.0085639987587930993
      vertex -0.0038519996665418148 -0.012674013778567309 0.0059459988474848107
      vertex -0.0014689999148249627 -0.014518002673983569 0.0091379989385607079
    endloop
  endfacet
  facet normal 0.88299103241185517 -0.026533463464667513 -0.46863931972980594
    outer loop
      vertex -0.0018129997402429581 -0.016497010990977282 0.004544999122619851
      vertex -0.0018479997739195824 -0.012681002423167224 0.0042629983723165826
      vertex -0.00047399955615401272 -0.015033001706004138 0.0069849990755321816
    endloop
  endfacet
  facet normal 0.76952165282275764 -0.23683775095548376 -0.59308035337488596
    outer loop
      vertex -0.0018479997739195824 -0.012681002423167224 0.0042629983723165826
      vertex -8.3999846130609554e-05 -0.012068013355135913 0.0063069999665024117
      vertex -0.00047399955615401272 -0.015033001706004138 0.0069849990755321816
    endloop
  endfacet
  facet normal -0.64083039600626834 -0.06242105643150677 -0.7651405199493907
    outer loop
      vertex -0.0018129997402429581 -0.016497010990977282 0.004544999122619851
      vertex -0.003999999862164259 -0.015937010452151294 0.0063309982866051034
      vertex -0.0018479997739195824 -0.012681002423167224 0.0042629983723165826
    endloop
  endfacet
  facet normal -0.6420367568257378 -0.061051271343638747 -0.76423919367696247
    outer loop
      vertex -0.0038519996665418148 -0.012674013778567309 0.0059459988474848107
      vertex -0.0018479997739195824 -0.012681002423167224 0.0042629983723165826
      vertex -0.003999999862164259 -0.015937010452151294 0.0063309982866051034
    endloop
  endfacet
  facet normal 0.92930745028738571 0.16960963730319778 0.32805522976205659
    outer loop
      vertex -7.9999815672636074e-05 -0.018037001296877856 0.0074219998419287041
      vertex -0.00047399955615401272 -0.015033001706004138 0.0069849990755321816
      vertex -0.0010029996261000634 -0.016970003649592395 0.0094849985539915398
    endloop
  endfacet
  facet normal 0.90406336099341356 0.2233817230308015 0.36437624116438089
    outer loop
      vertex -0.0014689999148249627 -0.014518002673983569 0.0091379989385607079
      vertex -0.0010029996261000634 -0.016970003649592395 0.0094849985539915398
      vertex -0.00047399955615401272 -0.015033001706004138 0.0069849990755321816
    endloop
  endfacet
  facet normal -0.72614432748452373 -0.0076279123064481747 0.68749998590246819
    outer loop
      vertex -0.0031869999580085278 -0.018884013101458545 0.0071569994539024667
      vertex -0.0010029996261000634 -0.016970003649592395 0.0094849985539915398
      vertex -0.003999999862164259 -0.015937010452151294 0.0063309982866051034
    endloop
  endfacet
  facet normal -0.73119255459409416 -0.042612174786121816 0.6808389315147596
    outer loop
      vertex -0.0014689999148249627 -0.014518002673983569 0.0091379989385607079
      vertex -0.003999999862164259 -0.015937010452151294 0.0063309982866051034
      vertex -0.0010029996261000634 -0.016970003649592395 0.0094849985539915398
    endloop
  endfacet
  facet normal 0.83393774727547487 -0.081278904566011168 -0.54584024525648123
    outer loop
      vertex -0.0015119995437562466 -0.019896010562777514 0.0055110004246237115
      vertex -0.0018129997402429581 -0.016497010990977282 0.004544999122619851
      vertex -7.9999815672636074e-05 -0.018037001296877856 0.0074219998419287041
    endloop
  endfacet
  facet normal 0.8653981583373862 0.040852584011988019 -0.49941675374961525
    outer loop
      vertex -0.00047399955615401272 -0.015033001706004138 0.0069849990755321816
      vertex -7.9999815672636074e-05 -0.018037001296877856 0.0074219998419287041
      vertex -0.0018129997402429581 -0.016497010990977282 0.004544999122619851
    endloop
  endfacet
  facet normal -0.6430696691804324 -0.36595624285094747 -0.6727090224596276
    outer loop
      vertex -0.003999999862164259 -0.015937010452151294 0.0063309982866051034
      vertex -0.0018129997402429581 -0.016497010990977282 0.004544999122619851
      vertex -0.0031869999580085278 -0.018884013101458545 0.0071569994539024667
    endloop
  endfacet
  facet normal -0.75044727150430146 -0.24132486437453085 -0.6152976536005671
    outer loop
      vertex -0.0031869999580085278 -0.018884013101458545 0.0071569994539024667
      vertex -0.0018129997402429581 -0.016497010990977282 0.004544999122619851
      vertex -0.0015119995437562466 -0.019896010562777514 0.0055110004246237115
    endloop
  endfacet
  facet normal 0.92928666868379339 0.16371507947704114 0.33109463927765992
    outer loop
      vertex -0.0010029996261000634 -0.016970003649592395 0.0094849985539915398
      vertex -0.00066099981591105465 -0.019429008170962329 0.0097409986406566933
      vertex -7.9999815672636074e-05 -0.018037001296877856 0.0074219998419287041
    endloop
  endfacet
  facet normal 0.91617356314984866 -0.40063220866624355 -0.010946943158610365
    outer loop
      vertex -0.0012819996550679207 -0.02080299954116344 0.0080529988259079293
      vertex -7.9999815672636074e-05 -0.018037001296877856 0.0074219998419287041
      vertex -0.00066099981591105465 -0.019429008170962329 0.0097409986406566933
    endloop
  endfacet
  facet normal -0.72751725772653109 -0.0043289945529974396 0.68607572433094288
    outer loop
      vertex -0.0031869999580085278 -0.018884013101458545 0.0071569994539024667
      vertex -0.0017729999013245106 -0.021168003484606738 0.0086419988870622948
      vertex -0.0010029996261000634 -0.016970003649592395 0.0094849985539915398
    endloop
  endfacet
  facet normal -0.68688330153547383 -0.019898746643245108 0.72649526492177152
    outer loop
      vertex -0.00066099981591105465 -0.019429008170962329 0.0097409986406566933
      vertex -0.0010029996261000634 -0.016970003649592395 0.0094849985539915398
      vertex -0.0017729999013245106 -0.021168003484606738 0.0086419988870622948
    endloop
  endfacet
  facet normal 0.87137843840255813 -0.43180163819005973 -0.23290977296691451
    outer loop
      vertex -0.0015119995437562466 -0.019896010562777514 0.0055110004246237115
      vertex -7.9999815672636074e-05 -0.018037001296877856 0.0074219998419287041
      vertex -0.0012819996550679207 -0.02080299954116344 0.0080529988259079293
    endloop
  endfacet
  facet normal -0.64539182995579614 -0.73604406352202423 -0.20422664463848847
    outer loop
      vertex -0.0015119995437562466 -0.019896010562777514 0.0055110004246237115
      vertex -0.0012819996550679207 -0.02080299954116344 0.0080529988259079293
      vertex -0.0031869999580085278 -0.018884013101458545 0.0071569994539024667
    endloop
  endfacet
  facet normal -0.33449262773180538 -0.650454797445703 -0.68192612391148444
    outer loop
      vertex -0.0017729999013245106 -0.021168003484606738 0.0086419988870622948
      vertex -0.0031869999580085278 -0.018884013101458545 0.0071569994539024667
      vertex -0.0012819996550679207 -0.02080299954116344 0.0080529988259079293
    endloop
  endfacet
  facet normal 0.74512620752876524 -0.62446056519473314 0.23417074405329524
    outer loop
      vertex -0.0012819996550679207 -0.02080299954116344 0.0080529988259079293
      vertex -0.00066099981591105465 -0.019429008170962329 0.0097409986406566933
      vertex -0.0017729999013245106 -0.021168003484606738 0.0086419988870622948
    endloop
  endfacet
endsolid OBJECT
