solid OBJECT
  facet normal -0.0784031399315889 -0.051379069912257241 0.99559687565993227
    outer loop
      vertex 0.0027140001214575023 -0.036555996077135208 -0.0031699999235570431
      vertex 0.0072050001211464406 -0.0041309965597465638 -0.001142999972216785
      vertex -0.003266999989748001 -0.0048350019203498963 -0.0020039998926222324
    endloop
  endfacet
  facet normal -0.063539832889652398 0.99707567157350618 -0.042459331042733327
    outer loop
      vertex 0.0072050001211464406 -0.0041309965597465638 -0.001142999972216785
      vertex 0.0063130000811070204 -0.0044559908853843812 -0.0074399998411536217
      vertex -0.003266999989748001 -0.0048350019203498963 -0.0020039998926222324
    endloop
  endfacet
  facet normal -0.068272610179302307 0.99637001515784962 -0.050849224120443272
    outer loop
      vertex 0.0063130000811070204 -0.0044559908853843812 -0.0074399998411536217
      vertex 0.0010460000224411488 -0.0050489976126700644 -0.011988000012934208
      vertex -0.003266999989748001 -0.0048350019203498963 -0.0020039998926222324
    endloop
  endfacet
  facet normal -0.027085072926788887 0.99908448690237972 -0.033114752838571487
    outer loop
      vertex -0.0036869999282062053 -0.0050159915406256918 -0.0071209999732673168
      vertex -0.003266999989748001 -0.0048350019203498963 -0.0020039998926222324
      vertex 0.0010460000224411488 -0.0050489976126700644 -0.011988000012934208
    endloop
  endfacet
  facet normal 0.959844313282609 -0.25215381918933799 -0.12295261578050129
    outer loop
      vertex 0.0063130000811070204 -0.0044559908853843812 -0.0074399998411536217
      vertex 0.0072050001211464406 -0.0041309965597465638 -0.001142999972216785
      vertex 0.0050950001198798419 -0.0096989943701773877 -0.0061960001476109028
    endloop
  endfacet
  facet normal 0.93476322153409486 -0.35526948503375294 0.0011457185748981861
    outer loop
      vertex 0.0051200000774115325 -0.0096159949023276563 -0.00085599999874830246
      vertex 0.0050950001198798419 -0.0096989943701773877 -0.0061960001476109028
      vertex 0.0072050001211464406 -0.0041309965597465638 -0.001142999972216785
    endloop
  endfacet
  facet normal 0.46786311300037986 -0.13212294452981707 0.87386934665450111
    outer loop
      vertex 0.0072050001211464406 -0.0041309965597465638 -0.001142999972216785
      vertex 0.0024810001226142049 -0.0040000004516914491 0.0014059999957680702
      vertex 0.0051200000774115325 -0.0096159949023276563 -0.00085599999874830246
    endloop
  endfacet
  facet normal 0.55403478642462156 -0.073650132259587706 0.8292292285306696
    outer loop
      vertex 0.002405000125989318 -0.0089739932734519239 0.00101500004529953
      vertex 0.0051200000774115325 -0.0096159949023276563 -0.00085599999874830246
      vertex 0.0024810001226142049 -0.0040000004516914491 0.0014059999957680702
    endloop
  endfacet
  facet normal 0.65573001665988084 -0.043255002554441119 -0.75375536482684335
    outer loop
      vertex 0.0010460000224411488 -0.0050489976126700644 -0.011988000012934208
      vertex 0.0063130000811070204 -0.0044559908853843812 -0.0074399998411536217
      vertex 0.0020470001357607544 -0.010488994332030415 -0.010804999619722366
    endloop
  endfacet
  facet normal 0.81743985918490136 -0.30572933293029109 -0.48818198615041902
    outer loop
      vertex 0.0050950001198798419 -0.0096989943701773877 -0.0061960001476109028
      vertex 0.0020470001357607544 -0.010488994332030415 -0.010804999619722366
      vertex 0.0063130000811070204 -0.0044559908853843812 -0.0074399998411536217
    endloop
  endfacet
  facet normal -0.64278357939867248 -0.27385568003627619 -0.71542458482169835
    outer loop
      vertex 0.0020470001357607544 -0.010488994332030415 -0.010804999619722366
      vertex -0.0027700001634657382 -0.010308988304808735 -0.0065460000187158585
      vertex 0.0010460000224411488 -0.0050489976126700644 -0.011988000012934208
    endloop
  endfacet
  facet normal -0.7036521150679923 -0.19609770002239651 -0.68294904129537171
    outer loop
      vertex -0.0036869999282062053 -0.0050159915406256918 -0.0071209999732673168
      vertex 0.0010460000224411488 -0.0050489976126700644 -0.011988000012934208
      vertex -0.0027700001634657382 -0.010308988304808735 -0.0065460000187158585
    endloop
  endfacet
  facet normal -0.98317465110592916 -0.16094777569682472 0.086391081258304248
    outer loop
      vertex -0.0036869999282062053 -0.0050159915406256918 -0.0071209999732673168
      vertex -0.0027700001634657382 -0.010308988304808735 -0.0065460000187158585
      vertex -0.003266999989748001 -0.0048350019203498963 -0.0020039998926222324
    endloop
  endfacet
  facet normal -0.97961407206586593 -0.17327819219365093 0.10164122156208311
    outer loop
      vertex -0.002386000033468008 -0.0099499895293265576 -0.0022330000065267086
      vertex -0.003266999989748001 -0.0048350019203498963 -0.0020039998926222324
      vertex -0.0027700001634657382 -0.010308988304808735 -0.0065460000187158585
    endloop
  endfacet
  facet normal -0.50282596697243842 -0.0601011742068445 0.86229571250075865
    outer loop
      vertex 0.0024810001226142049 -0.0040000004516914491 0.0014059999957680702
      vertex -0.003266999989748001 -0.0048350019203498963 -0.0020039998926222324
      vertex 0.002405000125989318 -0.0089739932734519239 0.00101500004529953
    endloop
  endfacet
  facet normal -0.53810742867366657 -0.12996765572118749 0.8327957754891373
    outer loop
      vertex -0.002386000033468008 -0.0099499895293265576 -0.0022330000065267086
      vertex 0.002405000125989318 -0.0089739932734519239 0.00101500004529953
      vertex -0.003266999989748001 -0.0048350019203498963 -0.0020039998926222324
    endloop
  endfacet
  facet normal -0.10208027630044628 -0.8970986367947652 0.42987632297138484
    outer loop
      vertex 0.0060040000565350056 -0.035499995486810806 -0.00018499999714549631
      vertex 0.0036220001378096641 -0.034801995294168594 0.00070600002072751522
      vertex 0.0027140001214575023 -0.036555996077135208 -0.0031699999235570431
    endloop
  endfacet
  facet normal -0.49342372513646821 -0.74318120332107596 0.45190123534096283
    outer loop
      vertex 0.0036220001378096641 -0.034801995294168594 0.00070600002072751522
      vertex 0.0023180001038126648 -0.036210989492014053 -0.0030350000597536564
      vertex 0.0027140001214575023 -0.036555996077135208 -0.0031699999235570431
    endloop
  endfacet
  facet normal -0.638165189123994 -0.37760351795837888 -0.67094021687166239
    outer loop
      vertex 0.0044360001077875496 -0.03322599074430764 -0.0066820001229643822
      vertex 0.0027140001214575023 -0.036555996077135208 -0.0031699999235570431
      vertex -0.00014099993556737894 -0.03161898991651832 -0.0032329999376088381
    endloop
  endfacet
  facet normal -0.54699313529980698 -0.32615669215235527 -0.77098659009033432
    outer loop
      vertex 0.0023180001038126648 -0.036210989492014053 -0.0030350000597536564
      vertex -0.00014099993556737894 -0.03161898991651832 -0.0032329999376088381
      vertex 0.0027140001214575023 -0.036555996077135208 -0.0031699999235570431
    endloop
  endfacet
  facet normal 0.80578004804496428 -0.57329495831720201 -0.14849715465534319
    outer loop
      vertex 0.0044360001077875496 -0.03322599074430764 -0.0066820001229643822
      vertex 0.0068590000476688147 -0.031013987870886921 -0.002073999959975481
      vertex 0.0027140001214575023 -0.036555996077135208 -0.0031699999235570431
    endloop
  endfacet
  facet normal 0.6842637055398193 -0.38990754921512105 -0.61624287772433795
    outer loop
      vertex 0.0060040000565350056 -0.035499995486810806 -0.00018499999714549631
      vertex 0.0027140001214575023 -0.036555996077135208 -0.0031699999235570431
      vertex 0.0068590000476688147 -0.031013987870886921 -0.002073999959975481
    endloop
  endfacet
  facet normal 0.97893973092144626 -0.20414459346147062 -0.0014100297504715832
    outer loop
      vertex 0.0050950001198798419 -0.0096989943701773877 -0.0061960001476109028
      vertex 0.0051200000774115325 -0.0096159949023276563 -0.00085599999874830246
      vertex 0.0040010001715272666 -0.014954991551116108 -0.0047610001638531685
    endloop
  endfacet
  facet normal 0.98391028380619194 -0.096015866607155095 -0.15067019207559235
    outer loop
      vertex 0.0040010001715272666 -0.014954991551116108 -0.0047610001638531685
      vertex 0.0051200000774115325 -0.0096159949023276563 -0.00085599999874830246
      vertex 0.0046190001042559744 -0.015307001681998372 -0.00050099997315555811
    endloop
  endfacet
  facet normal 0.56263596182004139 -0.02848809223336048 0.82621377564631571
    outer loop
      vertex 0.002405000125989318 -0.0089739932734519239 0.00101500004529953
      vertex 0.0024910001405514777 -0.01417800030298531 0.00077699997927993536
      vertex 0.0051200000774115325 -0.0096159949023276563 -0.00085599999874830246
    endloop
  endfacet
  facet normal 0.51786263207537109 0.0077715546478824673 0.85542848750688893
    outer loop
      vertex 0.0046190001042559744 -0.015307001681998372 -0.00050099997315555811
      vertex 0.0051200000774115325 -0.0096159949023276563 -0.00085599999874830246
      vertex 0.0024910001405514777 -0.01417800030298531 0.00077699997927993536
    endloop
  endfacet
  facet normal 0.83247032301281132 -0.20215331459811042 -0.51587517744115485
    outer loop
      vertex 0.0020470001357607544 -0.010488994332030415 -0.010804999619722366
      vertex 0.0050950001198798419 -0.0096989943701773877 -0.0061960001476109028
      vertex 0.002001000076532364 -0.016016997309401631 -0.0087130004540085793
    endloop
  endfacet
  facet normal 0.88389423456919858 -0.2851800250952003 -0.37067955889424387
    outer loop
      vertex 0.0040010001715272666 -0.014954991551116108 -0.0047610001638531685
      vertex 0.002001000076532364 -0.016016997309401631 -0.0087130004540085793
      vertex 0.0050950001198798419 -0.0096989943701773877 -0.0061960001476109028
    endloop
  endfacet
  facet normal -0.55391647009155331 -0.047169575450878569 0.83123496997726065
    outer loop
      vertex 0.002405000125989318 -0.0089739932734519239 0.00101500004529953
      vertex -0.002386000033468008 -0.0099499895293265576 -0.0022330000065267086
      vertex 0.0024910001405514777 -0.01417800030298531 0.00077699997927993536
    endloop
  endfacet
  facet normal -0.44496671218890627 0.11866674443934087 0.8876501725386885
    outer loop
      vertex -0.0011380003094673156 -0.014844991179183125 -0.00095299998065456748
      vertex 0.0024910001405514777 -0.01417800030298531 0.00077699997927993536
      vertex -0.002386000033468008 -0.0099499895293265576 -0.0022330000065267086
    endloop
  endfacet
  facet normal -0.64406926162337674 -0.26605844245953403 -0.71720826224181566
    outer loop
      vertex 0.0020470001357607544 -0.010488994332030415 -0.010804999619722366
      vertex 0.002001000076532364 -0.016016997309401631 -0.0087130004540085793
      vertex -0.0027700001634657382 -0.010308988304808735 -0.0065460000187158585
    endloop
  endfacet
  facet normal -0.5711896172643548 -0.17279064671341646 -0.80242495819718818
    outer loop
      vertex -0.0018020002432167529 -0.015593998046591877 -0.0060970000922679901
      vertex -0.0027700001634657382 -0.010308988304808735 -0.0065460000187158585
      vertex 0.002001000076532364 -0.016016997309401631 -0.0087130004540085793
    endloop
  endfacet
  facet normal -0.96626657416365958 -0.2058985174764825 0.15470846180804651
    outer loop
      vertex -0.0011380003094673156 -0.014844991179183125 -0.00095299998065456748
      vertex -0.002386000033468008 -0.0099499895293265576 -0.0022330000065267086
      vertex -0.0018020002432167529 -0.015593998046591877 -0.0060970000922679901
    endloop
  endfacet
  facet normal -0.98005113803742283 -0.17088417363579519 0.10148086535088401
    outer loop
      vertex -0.0027700001634657382 -0.010308988304808735 -0.0065460000187158585
      vertex -0.0018020002432167529 -0.015593998046591877 -0.0060970000922679901
      vertex -0.002386000033468008 -0.0099499895293265576 -0.0022330000065267086
    endloop
  endfacet
  facet normal 0.74227489002459779 -0.37524820602358161 -0.5551727402485237
    outer loop
      vertex 0.0068590000476688147 -0.031013987870886921 -0.002073999959975481
      vertex 0.0096869999282062046 -0.031220994802191853 0.0018469999777153134
      vertex 0.0060040000565350056 -0.035499995486810806 -0.00018499999714549631
    endloop
  endfacet
  facet normal 0.67909056270162982 -0.69570305172198477 0.23416505177822974
    outer loop
      vertex 0.0059200001154094935 -0.034512987272813919 0.0029909999575465918
      vertex 0.0060040000565350056 -0.035499995486810806 -0.00018499999714549631
      vertex 0.0096869999282062046 -0.031220994802191853 0.0018469999777153134
    endloop
  endfacet
  facet normal -0.16829963552622348 -0.94258012973385641 0.28847518387661469
    outer loop
      vertex 0.0060040000565350056 -0.035499995486810806 -0.00018499999714549631
      vertex 0.0059200001154094935 -0.034512987272813919 0.0029909999575465918
      vertex 0.0036220001378096641 -0.034801995294168594 0.00070600002072751522
    endloop
  endfacet
  facet normal 0.026311460641692298 -0.99470465909734795 0.099349626113686987
    outer loop
      vertex 0.0044100001426413656 -0.034583991305902603 0.0026799999177455902
      vertex 0.0036220001378096641 -0.034801995294168594 0.00070600002072751522
      vertex 0.0059200001154094935 -0.034512987272813919 0.0029909999575465918
    endloop
  endfacet
  facet normal -0.63338278248355973 -0.17228224696323619 0.75441704529701736
    outer loop
      vertex 0.0013710001688450575 -0.030265994282439351 -0.00014800000644754618
      vertex 0.0036220001378096641 -0.034801995294168594 0.00070600002072751522
      vertex 0.0040450001573190094 -0.029433987947180867 0.0022869999520480633
    endloop
  endfacet
  facet normal -0.92667658739875181 -0.03713528145059905 0.37402068557579632
    outer loop
      vertex 0.0044100001426413656 -0.034583991305902603 0.0026799999177455902
      vertex 0.0040450001573190094 -0.029433987947180867 0.0022869999520480633
      vertex 0.0036220001378096641 -0.034801995294168594 0.00070600002072751522
    endloop
  endfacet
  facet normal -0.80180318789780691 -0.41064310320697267 0.43414731332286466
    outer loop
      vertex 0.0023180001038126648 -0.036210989492014053 -0.0030350000597536564
      vertex 0.0036220001378096641 -0.034801995294168594 0.00070600002072751522
      vertex -0.00014099993556737894 -0.03161898991651832 -0.0032329999376088381
    endloop
  endfacet
  facet normal -0.79893413016019643 -0.29813436827125406 0.52232188746085528
    outer loop
      vertex -0.00014099993556737894 -0.03161898991651832 -0.0032329999376088381
      vertex 0.0036220001378096641 -0.034801995294168594 0.00070600002072751522
      vertex 0.0013710001688450575 -0.030265994282439351 -0.00014800000644754618
    endloop
  endfacet
  facet normal -0.91830544561028471 -0.20559957996332295 0.33829561227039567
    outer loop
      vertex 0.00028600005619227892 -0.025177992792800068 -9.9999999747524271e-07
      vertex -0.00096500015631318086 -0.026255987497046589 -0.0040520001202821732
      vertex 0.0013710001688450575 -0.030265994282439351 -0.00014800000644754618
    endloop
  endfacet
  facet normal -0.88441441296058398 -0.065316045508945944 0.46210925152679988
    outer loop
      vertex -0.00014099993556737894 -0.03161898991651832 -0.0032329999376088381
      vertex 0.0013710001688450575 -0.030265994282439351 -0.00014800000644754618
      vertex -0.00096500015631318086 -0.026255987497046589 -0.0040520001202821732
    endloop
  endfacet
  facet normal -0.60241244802747362 -0.0026865533288040304 -0.79818044632323459
    outer loop
      vertex 0.0044360001077875496 -0.03322599074430764 -0.0066820001229643822
      vertex -0.00014099993556737894 -0.03161898991651832 -0.0032329999376088381
      vertex 0.0033160001360811294 -0.027491994114592671 -0.0058559998869895935
    endloop
  endfacet
  facet normal -0.42902307317561167 -0.20042361040670353 -0.88077782617099054
    outer loop
      vertex -0.00096500015631318086 -0.026255987497046589 -0.0040520001202821732
      vertex 0.0033160001360811294 -0.027491994114592671 -0.0058559998869895935
      vertex -0.00014099993556737894 -0.03161898991651832 -0.0032329999376088381
    endloop
  endfacet
  facet normal 0.8090212714365248 0.23559531879741724 -0.53849737986732327
    outer loop
      vertex 0.0044360001077875496 -0.03322599074430764 -0.0066820001229643822
      vertex 0.0033160001360811294 -0.027491994114592671 -0.0058559998869895935
      vertex 0.0068590000476688147 -0.031013987870886921 -0.002073999959975481
    endloop
  endfacet
  facet normal 0.78019071901784876 0.12714408371141353 -0.61248414178295019
    outer loop
      vertex 0.0052670000325888396 -0.025700993748381733 -0.0029990000184625387
      vertex 0.0068590000476688147 -0.031013987870886921 -0.002073999959975481
      vertex 0.0033160001360811294 -0.027491994114592671 -0.0058559998869895935
    endloop
  endfacet
  facet normal 0.94139192298818697 0.24098993578117778 -0.23601927502809453
    outer loop
      vertex 0.0052670000325888396 -0.025700993748381733 -0.0029990000184625387
      vertex 0.0066840003449469805 -0.026739992113783955 0.0015920000150799751
      vertex 0.0068590000476688147 -0.031013987870886921 -0.002073999959975481
    endloop
  endfacet
  facet normal 0.73099344877742722 0.46126740942643557 -0.5028727024262778
    outer loop
      vertex 0.0096869999282062046 -0.031220994802191853 0.0018469999777153134
      vertex 0.0068590000476688147 -0.031013987870886921 -0.002073999959975481
      vertex 0.0066840003449469805 -0.026739992113783955 0.0015920000150799751
    endloop
  endfacet
  facet normal 0.98107419141271868 0.031121843570549725 -0.19111478696493042
    outer loop
      vertex 0.005046000212430954 -0.021416999312117695 0.00069600000279024243
      vertex 0.0041140001006424428 -0.020419992418959736 -0.0039260000921785831
      vertex 0.0046190001042559744 -0.015307001681998372 -0.00050099997315555811
    endloop
  endfacet
  facet normal 0.98962189839931036 -0.0014917431573673045 -0.14368810984523903
    outer loop
      vertex 0.0040010001715272666 -0.014954991551116108 -0.0047610001638531685
      vertex 0.0046190001042559744 -0.015307001681998372 -0.00050099997315555811
      vertex 0.0041140001006424428 -0.020419992418959736 -0.0039260000921785831
    endloop
  endfacet
  facet normal 0.52389434422859171 0.023638094399625588 0.85145519939597991
    outer loop
      vertex 0.0024910001405514777 -0.01417800030298531 0.00077699997927993536
      vertex 0.0023520001298747957 -0.019309990020468831 0.0010049999691545963
      vertex 0.0046190001042559744 -0.015307001681998372 -0.00050099997315555811
    endloop
  endfacet
  facet normal 0.26698372460753544 0.20321038308948053 0.94203249996978022
    outer loop
      vertex 0.005046000212430954 -0.021416999312117695 0.00069600000279024243
      vertex 0.0046190001042559744 -0.015307001681998372 -0.00050099997315555811
      vertex 0.0023520001298747957 -0.019309990020468831 0.0010049999691545963
    endloop
  endfacet
  facet normal 0.89640696322368663 -0.048775297196169708 -0.44054003980059953
    outer loop
      vertex 0.0040010001715272666 -0.014954991551116108 -0.0047610001638531685
      vertex 0.0041140001006424428 -0.020419992418959736 -0.0039260000921785831
      vertex 0.002001000076532364 -0.016016997309401631 -0.0087130004540085793
    endloop
  endfacet
  facet normal 0.88889312995937031 -0.06625247365399721 -0.45329859170943854
    outer loop
      vertex 0.0022050001164898277 -0.021852992387488484 -0.0074599999934434891
      vertex 0.002001000076532364 -0.016016997309401631 -0.0087130004540085793
      vertex 0.0041140001006424428 -0.020419992418959736 -0.0039260000921785831
    endloop
  endfacet
  facet normal -0.43747519061719992 0.051733156055172314 0.89774113092751606
    outer loop
      vertex 0.0024910001405514777 -0.01417800030298531 0.00077699997927993536
      vertex -0.0011380003094673156 -0.014844991179183125 -0.00095299998065456748
      vertex 0.0023520001298747957 -0.019309990020468831 0.0010049999691545963
    endloop
  endfacet
  facet normal -0.39029559573873751 0.09645218447561367 0.91562346194100219
    outer loop
      vertex 0.0023520001298747957 -0.019309990020468831 0.0010049999691545963
      vertex -0.0011380003094673156 -0.014844991179183125 -0.00095299998065456748
      vertex -0.00029399993643164628 -0.019925989123061299 -5.8000001445179805e-05
    endloop
  endfacet
  facet normal -0.60670492875483528 -0.18708612024682794 -0.7725981575408909
    outer loop
      vertex 0.0022050001164898277 -0.021852992387488484 -0.0074599999934434891
      vertex -0.0013100002221763133 -0.020897991867735981 -0.0049310000613331795
      vertex 0.002001000076532364 -0.016016997309401631 -0.0087130004540085793
    endloop
  endfacet
  facet normal -0.56898359587907821 -0.22656321710478161 -0.7905231029360531
    outer loop
      vertex -0.0018020002432167529 -0.015593998046591877 -0.0060970000922679901
      vertex 0.002001000076532364 -0.016016997309401631 -0.0087130004540085793
      vertex -0.0013100002221763133 -0.020897991867735981 -0.0049310000613331795
    endloop
  endfacet
  facet normal -0.98870332911743164 -0.06168181474656563 0.13660556621777217
    outer loop
      vertex -0.0018020002432167529 -0.015593998046591877 -0.0060970000922679901
      vertex -0.0013100002221763133 -0.020897991867735981 -0.0049310000613331795
      vertex -0.0011380003094673156 -0.014844991179183125 -0.00095299998065456748
    endloop
  endfacet
  facet normal -0.9666861847271061 -0.12082777391029395 0.22565121162899646
    outer loop
      vertex -0.00029399993643164628 -0.019925989123061299 -5.8000001445179805e-05
      vertex -0.0011380003094673156 -0.014844991179183125 -0.00095299998065456748
      vertex -0.0013100002221763133 -0.020897991867735981 -0.0049310000613331795
    endloop
  endfacet
  facet normal 0.13438293133800255 0.18455918025342291 0.9735908466851928
    outer loop
      vertex 0.0096869999282062046 -0.031220994802191853 0.0018469999777153134
      vertex 0.0040450001573190094 -0.029433987947180867 0.0022869999520480633
      vertex 0.0059200001154094935 -0.034512987272813919 0.0029909999575465918
    endloop
  endfacet
  facet normal -0.2040718022075646 0.060100490108723752 0.97710932378749094
    outer loop
      vertex 0.0040450001573190094 -0.029433987947180867 0.0022869999520480633
      vertex 0.0044100001426413656 -0.034583991305902603 0.0026799999177455902
      vertex 0.0059200001154094935 -0.034512987272813919 0.0029909999575465918
    endloop
  endfacet
  facet normal 0.12024164303224959 0.13591087065960739 0.98339726586840404
    outer loop
      vertex 0.0032510001359041781 -0.024353988381102681 0.0016820000018924475
      vertex 0.0040450001573190094 -0.029433987947180867 0.0022869999520480633
      vertex 0.0066840003449469805 -0.026739992113783955 0.0015920000150799751
    endloop
  endfacet
  facet normal 0.11985755211717232 0.13628582963336902 0.98339226143061731
    outer loop
      vertex 0.0040450001573190094 -0.029433987947180867 0.0022869999520480633
      vertex 0.0096869999282062046 -0.031220994802191853 0.0018469999777153134
      vertex 0.0066840003449469805 -0.026739992113783955 0.0015920000150799751
    endloop
  endfacet
  facet normal -0.63758027347494284 -0.15774789864448344 0.75406033932893402
    outer loop
      vertex 0.0013710001688450575 -0.030265994282439351 -0.00014800000644754618
      vertex 0.0040450001573190094 -0.029433987947180867 0.0022869999520480633
      vertex 0.00028600005619227892 -0.025177992792800068 -9.9999999747524271e-07
    endloop
  endfacet
  facet normal -0.49877640630870479 0.025220769886368635 0.86636367033487316
    outer loop
      vertex 0.0032510001359041781 -0.024353988381102681 0.0016820000018924475
      vertex 0.00028600005619227892 -0.025177992792800068 -9.9999999747524271e-07
      vertex 0.0040450001573190094 -0.029433987947180867 0.0022869999520480633
    endloop
  endfacet
  facet normal -0.48389810591412674 -0.043953084954117871 0.87401987930237435
    outer loop
      vertex 0.00028600005619227892 -0.025177992792800068 -9.9999999747524271e-07
      vertex 0.0032510001359041781 -0.024353988381102681 0.0016820000018924475
      vertex -0.00029399993643164628 -0.019925989123061299 -5.8000001445179805e-05
    endloop
  endfacet
  facet normal -0.38329208037360762 0.055430034222351744 0.92196241378321986
    outer loop
      vertex 0.0023520001298747957 -0.019309990020468831 0.0010049999691545963
      vertex -0.00029399993643164628 -0.019925989123061299 -5.8000001445179805e-05
      vertex 0.0032510001359041781 -0.024353988381102681 0.0016820000018924475
    endloop
  endfacet
  facet normal -0.96920230387409001 -0.10461334263137331 0.22294156792452871
    outer loop
      vertex -0.00029399993643164628 -0.019925989123061299 -5.8000001445179805e-05
      vertex -0.0013100002221763133 -0.020897991867735981 -0.0049310000613331795
      vertex 0.00028600005619227892 -0.025177992792800068 -9.9999999747524271e-07
    endloop
  endfacet
  facet normal -0.95445557148961591 -0.012554541492762295 0.29808882156219368
    outer loop
      vertex -0.00096500015631318086 -0.026255987497046589 -0.0040520001202821732
      vertex 0.00028600005619227892 -0.025177992792800068 -9.9999999747524271e-07
      vertex -0.0013100002221763133 -0.020897991867735981 -0.0049310000613331795
    endloop
  endfacet
  facet normal -0.44539640122192037 -0.32505108525039411 -0.83424447121698264
    outer loop
      vertex 0.0033160001360811294 -0.027491994114592671 -0.0058559998869895935
      vertex -0.00096500015631318086 -0.026255987497046589 -0.0040520001202821732
      vertex 0.0022050001164898277 -0.021852992387488484 -0.0074599999934434891
    endloop
  endfacet
  facet normal -0.60529874298691788 -0.16666709085554507 -0.77835436181999185
    outer loop
      vertex 0.0022050001164898277 -0.021852992387488484 -0.0074599999934434891
      vertex -0.00096500015631318086 -0.026255987497046589 -0.0040520001202821732
      vertex -0.0013100002221763133 -0.020897991867735981 -0.0049310000613331795
    endloop
  endfacet
  facet normal 0.85819136089576575 0.098951370800778579 -0.50370250575167919
    outer loop
      vertex 0.0041140001006424428 -0.020419992418959736 -0.0039260000921785831
      vertex 0.0052670000325888396 -0.025700993748381733 -0.0029990000184625387
      vertex 0.0022050001164898277 -0.021852992387488484 -0.0074599999934434891
    endloop
  endfacet
  facet normal 0.82524782311746814 0.0019441967850192944 -0.56476743048686961
    outer loop
      vertex 0.0033160001360811294 -0.027491994114592671 -0.0058559998869895935
      vertex 0.0022050001164898277 -0.021852992387488484 -0.0074599999934434891
      vertex 0.0052670000325888396 -0.025700993748381733 -0.0029990000184625387
    endloop
  endfacet
  facet normal 0.93970704986249598 0.24986558531611389 -0.23349057735454831
    outer loop
      vertex 0.0066840003449469805 -0.026739992113783955 0.0015920000150799751
      vertex 0.0052670000325888396 -0.025700993748381733 -0.0029990000184625387
      vertex 0.005046000212430954 -0.021416999312117695 0.00069600000279024243
    endloop
  endfacet
  facet normal 0.9703923212778689 0.18450406481266654 -0.15587492701699193
    outer loop
      vertex 0.0041140001006424428 -0.020419992418959736 -0.0039260000921785831
      vertex 0.005046000212430954 -0.021416999312117695 0.00069600000279024243
      vertex 0.0052670000325888396 -0.025700993748381733 -0.0029990000184625387
    endloop
  endfacet
  facet normal 0.17500413962713005 0.2155604360295392 0.96068061786013093
    outer loop
      vertex 0.0066840003449469805 -0.026739992113783955 0.0015920000150799751
      vertex 0.005046000212430954 -0.021416999312117695 0.00069600000279024243
      vertex 0.0032510001359041781 -0.024353988381102681 0.0016820000018924475
    endloop
  endfacet
  facet normal 0.24365878266721419 0.17154888200807863 0.95456868726713939
    outer loop
      vertex 0.0023520001298747957 -0.019309990020468831 0.0010049999691545963
      vertex 0.0032510001359041781 -0.024353988381102681 0.0016820000018924475
      vertex 0.005046000212430954 -0.021416999312117695 0.00069600000279024243
    endloop
  endfacet
endsolid OBJECT
