solid OBJECT
  facet normal -0.1280362038200098 0.9281405469792422 0.34951660270212337
    outer loop
      vertex 0.0017180000431835651 -0.0045020092725753802 0.0045280000194907188
      vertex 0.0047100000083446503 -0.0020000149011611956 -0.0010199999669566751
      vertex -0.0024210000410676003 -0.0029920150041580218 -0.00099800003226846457
    endloop
  endfacet
  facet normal -0.13779483896972211 0.99045319882312766 -0.0038785685945050968
    outer loop
      vertex 0.0025559999048709869 -0.0023190189599990862 -0.0059569999575614929
      vertex -0.0024210000410676003 -0.0029920150041580218 -0.00099800003226846457
      vertex 0.0047100000083446503 -0.0020000149011611956 -0.0010199999669566751
    endloop
  endfacet
  facet normal 0.88356813679354462 -0.019041406806884209 0.46791534754696662
    outer loop
      vertex 0.0047100000083446503 -0.0020000149011611956 -0.0010199999669566751
      vertex 0.0017180000431835651 -0.0045020092725753802 0.0045280000194907188
      vertex 0.0047699999995529652 -0.0057770122289657611 -0.0012870000209659338
    endloop
  endfacet
  facet normal 0.85907942649308378 -0.16040576223272512 0.48605815538765812
    outer loop
      vertex 0.0017000000225380063 -0.0074710209369659442 0.0035800000187009573
      vertex 0.0047699999995529652 -0.0057770122289657611 -0.0012870000209659338
      vertex 0.0017180000431835651 -0.0045020092725753802 0.0045280000194907188
    endloop
  endfacet
  facet normal -0.81048067554912395 -0.16835916455355207 0.56104925476491418
    outer loop
      vertex -0.0024210000410676003 -0.0029920150041580218 -0.00099800003226846457
      vertex -0.0020729999523609877 -0.0069600154161453265 -0.001686000032350421
      vertex 0.0017180000431835651 -0.0045020092725753802 0.0045280000194907188
    endloop
  endfacet
  facet normal -0.80834308656574971 -0.17461505114583142 0.56221974201791902
    outer loop
      vertex 0.0017000000225380063 -0.0074710209369659442 0.0035800000187009573
      vertex 0.0017180000431835651 -0.0045020092725753802 0.0045280000194907188
      vertex -0.0020729999523609877 -0.0069600154161453265 -0.001686000032350421
    endloop
  endfacet
  facet normal 0.9020706593700244 -0.00525841255478027 -0.43155634000803789
    outer loop
      vertex 0.0026469998992979527 -0.006569008946418764 -0.0057149999774992466
      vertex 0.0025559999048709869 -0.0023190189599990862 -0.0059569999575614929
      vertex 0.0047699999995529652 -0.0057770122289657611 -0.0012870000209659338
    endloop
  endfacet
  facet normal 0.91469645782607822 0.042938035406328234 -0.40185409685092205
    outer loop
      vertex 0.0047100000083446503 -0.0020000149011611956 -0.0010199999669566751
      vertex 0.0047699999995529652 -0.0057770122289657611 -0.0012870000209659338
      vertex 0.0025559999048709869 -0.0023190189599990862 -0.0059569999575614929
    endloop
  endfacet
  facet normal -0.70096116553017462 -0.055496225261452717 -0.71103699861562009
    outer loop
      vertex 0.0025559999048709869 -0.0023190189599990862 -0.0059569999575614929
      vertex 0.0026469998992979527 -0.006569008946418764 -0.0057149999774992466
      vertex -0.0024210000410676003 -0.0029920150041580218 -0.00099800003226846457
    endloop
  endfacet
  facet normal -0.65099654846643351 0.073896190044884402 -0.75547524577688241
    outer loop
      vertex -0.0020729999523609877 -0.0069600154161453265 -0.001686000032350421
      vertex -0.0024210000410676003 -0.0029920150041580218 -0.00099800003226846457
      vertex 0.0026469998992979527 -0.006569008946418764 -0.0057149999774992466
    endloop
  endfacet
  facet normal 0.8585571474834951 -0.13428466990084464 0.49482042392632214
    outer loop
      vertex 0.0047699999995529652 -0.0057770122289657611 -0.0012870000209659338
      vertex 0.0017000000225380063 -0.0074710209369659442 0.0035800000187009573
      vertex 0.0038540000095963478 -0.0093710083961486834 -0.00067300000227987766
    endloop
  endfacet
  facet normal 0.85152471638824534 -0.15548467883197115 0.50072963965441186
    outer loop
      vertex 0.0013699999544769526 -0.010589014410972597 0.0031729999464005232
      vertex 0.0038540000095963478 -0.0093710083961486834 -0.00067300000227987766
      vertex 0.0017000000225380063 -0.0074710209369659442 0.0035800000187009573
    endloop
  endfacet
  facet normal -0.80909349858808399 -0.16677973831782625 0.56351772769730279
    outer loop
      vertex -0.0020729999523609877 -0.0069600154161453265 -0.001686000032350421
      vertex -0.0009239999926649034 -0.010669018745422365 -0.0011340000201016665
      vertex 0.0017000000225380063 -0.0074710209369659442 0.0035800000187009573
    endloop
  endfacet
  facet normal -0.88240576322301834 0.032120530572452788 0.46939145768382556
    outer loop
      vertex 0.0013699999544769526 -0.010589014410972597 0.0031729999464005232
      vertex 0.0017000000225380063 -0.0074710209369659442 0.0035800000187009573
      vertex -0.0009239999926649034 -0.010669018745422365 -0.0011340000201016665
    endloop
  endfacet
  facet normal 0.85241887192683552 -0.39957877274477011 -0.33722228745260047
    outer loop
      vertex 0.0026469998992979527 -0.006569008946418764 -0.0057149999774992466
      vertex 0.0047699999995529652 -0.0057770122289657611 -0.0012870000209659338
      vertex 0.0017719999887049198 -0.01020201635360718 -0.0036220001056790352
    endloop
  endfacet
  facet normal 0.8180186207003356 -0.29304460570921098 -0.49494484061585436
    outer loop
      vertex 0.0047699999995529652 -0.0057770122289657611 -0.0012870000209659338
      vertex 0.0038540000095963478 -0.0093710083961486834 -0.00067300000227987766
      vertex 0.0017719999887049198 -0.01020201635360718 -0.0036220001056790352
    endloop
  endfacet
  facet normal -0.6096707355283576 -0.28030911678629788 -0.74143670888808644
    outer loop
      vertex 0.0026469998992979527 -0.006569008946418764 -0.0057149999774992466
      vertex 0.0017719999887049198 -0.01020201635360718 -0.0036220001056790352
      vertex -0.0020729999523609877 -0.0069600154161453265 -0.001686000032350421
    endloop
  endfacet
  facet normal -0.61846073252236278 -0.29970177555286942 -0.7264194160802423
    outer loop
      vertex -0.0009239999926649034 -0.010669018745422365 -0.0011340000201016665
      vertex -0.0020729999523609877 -0.0069600154161453265 -0.001686000032350421
      vertex 0.0017719999887049198 -0.01020201635360718 -0.0036220001056790352
    endloop
  endfacet
  facet normal 0.83301873625490197 0.042835195447005169 0.55158401996368867
    outer loop
      vertex 0.0038540000095963478 -0.0093710083961486834 -0.00067300000227987766
      vertex 0.0013699999544769526 -0.010589014410972597 0.0031729999464005232
      vertex 0.0038370001129806042 -0.013161014437675478 -0.00035300001036375761
    endloop
  endfacet
  facet normal 0.77576131971061635 -0.10818527963964358 0.6216834565195819
    outer loop
      vertex 0.0014700000174343586 -0.013429011821746828 0.0025539998896420002
      vertex 0.0038370001129806042 -0.013161014437675478 -0.00035300001036375761
      vertex 0.0013699999544769526 -0.010589014410972597 0.0031729999464005232
    endloop
  endfacet
  facet normal -0.82929103026292206 0.026546235765656213 0.55818606619310696
    outer loop
      vertex -0.00061300001107156277 -0.014600019574165346 -0.00048499999684281647
      vertex 0.0014700000174343586 -0.013429011821746828 0.0025539998896420002
      vertex -0.0009239999926649034 -0.010669018745422365 -0.0011340000201016665
    endloop
  endfacet
  facet normal -0.87377819160193448 -0.13274039144779726 0.46785859013075587
    outer loop
      vertex 0.0014700000174343586 -0.013429011821746828 0.0025539998896420002
      vertex 0.0013699999544769526 -0.010589014410972597 0.0031729999464005232
      vertex -0.0009239999926649034 -0.010669018745422365 -0.0011340000201016665
    endloop
  endfacet
  facet normal 0.82261790480231589 -0.051500391962893702 -0.56625744350632268
    outer loop
      vertex 0.0038540000095963478 -0.0093710083961486834 -0.00067300000227987766
      vertex 0.0038370001129806042 -0.013161014437675478 -0.00035300001036375761
      vertex 0.0017719999887049198 -0.01020201635360718 -0.0036220001056790352
    endloop
  endfacet
  facet normal 0.76344798964744987 -0.15883306192359617 -0.6260345242422678
    outer loop
      vertex 0.0016830000095069408 -0.014319013476371767 -0.0026859999634325504
      vertex 0.0017719999887049198 -0.01020201635360718 -0.0036220001056790352
      vertex 0.0038370001129806042 -0.013161014437675478 -0.00035300001036375761
    endloop
  endfacet
  facet normal -0.65558045501345319 -0.15390231235909793 -0.73927555434687298
    outer loop
      vertex 0.0017719999887049198 -0.01020201635360718 -0.0036220001056790352
      vertex 0.0016830000095069408 -0.014319013476371767 -0.0026859999634325504
      vertex -0.0009239999926649034 -0.010669018745422365 -0.0011340000201016665
    endloop
  endfacet
  facet normal -0.67061673211530648 -0.1721811789530818 -0.72154475967975396
    outer loop
      vertex -0.00061300001107156277 -0.014600019574165346 -0.00048499999684281647
      vertex -0.0009239999926649034 -0.010669018745422365 -0.0011340000201016665
      vertex 0.0016830000095069408 -0.014319013476371767 -0.0026859999634325504
    endloop
  endfacet
  facet normal 0.75194070358856235 0.19373175731345299 0.63012156326773905
    outer loop
      vertex 0.0038370001129806042 -0.013161014437675478 -0.00035300001036375761
      vertex 0.0014700000174343586 -0.013429011821746828 0.0025539998896420002
      vertex 0.0039650001563131809 -0.016777019619941713 0.00060600001597777009
    endloop
  endfacet
  facet normal 0.84065371293769209 0.47294510537437628 0.26386409802489719
    outer loop
      vertex 0.0028220000676810741 -0.016240011572837831 0.0032850001007318497
      vertex 0.0039650001563131809 -0.016777019619941713 0.00060600001597777009
      vertex 0.0014700000174343586 -0.013429011821746828 0.0025539998896420002
    endloop
  endfacet
  facet normal -0.73529259661147672 0.017404978556159505 0.67752628295130513
    outer loop
      vertex -0.00015900000289548188 -0.018543015837669374 0.00010900000052060932
      vertex 0.0028220000676810741 -0.016240011572837831 0.0032850001007318497
      vertex -0.00061300001107156277 -0.014600019574165346 -0.00048499999684281647
    endloop
  endfacet
  facet normal -0.7664926131189338 -0.21090208685098222 0.60663776983963758
    outer loop
      vertex 0.0014700000174343586 -0.013429011821746828 0.0025539998896420002
      vertex -0.00061300001107156277 -0.014600019574165346 -0.00048499999684281647
      vertex 0.0028220000676810741 -0.016240011572837831 0.0032850001007318497
    endloop
  endfacet
  facet normal 0.84842170772078951 0.08879951125263344 -0.52181917621857554
    outer loop
      vertex 0.0024540000595152378 -0.018900017857551576 -0.0022120000794529915
      vertex 0.0016830000095069408 -0.014319013476371767 -0.0026859999634325504
      vertex 0.0039650001563131809 -0.016777019619941713 0.00060600001597777009
    endloop
  endfacet
  facet normal 0.76127932169477897 -0.14091081719525161 -0.632928065389191
    outer loop
      vertex 0.0038370001129806042 -0.013161014437675478 -0.00035300001036375761
      vertex 0.0039650001563131809 -0.016777019619941713 0.00060600001597777009
      vertex 0.0016830000095069408 -0.014319013476371767 -0.0026859999634325504
    endloop
  endfacet
  facet normal -0.66654805217463475 -0.18685365037421325 -0.72166433158639043
    outer loop
      vertex 0.0024540000595152378 -0.018900017857551576 -0.0022120000794529915
      vertex -0.00015900000289548188 -0.018543015837669374 0.00010900000052060932
      vertex 0.0016830000095069408 -0.014319013476371767 -0.0026859999634325504
    endloop
  endfacet
  facet normal -0.6680825724832502 -0.18547958995152339 -0.72059905499214849
    outer loop
      vertex -0.00061300001107156277 -0.014600019574165346 -0.00048499999684281647
      vertex 0.0016830000095069408 -0.014319013476371767 -0.0026859999634325504
      vertex -0.00015900000289548188 -0.018543015837669374 0.00010900000052060932
    endloop
  endfacet
  facet normal 0.90983481752462914 0.31951310398523119 0.26478667111780302
    outer loop
      vertex 0.0050280001014471054 -0.02030701529979706 0.0012130000395700336
      vertex 0.0039650001563131809 -0.016777019619941713 0.00060600001597777009
      vertex 0.0038620000705122948 -0.019095014452934267 0.0037569999694824219
    endloop
  endfacet
  facet normal 0.87899169671800981 0.36993373157779541 0.30086979134124126
    outer loop
      vertex 0.0028220000676810741 -0.016240011572837831 0.0032850001007318497
      vertex 0.0038620000705122948 -0.019095014452934267 0.0037569999694824219
      vertex 0.0039650001563131809 -0.016777019619941713 0.00060600001597777009
    endloop
  endfacet
  facet normal -0.67595369121857385 -0.090805500867091771 0.73132822203184644
    outer loop
      vertex 0.0014250000240281224 -0.021910007715225222 0.0011549999471753836
      vertex 0.0038620000705122948 -0.019095014452934267 0.0037569999694824219
      vertex -0.00015900000289548188 -0.018543015837669374 0.00010900000052060932
    endloop
  endfacet
  facet normal -0.67599551700913663 -0.12621914668364914 0.72601569404111477
    outer loop
      vertex 0.0028220000676810741 -0.016240011572837831 0.0032850001007318497
      vertex -0.00015900000289548188 -0.018543015837669374 0.00010900000052060932
      vertex 0.0038620000705122948 -0.019095014452934267 0.0037569999694824219
    endloop
  endfacet
  facet normal 0.80397324799986791 0.024465052602933635 -0.59416199617753951
    outer loop
      vertex 0.0035149999894201756 -0.022899012684822084 -0.00094100000569596887
      vertex 0.0024540000595152378 -0.018900017857551576 -0.0022120000794529915
      vertex 0.0050280001014471054 -0.02030701529979706 0.0012130000395700336
    endloop
  endfacet
  facet normal 0.81907325093075301 0.15150391592264195 -0.5533223048728767
    outer loop
      vertex 0.0039650001563131809 -0.016777019619941713 0.00060600001597777009
      vertex 0.0050280001014471054 -0.02030701529979706 0.0012130000395700336
      vertex 0.0024540000595152378 -0.018900017857551576 -0.0022120000794529915
    endloop
  endfacet
  facet normal -0.61737819230674351 -0.48327832291331774 -0.62071429036727421
    outer loop
      vertex -0.00015900000289548188 -0.018543015837669374 0.00010900000052060932
      vertex 0.0024540000595152378 -0.018900017857551576 -0.0022120000794529915
      vertex 0.0014250000240281224 -0.021910007715225222 0.0011549999471753836
    endloop
  endfacet
  facet normal -0.73896562380707986 -0.37414301391199301 -0.56030956798207854
    outer loop
      vertex 0.0014250000240281224 -0.021910007715225222 0.0011549999471753836
      vertex 0.0024540000595152378 -0.018900017857551576 -0.0022120000794529915
      vertex 0.0035149999894201756 -0.022899012684822084 -0.00094100000569596887
    endloop
  endfacet
  facet normal 0.91089294993583081 0.31375459182891979 0.26801509260388234
    outer loop
      vertex 0.0038620000705122948 -0.019095014452934267 0.0037569999694824219
      vertex 0.004747999832034111 -0.021985020160675051 0.0041290000081062317
      vertex 0.0050280001014471054 -0.02030701529979706 0.0012130000395700336
    endloop
  endfacet
  facet normal 0.96433550749338603 -0.25863976081353324 -0.056236137080990248
    outer loop
      vertex 0.004747999832034111 -0.021985020160675051 0.0041290000081062317
      vertex 0.0041379998438060284 -0.023833017468452455 0.0021679999772459269
      vertex 0.0050280001014471054 -0.02030701529979706 0.0012130000395700336
    endloop
  endfacet
  facet normal -0.67797296260313089 -0.08768070014076744 0.72983885673616933
    outer loop
      vertex 0.0014250000240281224 -0.021910007715225222 0.0011549999471753836
      vertex 0.0036559998989105225 -0.024336021065711977 0.0029360000044107437
      vertex 0.0038620000705122948 -0.019095014452934267 0.0037569999694824219
    endloop
  endfacet
  facet normal -0.63350598092351684 -0.095380777559435706 0.76783636238868636
    outer loop
      vertex 0.004747999832034111 -0.021985020160675051 0.0041290000081062317
      vertex 0.0038620000705122948 -0.019095014452934267 0.0037569999694824219
      vertex 0.0036559998989105225 -0.024336021065711977 0.0029360000044107437
    endloop
  endfacet
  facet normal 0.91216292791514997 -0.30452413166720071 -0.27426965958632438
    outer loop
      vertex 0.0035149999894201756 -0.022899012684822084 -0.00094100000569596887
      vertex 0.0050280001014471054 -0.02030701529979706 0.0012130000395700336
      vertex 0.0041379998438060284 -0.023833017468452455 0.0021679999772459269
    endloop
  endfacet
  facet normal -0.53644367573319696 -0.83183492098524714 -0.14240381664591778
    outer loop
      vertex 0.0035149999894201756 -0.022899012684822084 -0.00094100000569596887
      vertex 0.0041379998438060284 -0.023833017468452455 0.0021679999772459269
      vertex 0.0014250000240281224 -0.021910007715225222 0.0011549999471753836
    endloop
  endfacet
  facet normal -0.27036302710127991 -0.71881769933007045 -0.64047244180093876
    outer loop
      vertex 0.0036559998989105225 -0.024336021065711977 0.0029360000044107437
      vertex 0.0014250000240281224 -0.021910007715225222 0.0011549999471753836
      vertex 0.0041379998438060284 -0.023833017468452455 0.0021679999772459269
    endloop
  endfacet
  facet normal 0.84387546481244347 -0.49590358730919826 0.20482634591636603
    outer loop
      vertex 0.0041379998438060284 -0.023833017468452455 0.0021679999772459269
      vertex 0.004747999832034111 -0.021985020160675051 0.0041290000081062317
      vertex 0.0036559998989105225 -0.024336021065711977 0.0029360000044107437
    endloop
  endfacet
endsolid OBJECT
